<?xml version="1.0" encoding="UTF-8" standalone="no"?>
<svg
   xmlns:dc="http://purl.org/dc/elements/1.1/"
   xmlns:cc="http://creativecommons.org/ns#"
   xmlns:rdf="http://www.w3.org/1999/02/22-rdf-syntax-ns#"
   xmlns:svg="http://www.w3.org/2000/svg"
   xmlns="http://www.w3.org/2000/svg"
   height="1599.9973"
   width="2119.0967"
   xml:space="preserve"
   enable-background="new 0 0 2185.928 1650.46"
   viewBox="0 0 2119.0967 1599.9974"
   y="0px"
   x="0px"
   id="Layer_1"
   version="1.1"><metadata
   id="metadata19"><rdf:RDF><cc:Work
       rdf:about=""><dc:format>image/svg+xml</dc:format><dc:type
         rdf:resource="http://purl.org/dc/dcmitype/StillImage" /></cc:Work></rdf:RDF></metadata><defs
   id="defs17" />
<g
   transform="translate(-33.415188,-25.231611)"
   id="g4">
	<path
   id="path2"
   d="m 1740.012,785.807 c -0.01,-0.05 -0.01,-0.09 -0.01,-0.14 v -0.2 c 0,0.11 0,0.23 0.01,0.34 z" />
</g>
<path
   id="path6"
   d="m 1706.5868,760.43539 v -0.2 c 0,0.11 0,0.23 0.01,0.34 -0.01,-0.05 -0.01,-0.09 -0.01,-0.14 z" />
<path
   id="path8"
   d="m 2118.7268,1484.0054 c -0.12,1.89 -0.42,3.82 -0.66,5.74 -0.35,1.88 -0.75,4.1 -1.18,5.71 -0.87,3.57 -1.91,7.25 -3.12,10.79 -2.44,7.12 -5.63,14.21 -10.37,20.68 -4.7,6.42 -11.38,12.19 -19.44,15.03 -8.03,2.94 -16.59,2.83 -24.26,1.32 -2.36,-0.47 -3.47,-0.75 -5.61,-1.35 -2.01,-0.56 -3.87,-1.21 -5.74,-1.97 -3.74,-1.52 -7.44,-3.58 -10.72,-6.31 -3.32,-2.7 -6.06,-6.13 -8.15,-9.73 -2.11,-3.6 -3.51,-7.37 -4.65,-11.04 -2.2,-7.37 -3.34,-14.44 -4.89,-21.2 -0.76,-3.38 -1.59,-6.68 -2.57,-9.9 -0.95,-3.14 -2.24,-6.46 -3.41,-9.84 -1.2,-3.32 -2.49,-6.48 -3.74,-9.73 l -4.06,-9.7 c -5.59,-12.88 -11.83,-25.52 -18.42,-37.97 -13.21,-24.88 -27.96,-49.08 -44.84,-71.55 -4.23,-5.67 -8.56,-11 -13.38,-15.78 -4.85,-4.85 -10.13,-9.31 -15.72,-13.36 -11.19,-8.12 -23.6,-14.64 -36.5,-20.08 -25.85,-10.94 -53.54,-17.39 -81,-24.9 -6.88,-1.89 -13.69,-3.76 -20.58,-5.49 -6.85,-1.68 -13.76,-3.28 -20.69,-4.85 -13.87,-3.14 -27.81,-6.24 -41.5,-10.36 l -10.24,-3.31 c -3.31,-1.21 -6.69,-2.55 -9.95,-4.07 -6.51,-2.99 -12.79,-6.38 -19.02,-9.81 -9.8,-5.37 -19.72,-10.8 -30.36,-14.24 -1.53,5.23 -2.91,10.5 -4.13,15.8 -3.1,13.49 -5.29,27.09 -5.33,40.58 -0.06,13.48 2.18,26.69 7.46,38.88 5.23,11.66 14.21,22.73 22,34.96 3.92,6.15 7.61,12.73 10.31,19.95 2.63,6.99 4.17,14.63 4.19,22.29 0.22,1.27 0.36,2.57 0.37,3.92 -0.03,1.62 -0.23,3.24 -0.63,4.83 -0.44,1.58 -1.05,3.09 -1.8,4.49 -0.66,1.17 -1.41,2.23 -2.2,3.23 -15.84,22.92 -32.88,44.49 -50.98,65.41 -18.15,20.84 -37.4,40.82 -58.32,59.1 -20.94,18.22 -43.56,34.99 -69.08,47.29 -12.78,6.05 -26.33,10.91 -40.6,13.35 -1.77,0.34 -3.56,0.6 -5.37,0.8 -1.79,0.25 -3.6,0.42 -5.41,0.53 -3.58,0.35 -7.43,0.29 -10.64,0.37 -6.5,0.19 -13.44,0.67 -20.27,1.06 -13.74,0.78 -27.57,1.55 -41.75,0.94 -7.12,-0.39 -14.26,-0.89 -22,-3.32 -1.94,-0.64 -3.94,-1.45 -6.03,-2.76 l -0.78,-0.51 -0.38,-0.26 c 0.06,0.06 -0.53,-0.38 -0.55,-0.41 l -1,-0.81 c -0.58,-0.45 -1.48,-1.3 -2.32,-2.12 -3.14,-3.13 -5.49,-6.82 -6.97,-10.92 -3.04,-8.21 -2.22,-16.88 0.2,-24.31 2.46,-7.5 6.6,-14.12 11.67,-19.82 5.15,-5.71 11.1,-10.38 18.32,-13.89 3.86,-1.85 8.24,-2.71 12.15,-2.94 3.97,-0.24 7.71,0.01 11.24,0.33 7.03,0.66 13.54,1.61 19.02,0.79 0.69,-0.08 1.34,-0.22 1.98,-0.37 0.32,-0.08 0.65,-0.14 0.95,-0.24 l 0.47,-0.14 0.23,-0.07 c 0.05,-0.03 0.07,-0.04 0.08,-0.03 0.74,-0.29 1.68,-0.61 2.24,-0.88 0.53,-0.29 1.02,-0.44 1.63,-0.82 2.37,-1.3 4.54,-3 6.72,-5.21 2.2,-2.17 4.41,-4.72 6.9,-7.35 1.25,-1.31 2.54,-2.63 3.93,-3.9 1.37,-1.29 2.9,-2.55 4.16,-3.59 5.31,-4.37 10.52,-8.71 15.68,-13.13 10.32,-8.84 20.4,-17.93 29.96,-27.45 4.79,-4.76 9.41,-9.64 13.92,-14.64 4.32,-4.9 8.6,-10.08 10.96,-15.12 2.39,-5.07 2.23,-9.25 -0.29,-14.54 -2.5,-5.19 -6.61,-10.45 -10.83,-15.56 -2.11,-2.52 -4.41,-5.21 -6.54,-7.55 -2.32,-2.5 -4.62,-5.12 -6.95,-7.51 -4.6,-4.74 -9.42,-9.45 -14.38,-14.1 -9.89,-9.27 -20.2,-18.27 -30.39,-27.57 -10.24,-9.33 -20.08,-18.88 -29.99,-28.32 -19.72,-18.82 -39.65,-37.33 -63.92,-47.37 -12.04,-5.11 -24.92,-8.2 -38.09,-9.88 -6.65,-0.91 -13.09,-1.24 -20.09,-1.67 -6.77,-0.37 -13.83,-0.99 -20.77,-1.73 -27.66,-3.02 -54.71,-8.85 -81.5,-14.3 -13.4,-2.73 -26.77,-5.33 -40.17,-7.44 l -10.05,-1.48 -10,-1.26 -10.23,-1.05 -10.1,-0.85 c -27.1,-2.07 -54.53,-2.75 -82.05,-4.65 -24.39999,-1.74 -49.00999,-4.34 -73.17999,-10.13 -2.66,10.25 -4.44,20.74 -5.34,31.32 -1.42,16.6 -0.73,33.41 1.44,50.06 4.35,33.39 14.45,66 24.97,98.52 l 3.96,12.3 c 1.3,4.25 2.45,8.44 3.53,12.67 2.16,8.45 3.98,16.95 5.56,25.48 3.14,17.09 5.31,34.36 6.12,51.8 0.71,17.43 0.27,35.11 -3.64,52.65 -2,8.74 -4.94,17.48 -9.73,25.59 -2.43,4.02 -5.35,7.85 -8.82,11.24 -3.36,3.25 -7.28,6.01 -11.51,8.11 l -8.73,5.99 -1.41,0.97 -1.75,0.02 c -7.23,0.06 -15.04,1.6 -22.85,3.22 -7.85,1.64 -15.8,3.48 -24.04,4.8 -8.24,1.28 -16.79,2.24 -25.79,1.05 -4.48,-0.62 -9.1,-1.87 -13.38,-4.17 -4.29,-2.28 -8.1,-5.66 -10.89,-9.58 -0.75,-0.96 -1.36,-1.98 -1.94,-3.01 l -0.89,-1.54 -0.74,-1.6 -0.64,-1.38 c -0.21,-0.47 -0.44,-1.16 -0.65,-1.73 -0.45,-1.19 -0.86,-2.4 -1.1,-3.57 -1.2,-4.67 -1.3,-9.89 -0.05,-14.71 1.28,-4.81 3.67,-9.06 6.45,-12.69 2.79,-3.65 5.96,-6.74 9.24,-9.53 6.6,-5.57 13.64,-10.03 20.61,-14.31 5.76,-3.54 11.57,-6.9 16.93,-10.47 -3.18,-9.92 -6.07,-19.83 -8.98,-29.72 l -9.92,-33.49 c -6.76,-22.24 -13.98,-44.3 -22.41,-65.82 -8.48,-21.47 -18.04,-42.57 -30.3,-61.79 -6.14,-9.57 -13,-18.65 -20.91,-26.51 -7.87,-7.86 -16.94,-14.39 -26.98,-18.19 l -0.46,-0.17 -0.41,-0.25 c -15.85,-9.48 -31.76,-18.84 -48.86,-23.95 -8.57,-2.57 -17.64,-4.34 -26.78,-6.33 l -6.75,-1.37 c -2.19,-0.41 -4.38,-0.78 -6.56,-1.06 -4.35,-0.52 -8.48,-0.78 -12.12,0.17 -3.66,0.84 -7.49,2.86 -11.58,5.06 -4.07,2.19 -8.26,4.45 -12.52,6.53 -1.1,0.53 -2.06,1.04 -3.27,1.58 l -3.19,1.46 c -2.28,0.98 -4.55,1.91 -6.79,2.74 -4.52,1.67 -9.11,3.12 -13.73,4.37 -18.48,5.01 -37.18,7.02 -55.17,10.57 -9.01,1.76 -17.85,3.9 -26.37,6.85 -4.25,1.48 -8.44,3.12 -12.49,5.03 -1.02,0.45 -2.01,0.99 -3.01,1.47 l -1.42,0.71 -1.53,0.84 -6.13,3.35 c -7.77,4.52 -15.46,9.56 -22.9,14.9 -7.42,5.41 -14.64,11.12 -21.74,17.02 -14.15,11.85 -27.81,24.44 -41.69,36.91 -6.98,6.26 -13.9,12.36 -21.22,18.52 -7.09,5.81 -14.84,11.76 -22.68,16.92 -15.68,10.55 -32.24,19.48 -48.68,28.22 -16.47,8.72 -32.82,17.38 -48.32,27.28 -7.7,5.07 -15.22,10.17 -22.35,15.96 -7.12,5.77 -14.05,11.9 -20.94,18.12 -13.76,12.44 -27.4,25.18 -41.46,37.5 -14.06,12.31 -28.49,24.31 -43.81,35.25 -15.31,10.9 -31.55,20.86 -49.37,27.84 -8.919998,3.43 -18.259998,6.07 -27.919998,7.17 -9.64,1.11 -19.64,0.61 -29.13,-2.07 -9.5,-2.61 -18.32,-7.39 -25.93,-13.45 -7.62,-6.08 -14.0700002,-13.36 -19.6800002,-21.11 l -0.1,-0.14 -0.09,-0.15 c -2.07999996,-3.59 -3.14999996,-7.92 -2.85999996,-12.06 0.27,-4.14 1.59999996,-8.01 3.40999996,-11.39 3.67,-6.82 8.9700002,-12.17 14.7800002,-16.63 5.86,-4.42 12.34,-8.04 19.66,-10.09 6.92,-1.75 13.45,-3.37 19.97,-5.44 6.49,-2.06 12.72,-4.54 18.5,-7.82 5.78,-3.27 11.1,-7.42 16.24,-11.9 5.13,-4.49 10.099998,-9.28 15.019998,-14.16 l 14.96,-14.56 c 9.95,-9.71 19.94,-19.38 30.12,-28.9 l 30.39,-28.6 30.36,-28.59 c 10.06,-9.57 20.23,-19.05 30.05,-28.83 19.68,-19.5 38.63,-39.79 55.59,-61.6 8.46,-10.92 16.4,-22.23 23.4,-34.08 1.76,-2.95 3.49,-5.92 5.04,-8.98 l 2.4,-4.56 2.19,-4.65 c 0.7,-1.52 1.52,-3.18 2.11,-4.58 0.61,-1.62 1.29,-3.25 1.85,-4.85 0.45,-1.58 0.95,-3.13 1.38,-4.73 0.36,-1.64 0.76,-3.27 1.08,-4.93 2.48,-13.31 1.78,-27.22 2.53,-41.25 0.38,-7.02 1.12,-14.11 2.75,-21.08 1.79,-6.95 3.8,-13.44 5.68,-20.18 l 2.86,-10.03 5,-20.12 2.12,-10.15 c 1.52,-6.76 2.5,-13.58 3.59,-20.39 0.34,-3.41 0.78,-6.83 1.05,-10.24 l 0.26,-5.1 c 0,-1.27 0.02,-2.65 -0.04,-3.88 -4.96,-2.8 -10.16,-5.39 -15.4,-7.75 -5.59,-2.52 -11.29,-4.8 -17.08,-6.75 -5.8,-1.95 -11.7,-3.58 -17.67,-4.7 -5.97,-1.09 -12.03,-1.7 -18.01,-1.35 -2.98,0.19 -5.95,0.56 -8.8,1.33 -3.05,0.71 -5.91,1.65 -9.11,2.18 -6.25,1.24 -12.5,1.89 -18.79,2.03 -12.56,0.32 -24.95,-1.01 -37.25,-1.66 -6.15,-0.32 -12.29,-0.43 -18.39,-0.12 -6.12,0.33 -12.4,0.77 -18.64,0.74 -12.47,-0.01 -25.12,-1.26 -37.14,-5.14 -5.99,-1.93 -11.78,-4.49 -17.23,-7.63 -5.48,-3.09 -10.58,-6.77 -15.48,-10.64 -9.74,-7.83001 -18.599998,-16.56001 -27.449998,-25.23001 l -2.28,-2.22 h 1.85 c -0.42,-6.02 0.32,-12.04 1.58,-17.83 1.37,-6.28 3.31,-12.35 5.24,-18.38 1.94,-6.04 3.88,-12.04 5.34,-18.15 1.509998,-6.12 2.309998,-12.26 2.519998,-18.59 0.64,-12.63 1.25,-25.49 4.92,-37.83 3.61,-12.36 10.41,-23.48 18.16,-33.52 3.81,-5.13 8.38,-9.66 12.95,-14.04 l 13.89,-12.98 c 4.59,-4.35 9.1,-8.78 13.18,-13.58 4.03,-4.79 7.78,-10.01 9.78,-15.89 2,-5.97 2.46,-12.36 1.02,-18.47 -1.39,-6.12 -4.38,-11.76 -7.4,-17.3 -3.03,-5.55 -6.14,-11.16 -7.96,-17.3 -1.87,-6.11 -2.15,-12.69 -0.85,-18.93 l 0.11,-0.49 0.34,0.36 3.61,3.77 0.02,0.01 0.01,0.02 c 0.75,1.12 1.56,2.2 2.45,3.21 0.92,1 1.89,1.93 2.92,2.8 1.06,0.85 2.15,1.63 3.3,2.36 1.15,0.7 2.34,1.35 3.56,1.95 4.89,2.36 10.15,3.83 15.39,5.26 5.25,1.44 10.54,2.8 15.56,4.93 2.5,1.07 4.92,2.35 7.14,3.94 0.45,0.33 0.88,0.67 1.31,1.02 -0.32,-0.41 -0.65,-0.83 -0.97,-1.25 -2.79,-3.63 -5.43,-7.38 -7.75,-11.33 -2.78,-4.75 -5.12,-9.8 -6.4,-15.18 -1.3,-5.34 -1.38,-11.09 0.35,-16.37 1.68,-5.31 4.98,-9.96 8.92,-13.82 l 0.16,-0.15 0.19,0.13 3.18,2.18 1.58,1.11 0.79,0.59 0.06,0.05 0.03,0.03 c 0,0.03 0.03,-0.07 0.11,0.23 -0.03,0.13 -0.07,0.2 -0.12,0.25 10.1,12.74 22.76,23.3 36.42,32.04 14,8.92 29.22,15.89 45.08,20.72 15.85,4.86 32.34,7.59 48.9,8.15 16.59,0.23 33.33,0.97 49.9,2.6 33.19,3.11 66.09,8.45 99.22,10.88 8.28,0.54 16.57,1 24.86,1.1 8.32,0.19 16.54,0.05 24.72,-1.03 16.38,-2.03 32.32,-6.76 47.94,-12.3 15.65,-5.52 31.13,-11.76 47.18,-16.57 16.02,-4.8 32.72,-8.08 49.62,-8.02 33.65,0.15 66.48,7.37 99.38,10.94 16.45,1.77 33.01,2.39 49.39,0.77 8.18,-0.79 16.31,-2.11 24.3,-4.03 7.96,-1.98 16.07,-4.2 24.09,-6.29 32.28,-8.4 64.78,-15.81 97.5,-22.25 65.41999,-12.82 131.72999,-21.69 198.43999,-24.57 16.69,-0.63 33.34,-1.07 50.09,-0.9 8.32,0.13 16.63,0.15 25.01,0.58 8.37,0.31 16.72,0.67 25.03,1.24 33.32,1.99 66.47,5.23 99.61,7.56 33.03,2.17 66.45,4.41 98.83,-0.5 8.1,-1.17 16.05,-3.04 23.91,-5.21 7.77,-2.41 15.51,-5.04 22.91,-8.47 14.92,-6.64 28.97,-15.22 42.32,-24.83 26.87,-19.42 53.01,-40.15 80.64,-59.04 13.81,-9.45 27.99,-18.44 42.68,-26.59 3.67,-2.04 7.4,-3.97 11.1,-5.96 l 11.28,-5.63 11.46,-5.27 11.42,-5.02 c 15.24,-6.7 30.42,-13.34 44.99,-20.95 14.5,-7.68 28.33,-16.47 40.52,-27.2 12.19,-10.74 22.84,-23.16 32.07,-36.65 9.29,-13.36 16.12,-28.03 19.94,-43.71 3.8,-15.64 4.61,-31.96 3.28,-48.16 -1.32,-16.23 -4.58,-32.36 -8.59,-48.35 -8.03,-32.01 -19.15,-63.58 -25.54,-96.79 -3.15,-16.58 -5.09,-33.6 -4.34,-50.75 0.73,-17.12 4.28,-34.3 10.97,-50.21 3.26,-7.92 7.5,-15.690001 11.89,-22.740001 4.51,-7.31 9.29,-14.26 14.54,-21.01 10.44,-13.45 22.62,-25.77 36.61,-35.8 13.91,-10.11 29.62,-17.76 46.01,-22.8399999 16.4,-5.11 33.57,-7.44000001 50.41,-8.37000001 4.57,-0.17 9.11,-0.07 13.88,1.05000001 4.68,1.07 9.72,3.25 13.53,7.31 3.83,4.0399999 5.73,9.3799999 6.31,14.2399999 0.59,4.92 0.16,9.6 -0.64,14.05 -1.66,8.9 -4.8,17.03 -8.35,24.87 -3.58,7.82 -7.71,15.29 -12.17,22.53 -4.48,7.24 -9.26,14.26 -14.59,21.020001 -1.34,1.69 -2.72,3.36 -4.19,5.02 -1.42,1.65 -3.16,3.38 -4.58,4.76 -3.04,2.95 -5.71,5.73 -8.46,8.75 -10.83,11.91 -19.79,25.35 -23.37,40.44 -3.66,15.08 -2.14,31.27 0.89,47.23 1.51,8.04 3.43,15.93 5.44,24.08 1.97,8.02 3.88,16.33 5.47,24.59 3.25,16.52 5.65,33.23 6.98,50.07 1.26,16.84 1.41,33.79 0.26,50.69 -2.33,33.79 -10.35,67.33 -24.12,98.36 -13.62,31.12 -32.8,59.5 -54.93,84.95 -5.61,6.33 -11.1,12.59 -17.48,18.55 -6.21,5.86 -12.57,11.32 -18.98,16.73 l -38.46,31.86 c -25.41,21.27 -50.07,43.36 -71.7,68.06 -21.53,24.62 -40.12,52.16 -50.28,82.79 l -0.22,0.68 -0.37,0.6 c -1,1.61 -1.65,3.68 -2.01,5.99 0.9,1.78 1.9,3.51 2.93,5.22 2.71,4.46 5.69,8.75 8.74,12.97 6.14,8.45 12.62,16.64 19.06,24.87 6.46,8.22 12.99,16.38 19.34,24.73 3.16,4.18 6.29,8.4 9.24,12.81 1.47,2.2 2.89,4.45 4.19,6.85 l 3.55,7.04 c 9.27,19.05 15.78,39.18 21.33,59.42 2.81,10.12 5.24,20.31 7.82,30.43 2.56,10.12 5.17,20.19 8.12,30.14 l 1.1,3.73 c 0.31,1.07 0.8,2.44 1.19,3.64 l 1.24,3.72 1.36,3.52 c 1.78,4.69001 3.92,9.40001 6.19,13.96001 4.56,9.16 9.9,17.94 15.79,26.35 11.82,16.81 25.78,32.11 40.98,46.02 15.21,13.9 31.72,26.39 49.12,37.37 17.38,11.01 35.74,20.52 54.88,27.58 v 0 c 1.97,0.726 3.379,2.479 3.667,4.558 v 0.021 c 1.71,12.49 7.57,24.34 14.44,35.9 6.85,11.62 14.81,23.17 20.68,36.5 l 3.95,9.68 c 1.22,3.31 2.5,6.65 3.65,9.94 2.3,6.58 4.46,13.15 6.6,19.67 2.16,6.52 4.26,13.01 6.59,19.36 1.11,3.2 2.32,6.34 3.56,9.47 l 0.92,2.35 0.43,1.11 0.5,1.18 c 0.67,1.56 1.34,3.22 2.02,4.68 2.68,6 5.74,12.1 8.9,18.07 3.17,5.99 6.5,11.94 9.87,17.91 6.74,11.94 13.65,23.94 19.95,36.43 6.29,12.49 11.93,25.54 15.7,39.42 3.39,12.44 5.08,25.67 4.04,38.84 l 3.63,1.82 2.98,1.49 0.41,3.22 c 0.99,7.681 1.14,15.081 0.52,22.681 z" />
<path
   id="path10"
   d="m 1635.2668,1214.4454 c 2.98,0.48 5.91,1.14 8.79,1.95 -0.02,0.05 -0.04,0.1 -0.05,0.15 -0.02,0.06 -0.04,0.13 -0.05,0.19 -2.66,-0.86 -5.37,-1.6 -8.14,-2.17 -0.18,-0.05 -0.37,-0.08 -0.55,-0.12 z" />
<path
   id="path12"
   d="m 1709.5468,769.33539 c -0.02,0.11 -0.04,0.23 -0.06,0.34 -0.01,0.11 -0.02,0.21 -0.04,0.32 -0.35,-0.72 -0.67,-1.45 -0.98,-2.19 -0.98,-2.34 -1.87,-4.81 -1.88,-7.37 v -0.2 c 0,0.16 0.01,0.33 0.02,0.49 0.18,2.45 1.13,4.76 2.14,6.97 0.26,0.55 0.52,1.1 0.8,1.64 z" />
</svg>