<?xml version="1.0" encoding="UTF-8" standalone="no"?>
<svg
   xmlns:dc="http://purl.org/dc/elements/1.1/"
   xmlns:cc="http://creativecommons.org/ns#"
   xmlns:rdf="http://www.w3.org/1999/02/22-rdf-syntax-ns#"
   xmlns:svg="http://www.w3.org/2000/svg"
   xmlns="http://www.w3.org/2000/svg"
   height="1599.9991"
   width="1503.3661"
   xml:space="preserve"
   enable-background="new 0 0 1580.5306 1682.1244"
   viewBox="0 0 1503.3661 1599.9992"
   y="0px"
   x="0px"
   id="Layer_1"
   version="1.1"><metadata
   id="metadata17"><rdf:RDF><cc:Work
       rdf:about=""><dc:format>image/svg+xml</dc:format><dc:type
         rdf:resource="http://purl.org/dc/dcmitype/StillImage" /></cc:Work></rdf:RDF></metadata><defs
   id="defs15" />
<path
   id="path2"
   d="m 1500.533,745.91297 c 1.5166,-0.0962 2.9771,-0.7167 2.8218,-2.5692 -0.1234,-1.4719 -1.3901,-1.9656 -2.7445,-2.0909 -3.092,-0.2857 -5.8678,-1.5395 -6.7181,-4.5724 -1.5543,-5.5432 -3.0306,-10.6541 -1.3624,-17.1279 1.9886,-7.7184 1.6444,-16.1725 3.3425,-24.2418 0.9753,-4.6336 -0.8087,-9.7056 1.774,-14.2498 0.5731,-1.0088 0.1715,-2.166 -0.34,-3.1096 -1.5421,-2.8444 -1.4319,-5.912 -1.282,-8.9632 0.1396,-2.8403 -0.4703,-5.3341 -2.5321,-7.4005 -2.0886,-2.0931 -3.0657,-4.617 -1.6157,-7.3454 1.3929,-2.6213 0.2817,-4.0032 -1.8115,-5.236 -1.5431,-0.9088 -3.5625,-1.6584 -3.6869,-3.6472 -0.3796,-6.0728 -3.9266,-11.595 -2.8668,-17.9211 0.8038,-4.798 -3.1899,-8.715 -2.8168,-13.5223 0.041,-0.5299 -0.7682,-1.1484 -1.2251,-1.6906 -3.1305,-3.7143 -6.6055,-6.2155 -12.0033,-5.5427 -4.0818,0.5088 -7.6914,-1.2169 -10.15,-4.868 -3.8469,-5.7124 -8.592,-10.5978 -8.821,-18.5139 -0.1108,-3.8283 -1.2183,-6.9089 1.6815,-10.2021 2.9395,-3.3381 2.3313,-5.0712 -1.0676,-8.4669 -2.0165,-2.0143 -4.1567,-3.9361 -6.0457,-6.0295 -2.7032,-2.9962 -4.7299,-6.4915 -1.9192,-10.7015 0.6979,-1.0453 1.3312,-2.4901 0.484,-3.5599 -4.0348,-5.0958 1.6439,-12.4766 -4.1023,-17.128 -0.189,-0.153 -0.1118,-0.6956 -0.081,-1.05 0.3934,-4.607 -0.9227,-9.3574 1.1488,-13.8232 0.8997,-1.9398 -0.2859,-2.147 -1.7474,-2.0927 -1.0782,0.0403 -2.1566,0.2045 -3.2319,0.1804 -4.481,-0.1008 -5.6191,-1.4058 -4.821,-5.9818 0.2725,-1.5623 0.1,-2.8057 -0.733,-4.0637 -0.7164,-1.0824 -1.5441,-2.6373 -0.7262,-3.5067 3.6656,-3.8956 3.2244,-7.2574 -0.2792,-11.0476 -0.9357,-1.0122 0.092,-3.5295 -1.89,-4.64 -3.0281,-1.6968 -1.5994,-3.9982 -1.2419,-6.5307 0.344,-2.4377 -4.5006,-3.759 -2.8353,-6.8645 1.9396,-3.6172 -0.2678,-4.7206 -2.7368,-6.0581 -1.4138,-0.7657 -2.6595,-1.9081 -4.1367,-2.4751 -2.4288,-0.9323 -4.0134,-2.2271 -3.9104,-5.0774 0.053,-1.4658 -0.1987,-3.3195 -2.3335,-2.4395 -4.6104,1.9004 -7.0289,-0.4693 -9.1984,-4.0373 -1.4933,-2.4557 -5.2577,-3.2632 -5.1331,-6.9509 -5.5266,-2.5853 -4.8348,-5.8996 -1.1368,-9.5858 0.5238,-0.5222 0.9702,-1.2597 0.6371,-1.9292 -0.4884,-0.9821 -1.4919,-0.7726 -2.3477,-0.5111 -0.8577,0.2623 -1.6663,0.6842 -2.5232,0.9497 -1.4424,0.4471 -3.0094,2.1566 -4.3788,0.4647 -1.4958,-1.848 0.015,-3.3506 1.391,-4.5601 2.2878,-2.0118 1.8842,-3.4388 -0.6526,-4.8891 -1.6487,-0.9424 -2.7474,-2.7754 -2.1744,-4.5865 1.4688,-4.6414 -1.2662,-4.1483 -4.2065,-3.9156 -5.0725,0.4016 -6.7847,-2.2499 -4.3759,-6.8244 0.8276,-1.5718 2.0715,-2.9272 3.1516,-4.3616 0.6486,-0.8611 1.3826,-1.6589 2.0173,-2.5297 1.4088,-1.9329 0.272,-3.3889 -1.0142,-4.7325 -1.4752,-1.541 -2.4807,-0.22 -3.6556,0.6105 -1.423,1.0059 -3.3556,4.0171 -4.6025,1.4493 -1.4169,-2.9173 -4.4304,-5.9873 -2.3855,-9.9661 0.7817,-1.5213 0.536,-3.1566 0.029,-4.7395 -1.0673,-3.3328 -0.9083,-6.7545 -0.6991,-10.1701 0.4784,-7.8143 1.1033,-8.4399 8.7572,-9.2007 1.1548,-0.1148 2.8461,0.424 3.0526,-1.3392 0.1521,-1.2999 -1.2479,-1.5141 -2.266,-1.8429 -3.0229,-0.9763 -4.5651,-2.3971 -1.6256,-5.2582 0.996,-0.9695 0.9225,-2.2351 0.7462,-3.5386 -0.6525,-4.824 -2.1462,-9.1077 -6.8259,-11.5586 -1.152,-0.6034 -2.1257,-1.5108 -1.8972,-2.9647 0.1705,-1.0858 1.1553,-1.4189 2.0732,-1.1841 4.9681,1.2713 3.3911,-1.7661 2.8267,-4.1916 -0.3654,-1.5706 -0.9126,-3.1486 -0.9591,-4.7354 -0.287,-9.8147 -1.3273,-19.5389 -0.068,-29.4697 1.8728,-14.7706 2.3817,-29.7032 3.9683,-44.5384 0.6487,-6.0655 0.8459,-11.681 5.6077,-16.1346 0.8853,-0.8279 2.1516,-2.3752 0.6544,-3.7401 -1.1427,-1.0416 -2.4039,-0.083 -3.4398,0.5692 -5.4661,3.4422 -11.756,5.3504 -16.8486,9.5437 -19.9539,16.4309 -37.2628,35.3206 -52.6508,56.0281 -6.6493,8.9481 -13.2694,17.9181 -19.957,26.8375 -1.8265,2.4359 -3.6071,4.984 -6.5476,6.2777 -8.5079,3.7435 -17.5083,6.2696 -25.5896,11.1393 -2.8232,1.7012 -6.2115,2.6312 -9.0411,4.6013 -1.7749,1.2357 -3.8569,2.2049 -6.0643,1.9764 -4.9335,-0.5111 -9.9131,-2.0465 -14.304,1.877 -0.4581,0.4092 -1.7743,0.0986 -2.5869,-0.1827 -1.4252,-0.4932 -2.3899,10e-4 -3.3417,0.9803 -3.6951,3.7999 -9.4528,0.9857 -13.3979,4.114 -0.2666,0.2115 -1.1384,-0.0248 -1.5203,-0.3214 -5.5443,-4.3058 -10.4878,-1.2592 -15.5634,1.1185 -5.0475,2.3647 -10.2025,4.4738 -15.9888,3.784 -1.5499,-0.1849 -2.7317,0.1921 -3.7308,1.5388 -0.6023,0.8115 -1.6063,1.5618 -2.5713,1.8288 -6.1899,1.712 -12.2642,5.0045 -18.9189,1.745 -1.2157,-0.5955 -2.0344,0.1031 -2.8282,0.8907 -3.6093,3.581 -7.1727,7.2698 -12.9871,4.3448 -0.4037,-0.2029 -1.1191,-0.0634 -1.5751,0.1555 -6.8916,3.3097 -12.2518,-0.6167 -16.4445,-4.7589 -13.1493,-12.9905 -27.639,-24.0139 -43.6552,-33.199 -9.9678,-5.7166 -19.1686,-12.9461 -29.5151,-17.7821 -12.7924,-5.979 -26.5753,-9.6933 -40.2485,-13.4062 -1.207,-0.3279 -2.48194,-0.5338 -3.72954,-0.5558 -2.0494,-0.0363 -3.4777,1.1843 -2.1985,3.0032 3.3728,4.7952 2.0454,10.2355 1.369,14.9466 -1.7347,12.0846 -3.639,24.1668 -5.6649,36.2145 -2.0023,11.909 -1.6785,23.7798 0.8358,35.343 3.9933,18.3645 10.12944,36.1839 15.91764,54.0643 1.1824,3.6523 0.1324,7.1357 -0.083,10.6675 -0.1421,2.3309 -2.8483,2.502 -4.4119,3.5638 -4.07284,2.7652 -6.09384,6.2437 -5.62934,11.3447 0.2908,3.1901 -0.2667,6.458 -0.4492,9.6907 -1.2598,22.3032 -3.4115,44.4982 -9.7568,66.0237 -4.1277,14.0027 -11.2236,26.841 -16.6506,40.3445 -4.1977,10.4448 -10.6777,19.529 -18.2266,27.8411 -3.125,3.441 -3.0594,3.7178 1.3193,5.8995 1.1696,0.5826 3.4575,0.176 3.2325,2.1231 -0.2096,1.812 -2.2366,2.1167 -3.838,2.3912 -1.9482,0.3339 -3.9388,0.9001 -5.8699,0.7674 -6.9124,-0.4753 -10.8521,4.1686 -14.6309,8.6159 -6.1559,7.2449 -11.1368,9.094 -20.1867,6.4899 -2.2755,-0.6547 -4.5973,-0.9276 -6.9366,-0.8525 -3.6597,0.1174 -4.2022,1.1717 -2.2932,4.1332 0.7986,1.2388 3.046,2.3007 1.3602,3.9866 -1.3884,1.3886 -3.4634,0.7338 -5.0276,-0.2026 -2.7502,-1.6464 -4.9139,-2.4623 -5.6625,1.9246 -0.2415,1.4142 -1.8747,1.3674 -3.1251,1.6076 -5.9899,1.1509 -11.9797,2.3106 -17.9431,3.5898 -15.2173,3.2646 -29.7031,9.3372 -45.2614,11.4042 -13.718,1.8225 -27.271,4.9541 -41.0974,5.9014 -7.2668,0.498 -13.6288,4.2938 -20.8167,4.8399 -0.9632,0.0732 -1.8915,0.9666 -2.7833,1.5596 -5.1076,3.3962 -10.4534,4.8974 -16.8002,4.1389 -6.8874,-0.8232 -14.0507,-1.0017 -19.3054,5.1868 -0.4974,0.5858 -1.6472,0.986 -2.43,0.8984 -3.77,-0.4214 -7.525,0.6366 -11.2994,-0.0582 -2.2997,-0.4234 -4.883,-0.8528 -6.8398,0.5797 -3.7621,2.7538 -7.499,2.4415 -11.7249,1.3509 -3.3848,-0.8733 -6.8001,-0.5123 -8.5042,3.6326 -1.9075,4.6395 -2.0397,4.5852 -6.3647,1.8226 -4.8361,-3.0889 -10.1003,-3.1185 -14.3544,0.2125 -1.6675,1.3057 -3.0897,1.6114 -4.8635,0.4974 -2.2268,-1.3986 -4.1805,-2.2061 -5.2557,1.4111 -0.4431,1.4899 -2.0186,1.2061 -3.2221,0.5418 -1.5742,-0.8689 -3.079,-1.8676 -4.6736,-2.6948 -3.0717,-1.5935 -5.8727,-2.1986 -7.1124,2.2353 -0.2986,1.0682 -0.9941,2.1475 -2.2079,2.0532 -3.4332,-0.2665 -7.1827,1.6871 -9.9259,0.8054 -4.0901,-1.3145 -7.5216,-1.9817 -11.8804,-1.1959 -2.172,0.3916 -4.127,-0.1295 -5.674,1.9788 -0.4697,0.6401 -1.5802,1.275 -2.3073,1.1851 -4.3507,-0.5371 -8.2977,1.9402 -12.6902,1.4265 -2.8162,-0.3293 -5.7011,0.3002 -8.4921,1.1934 -14.1957,4.5434 -28.7744,7.0599 -43.6372,7.9682 -1.9957,0.122 -4.1534,-0.162 -4.4167,2.6868 -0.384,4.1575 -2.5142,3.7299 -5.0762,1.9085 -2.5667,-1.8246 -5.537,-2.5764 -8.0631,-0.8372 -2.6753,1.8421 -4.8631,1.5302 -7.506,0.4205 -1.8098,-0.7599 -4.0479,-1.4233 -5.5609,0.3391 -3.3806,3.9382 -7.095,4.3668 -11.5208,1.9689 -1.4202,-0.7693 -3.3555,-1.3025 -3.5253,1.3671 -0.2111,3.3175 -2.5493,3.735 -4.9424,3.5721 -3.7185,-0.2531 -7.3871,-0.6763 -11.1024,0.1613 -1.2025,0.2712 -2.5521,-0.2043 -3.543,-1.0417 -3.9877,-3.3699 -7.3346,0.809 -11.0214,0.873 -1.7185,5.2232 -5.4126,3.2119 -8.8398,2.4981 -1.2003,-0.25 -2.5019,-0.067 -3.7535,-0.006 -2.2737,0.1109 -3.227,0.5859 -1.9116,3.2739 1.4484,2.9595 -0.0137,4.8182 -3.2999,4.6985 -1.762,-0.0643 -3.4949,-0.7687 -5.2539,-1.1194 -1.8869,-0.3761 -2.9283,-0.0703 -1.6865,2.1381 1.3325,2.37 0.7408,4.3044 -2.1248,3.5427 -3.7155,-0.9876 -7.4244,-0.8703 -11.1415,-1.2332 -2.3532,-0.2297 -4.8792,-2.2153 -6.4067,1.3346 -1.1103,2.5803 -5.1118,1.2437 -5.8737,4.1313 -1.1835,4.4854 -4.9151,4.7025 -7.6843,3.3569 -7.4428,-3.6166 -14.8518,-0.6478 -22.2015,-0.5933 -4.6563,0.0345 -9.1811,0.5348 -13.8589,-0.4919 -4.1094,-0.9019 -8.4155,-2.1783 -12.6396,0.0854 -10.6558,5.7106 -21.9999,3.0276 -33.0831,2.2783 -3.7921,-0.2565 -7.3884,-2.6865 -11.1968,-3.6263 -3.9174,-0.9668 -4.9102,0.0825 -4.2476,4.089 0.3907,2.3623 -0.7137,2.7616 -2.6021,2.9276 -4.181,0.3676 -7.8326,-0.3737 -10.5125,-4.0203 -2.3405,-3.1849 -4.8095,-6.2555 -6.6307,-9.8067 -1.3377,-2.6083 -2.9948,-4.9929 -6.5815,-4.5408 -1.8105,0.2282 -3.2141,-0.6911 -3.9682,-2.2493 -3.2917,-6.801 -6.5118,-13.7449 -7.693,-21.1977 -1.9644,-12.395 3.3177,-22.0445 12.9337,-29.57 4.3845,-3.4314 9.4988,-6.1957 13.0871,-10.3058 3.7513,-4.2967 7.7392,-7.8808 12.6422,-10.6534 2.0124,-1.1381 4.0329,-2.3846 5.5098,-4.2747 4.5449,-5.8162 10.2534,-10.0187 17.2578,-12.4194 0.8646,-0.2963 1.8129,-0.6696 1.8857,-1.6441 0.0204,-0.2735 -1.1215,-0.6812 -1.7637,-0.946 -1.0173,-0.4194 -2.1493,-0.8138 -1.9667,-2.1636 0.1648,-1.2178 1.2701,-1.6885 2.3102,-1.9927 2.2372,-0.6542 4.5039,-1.2068 6.7495,-1.8332 1.181,-0.3295 2.8512,-0.5936 2.4983,-2.1566 -0.2981,-1.3196 -1.8047,-0.5235 -2.7912,-0.4847 -2.6947,0.1058 -5.3922,0.4089 -8.0804,0.3357 -3.3234,-0.0905 -3.7034,-1.0701 -2.0258,-3.957 0.7108,-1.223 3.2708,-2.2923 1.4757,-3.9135 -3.6543,-3.3006 -3.3867,-6.7943 -1.4979,-10.7032 0.4136,-0.8558 0.5042,-1.7994 -0.5196,-2.3093 -1.0281,-0.5121 -1.6671,0.3261 -2.2838,0.9362 -1.7903,1.7708 -3.4431,3.6951 -5.3414,5.3378 -1.6907,1.4631 -3.8762,2.6097 -5.7751,0.6355 -2.0308,-2.1113 -1.182,-4.347 0.8751,-6.0723 1.9278,-1.6168 4.0549,-3.0032 5.9212,-4.6834 1.2389,-1.1155 4.3697,-1.565 3.4081,-3.3497 -0.9541,-1.7708 -3.076,0.5592 -4.6828,1.0052 -2.2417,0.6223 -4.7978,1.3507 -4.8637,-1.8752 -0.0562,-2.7444 -0.1796,-6.2399 1.9111,-8.1732 2.6836,-2.4814 2.5501,-5.6162 3.7429,-8.4351 1.9853,-4.6915 -0.2494,-5.2574 -3.6876,-6.3729 -4.7641,-1.5455 -4.7769,-2.8084 -1.2727,-6.6785 6.2688,-6.9233 12.1827,-14.1771 19.4569,-20.1313 0.7936,-0.6495 1.9587,-1.5979 1.3053,-2.657 -0.649,-1.0521 -2.048,-0.4811 -2.9612,-0.0311 -1.4362,0.7076 -2.7969,1.6083 -4.0852,2.5674 -1.879,1.3992 -3.9433,1.6873 -6.1414,1.2447 -1.6683,-0.3357 -3.0435,-1.2597 -3.726,-2.8373 -0.8307,-1.92 0.7398,-2.9902 1.84,-4.0878 1.141,-1.1382 2.5063,-2.0483 3.6961,-3.1425 0.6223,-0.5724 1.4903,-1.3672 0.0771,-2.0357 -5.0984,-2.412 -1.1379,-4.1846 0.5845,-5.6502 2.0339,-1.7308 4.547,-2.8854 6.7373,-4.4509 1.0729,-0.7668 2.8322,-1.8765 0.163,-2.9816 -3.5008,-1.4493 -1.8958,-3.2252 -0.2438,-4.8283 2.1918,-2.1266 4.5678,-4.0631 6.7719,-6.178 1.0103,-0.9695 2.4481,-2.628 0.4676,-3.463 -5.4488,-2.2971 -2.7759,-4.5046 -0.3346,-6.9945 0.9946,-1.0145 1.8876,-2.1824 2.5898,-3.4155 0.7761,-1.3626 1.9976,-3.0856 0.5522,-4.4189 -1.3448,-1.2405 -2.5788,0.4808 -3.7188,1.1708 -1.8107,1.096 -3.6944,3.2846 -5.7408,1.6386 -2.4807,-1.9952 -0.0362,-4.1812 0.7689,-6.23 0.7871,-2.0031 1.3529,-4.1096 2.3001,-6.0304 2.3732,-4.8117 2.0871,-9.4429 -0.899,-13.7873 -1.9864,-2.8897 -2.4526,-5.6771 -1.5282,-9.1305 0.9979,-3.7281 -0.2702,-4.7088 -3.8775,-3.7274 -0.6896,0.1874 -1.323,0.5756 -2.009,0.7829 -1.7166,0.5187 -3.6853,1.3746 -5.0101,-0.3361 -1.4587,-1.8839 -0.2384,-3.7678 0.8939,-5.4296 2.3375,-3.4302 4.9263,-6.5936 8.3151,-9.1217 5.3692,-4.0056 10.2072,-8.5672 13.1602,-14.7513 0.5903,-1.2362 2.0948,-2.5339 1.0389,-3.9197 -2.1457,-2.8158 -0.1135,-4.4909 1.1809,-6.6466 2.798,-4.6592 6.5128,-8.5867 9.7252,-12.9071 2.5611,-3.4443 2.1925,-6.8422 -0.4675,-8.3454 -5.312,-3.002 -5.3117,-3.3819 -1.9787,-8.3637 1.294,-1.934 4.1771,-3.642 2.6224,-6.4808 -1.5848,-2.894 -0.7813,-5.1235 0.8598,-7.4645 0.4911,-0.7003 1.3081,-1.5802 0.596,-2.3612 -0.778,-0.8534 -1.6417,0.1153 -2.3837,0.4882 -1.5635,0.7858 -3.0853,0.8203 -4.6628,0.0757 -1.7854,-0.843 -2.6738,-2.1948 -1.2499,-3.8112 6.7301,-7.641 10.1525,-17.3824 16.2721,-25.3904 3.3209,-4.3458 5.8112,-9.181 7.4539,-14.291 2.0518,-6.383 4.7464,-12.4044 7.8638,-18.301 1.0327,-1.9532 3.3321,-4.6362 1.1189,-6.3017 -2.5933,-1.9515 -4.2142,1.465 -6.0433,2.9269 -1.9147,1.5304 -3.0795,5.8253 -6.0421,3.5695 -2.4839,-1.8914 0.7486,-4.4497 1.8971,-6.4741 2.3104,-4.072 3.3699,-7.9159 -0.2464,-11.8557 -0.9495,-1.0345 -1.5526,-2.4233 -2.1717,-3.7178 -1.5411,-3.2227 -3.6333,-3.6093 -6.441,-1.5183 -1.7288,1.2874 -3.5223,2.5091 -5.3881,3.5843 -1.511,0.8709 -3.2829,2.158 -4.8761,0.4297 -1.3611,-1.4761 -0.1467,-3.02 0.6171,-4.4272 0.171,-0.3151 0.3922,-0.603 0.5932,-0.9016 6.3186,-9.3788 12.5641,-18.8317 20.0096,-27.3597 2.5757,-2.9501 4.1363,-6.8141 7.5845,-8.9405 5.0338,-3.1043 7.1282,-8.8907 11.6256,-12.4723 0.4493,-0.358 0.8205,-1.5336 0.5771,-1.9317 -2.8704,-4.6931 0.0893,-8.1912 2.2558,-11.8821 0.3381,-0.576 0.8694,-1.3866 0.0529,-1.9 -0.7129,-0.4481 -1.3233,0.2326 -1.8219,0.7071 -3.4136,3.249 -6.2472,6.9342 -8.4388,11.1217 -0.8288,1.5836 -1.7029,3.1858 -2.8235,4.562 -1.0032,1.232 -2.3672,2.4963 -4.1627,1.5051 -1.5058,-0.8311 -1.5858,-2.6188 -1.06,-3.8569 2.9848,-7.0289 2.3867,-15.3257 7.9859,-21.4856 2.0674,-2.2743 4.8532,-5.1958 0.7686,-8.5498 -1.1116,-0.9128 -0.5783,-2.7072 -0.2132,-4.131 0.2155,-0.8401 0.6779,-1.881 -0.2262,-2.4536 -0.8838,-0.56 -1.7705,0.2113 -2.4101,0.7582 -5.707,4.8789 -12.5066,8.5461 -16.7115,15.1064 -0.6631,1.0343 -1.5763,2.0515 -2.6154,2.672 -2.1759,1.2995 -4.1584,0.8409 -4.0626,-1.9717 0.1566,-4.5973 -0.7234,-9.722 2.9409,-13.3514 4.8839,-4.8374 6.89,-11.2611 10.282,-16.913 3.4613,-5.7671 4.2711,-12.0445 4.2133,-18.6301 -0.0384,-4.3672 -2.1746,-8.5411 -1.5954,-12.7677 1.0704,-7.811 2.3319,-15.6777 4.5217,-23.2291 1.9769,-6.817 1.0005,-13.1353 -0.694,-19.6067 -0.5018,-1.9166 -0.9503,-3.9185 -3.8532,-3.2672 -1.8884,0.4237 -2.6848,-1.0608 -2.6332,-2.5885 0.2923,-8.6337 -1.1351,-17.148199 -1.5715,-25.708399 -0.3251,-6.3776 -3.3192,-12.1272 -3.1383,-18.4833 0.0171,-0.5974 -0.7124,-1.2163 -1.0962,-1.8247 -2.3254,-3.6851 -2.7229,-3.6918 -4.932,-0.1771 -1.8611,2.9608 -2.6175,6.2645 -3.2324,9.6527 -0.6077,3.3476 -1.0591,6.7854 -2.7791,9.7962 -0.6465,1.1316 -1.2533,2.97 -3.1168,2.2881 -1.4671,-0.5369 -0.9491,-2.1272 -1.0212,-3.3245 -0.3678,-6.1016 -0.6504,-12.2617 -2.1411,-18.171 -0.957,-3.7936 -2.0755,-8.36 -7.9521,-7.4931 -1.3445,0.1982 -2.4269,-0.8724 -2.8905,-2.0871 -3.1134,-8.1571 -8.5552,-14.9279 -13.0786,-22.2468 -1.277,-2.0663 -1.3973,-5.6912 -5.3789,-2.8868 -0.9344,0.6582 -1.9168,-0.6901 -2.5497,-1.5232 -0.9746,-1.283 -1.7537,-2.7154 -2.7376,-3.9904 -1.0421,-1.3502 -2.4261,-2.2798 -4.2071,-1.6743 -1.8215,0.6193 -1.466,2.2919 -1.352,3.6739 0.3725,4.5174 -0.1534,8.9858 -0.6197,13.457 -0.2009,1.9257 -1.1168,3.5021 -3.057,4.0573 -2.267,0.649 -3.2805,-1.0803 -4.089,-2.6881 -2.0218,-4.0208 -5.0933,-6.7392 -9.1368,-8.751 -3.4441,-1.7133 -5.817,-4.7354 -7.326,-8.3582 -1.1741,-2.8191 -2.36,-5.6393 -3.7056,-8.3778 -0.5874,-1.1956 -1.0977,-3.164 -2.8322,-2.695 -1.8272,0.494 -1.1591,2.3185 -0.9243,3.7092 0.4483,2.6563 0.9417,5.3057 1.3589,7.9669 0.6054,3.8605 -0.6181,4.9169 -4.4469,4.0891 -2.7172,-0.5874 -4.1295,-2.6652 -5.7991,-4.5538 -3.4354,-3.8867 -6.1661,-8.4647 -10.6898,-11.3 -2.0408,-1.2791 -3.4401,-1.142 -3.0889,1.853 0.2302,1.9636 0.3708,3.9408 0.4692,5.9159 0.0744,1.4936 -0.1985,2.9504 -1.6921,3.694 -1.8182,0.905 -3.1891,-0.1705 -4.2228,-1.4331 -1.934,-2.3619 -3.6821,-4.8756 -5.5191,-7.3174 -1.083,-1.4399 -2.1043,-2.5041 -3.7182,-0.4045 -1.2899,1.6784 -2.8875,1.0121 -4.2766,-0.0522 -2.1398,-1.6394 -4.2511,-3.3168 -6.35,-5.0085 -5.6447,-4.5494004 -11.8064,-8.1886004 -18.6771,-10.55310039 -0.9874,-0.3398 -2.3474,-0.6347 -2.9155,0.4871 -0.6513,1.28629999 0.7321,1.84649999 1.5576,2.41229999 2.6964,1.8482 5.0051,4.1021 7.1017,6.582 0.8333,0.9856004 1.6132,2.2403004 0.7408,3.4175004 -1.1195,1.5106 -2.8069,0.9723 -3.7941,-0.0663 -5.2024,-5.4733004 -12.8418,-5.2378004 -19.054,-8.3122004 -1.237,-0.6123 -2.8154,-1.3471 -3.9369,0.1231 -0.9375,1.2289 -0.7168,2.8349 -0.0733,4.1186 0.5429,1.0831004 1.5647,1.9267004 2.3787,2.8726004 0.8063,0.9371 2.0554,1.871 1.1222,3.2257 -0.8679,1.26 -2.2652,0.7835 -3.4597,0.3504 -3.2246,-1.169 -6.5061,-2.1098 -9.9247,-2.4673 -0.8403,-0.0879 -1.9313,-0.2662 -2.2559,0.866 -0.3226,1.1254 0.7155,1.5421 1.4431,1.9624 2.4892,1.4376 5.0511,2.7511 7.522,4.2185 0.9821,0.5832 1.5153,1.6066 1.0304,2.7764 -0.4887,1.179 -1.5809,1.4567 -2.6989,1.192 -1.3935,-0.3299 -2.7567,-0.8084 -4.1077,-1.2934 -4.7364,-1.7003 -9.4619,-3.4312 -14.1917,-5.1498 -2.7225,-0.9893 -5.0195,-0.9068 -7.372,1.3638 -3.5735,3.4492 -7.3681,6.6856 -13.0566,6.0379 -2.5968,-0.2956 -4.0514,1.3239 -3.4037,4.1189 0.6989,3.0164 -0.8786,3.8621 -3.4857,3.9474 -1.213,0.0395 -2.8121,-0.1265 -3.0371,1.5142 -0.2064,1.5044 1.3904,1.893 2.3656,2.5999 0.4335,0.3143 0.9561,0.5024 1.4095,0.7929 1.1559,0.7399 2.9155,1.1377 2.356,3.0664 -0.4699,1.6198 -2.013,1.8797 -3.4428,2.1658 -2.1062,0.4213 -4.6824,0.2313 -6.2229,1.4015 -3.9305,2.9853 -8.4014,3.9255 -13.0055,4.766 -1.7959,0.3279 -3.666,0.5948 -3.7935,3.0202 -0.113,2.1467 -0.3965,3.9635 2.5158,5.0837 3.0742,1.1823 2.9724,3.1436 0.2107,5.0636 -1.1628,0.8084 -2.5569,1.2936 -3.8667,1.8791 -3.7797,1.6899 -7.533,3.4176 -10.7982,6.0324 -1.1336,0.9079 -2.5116,1.758 -2.0367,3.4611 1.174,4.2105 -1.9608,5.3177 -4.7036,6.6185 -1.613,0.7649 -3.5073,0.9784 -5.047505,1.8446 -2.0078,1.129 -2.9045,2.5137 -0.3958,4.4542 3.725105,2.8813 3.817705,4.9562 0.7764,8.2986 -0.9653,1.061 -2.1015,1.9648 -3.1379,2.963 -0.503,0.4845 -1.1596,1.0915 -0.7359,1.787 0.4649,0.763199 1.3211,0.388399 1.9378,0.0647 1.5471,-0.8119 3.172305,-1.2855 4.429205,0.217699 1.4901,1.7824 -0.2768,2.9899 -1.2347,4.1323 -1.697605,2.0245 -1.426505,2.8776 1.246,3.4673 4.1922,0.9249 8.5614,1.5353 12.1741,4.1384 2.9135,2.0991 6.2101,2.5994 9.6557,2.9467 9.6705,0.9745 18.6764,3.687 25.1649,11.4873 4.0372,4.8534 8.2212,9.4814 13.1332,13.4766 2.3813,1.9369 3.5836,4.4202 1.828,7.6097 -1.3893,2.524 -0.5993,4.7719 1.2409,6.9001 1.5167,1.7541 3.7127,3.511 3.8183,5.7653 0.2449,5.2274 2.3923,9.6838 4.4498,14.269 0.8343,1.8596 0.5452,3.8147 -1.9566,3.9984 -2.7369,0.2009 -2.8714,1.4445 -2.106,3.5632 0.7918,2.192 1.3698,4.4618 2.1767,6.6478 0.9833,2.6637 1.3018,5.1844 -0.4731,7.6995 -0.5968,0.8456 -1.1272,1.9781 -1.1163,2.9733 0.0659,6.0294 -2.9527,10.5028 -7.0409,14.4582 -0.8484,0.8208 -1.2283,1.5172 -0.9075,2.7879 3.0761,12.1812 1.0294,24.2445 -0.9749,36.3005 -0.3013,1.8122 -0.9406,3.5776 -2.2634,4.8206 -5.4335,5.1057 -8.893,11.1528 -9.6398,18.6812 -0.1586,1.5982 -1.2917,3.041 -2.9137,1.5383 -4.1674,-3.8612 -3.2211,0.1357 -3.338,2.1182 -0.1834,3.1109 -0.0932,6.8075 -3.6391,7.5975 -2.9068,0.6476 -6.4805,0.5567 -8.5307,-2.9135 -1.2138,-2.0546 -2.2903,-1.4124 -2.649,0.597 -0.4775,2.6741 -1.3838,4.0576 -4.2938,2.361 -3.7989,-2.2147 -3.8561,-2.1463 -3.8889,2.2677 -0.0201,2.6989 -0.1556,5.4134 0.0753,8.0938 0.4286,4.9742 -0.6917,9.5964 -2.4983,14.1672 -0.7092,1.7943 -1.3666,3.356 -3.5997,3.3709 -3.1105,0.0208 -3.8814,2.0627 -4.0508,4.6405 -0.1534,2.3337 -0.287,4.669 -0.4662,7.0009 -0.4407,5.7365 -0.8853,11.4667 -0.8408,17.2338 0.0159,2.0508 -0.5883,5.5048 -3.1497,4.1913 -3.94,-2.0207 -3.286,0.6927 -3.6917,2.4938 -2.202505,9.7798 -5.962905,19.2891 -5.117505,29.6097 0.1176,1.4356 -0.2536,2.9542 -2.0867,3.2978 -1.6412,0.3075 -2.704,-0.6677 -3.6643,-1.8048 -0.7157,-0.8474 -0.9928,-1.863 -1.316,-2.9063 -0.5322,-1.7182 0.8748,-4.9808 -1.6844,-4.8663 -2.1851,0.0978 -0.7602,3.3029 -1.2317,5.0682 -1.1603,4.3437 0.9383,9.5414 -1.8787,13.144 -3.649,4.6665 -2.9128,9.3665 -2.1498,14.3118 0.357,2.3137 1.0392,4.5508 0.2579,6.906 -0.5891,1.7758 -1.2039,3.5152 -3.4696,3.5242 -2.227,0.009 -3.1083,-1.7024 -3.5969,-3.4474 -0.379,-1.3533 -0.2947,-2.8448 -0.3555,-4.2773 -0.2234,-5.2664 1.3821,-10.3226 1.7965,-15.5147 0.0763,-0.9563 0.6614,-2.3759 -0.7444,-2.7008 -1.2248,-0.283 -1.8296,1.0276 -2.2235,1.9634 -0.4785,1.137 -0.8393,2.4013 -0.8923,3.6262 -0.2372,5.4898 -2.1118,10.5576 -3.9657,15.6123 -0.7563,2.0622 -1.3454,4.0634 -1.2761,6.2739 0.1936,6.184 -1.3284,12.1707 -2.714,18.0821 -2.8076,11.9776 -4.3612,24.0007 -3.5126,36.3033 0.1854,2.6868 0.218,5.3904 0.1826,8.0843 -0.0292,2.2249 -0.7823,4.262 -2.3704,5.8673 -1.3267,1.3409 -3.084,1.8981 -3.9463,-0.1623 -1.7263,-4.1251 -5.0629,-7.4843 -5.6575,-12.1357 -0.2702,-2.1136 -0.745,-5.3877 -2.8132,-5.0018 -1.7137,0.3198 0.2939,3.3265 0.5071,5.1355 0.4165,3.5332 2.4795,7.7516 -0.7015,10.2062 -3.7713,2.9099 -3.1982,6.261 -3.3433,9.955 -0.1549,3.9435 -0.7607,7.8709 -1.2115,11.8005 -0.1653,1.4406 -0.3533,3.1423 -1.7621,3.7638 -5.9074,2.6059 -4.1522,7.116 -2.9628,11.4312 1.6702,6.0592 3.5467,12.0615 5.201,18.1248 0.4353,1.595 1.5971,3.929 -0.798,4.6472 -2.0873,0.626 -2.8556,-1.7197 -3.6718,-3.2552 -0.4985,-0.9377 -0.6396,-2.0577 -1.043,-3.0546 -1.414,-3.4947 -2.8702,-6.9722 -4.315,-10.4544 -0.3517,-0.8478 -0.8737,-1.9209 -1.8412,-1.5223 -0.8947,0.3688 -0.598,1.5629 -0.3547,2.4163 0.9858,3.4575 2.0312,6.8982 3.0082,10.3581 0.5674,2.0093 2.1628,4.6584 -0.0512,5.911 -2.5112,1.4207 -3.3745,-1.7012 -4.6701,-3.248 -0.4359,-0.5204 -0.7348,-1.5399 -1.5577,-1.1614 -0.8275,0.3806 -0.2984,1.2441 -0.0669,1.8807 1.0988,3.0202 0.9943,5.4823 -1.0938,8.4736 -1.7994,2.5776 -2.1481,5.942 -6.4752,5.2919 -0.5085,-0.0765 -1.28,1.1308 -1.8231,1.8263 -3.3862,4.3367 -5.4984,9.0993 -6.1235,14.7063 -1.0359,9.2936 -2.471,18.5593 -7.1692,26.9153 -1.6999,3.0233 -1.9354,6.226 -0.4923,9.3384 1.5142,3.2653 1.4988,6.6288 1.2188,10.0451 -0.1634,1.9939 -0.3767,3.9463 0.7099,5.7706 1.9572,3.2861 1.5562,5.7598 -2.3576,7.1655 -1.1415,0.41 -3.0403,1.1933 -2.4789,2.36 1.601,3.3278 -0.78279997,5.8257 -1.13049997,8.7065 -1.69920003,14.08 1.51269997,27.3531 7.11209997,40.1533 3.0228,6.9102 5.6011,13.9755 7.812,21.176 0.7336,2.3892 0.0883,5.1707 1.5651,7.3256 4.9826,7.2706 6.3123,16.0115 9.7636,23.8978 1.6094,3.6778 0.8928,4.7295 -2.9778,4.3317 -3.46,-0.3556 -2.8611,1.3417 -1.9458,3.0162 4.0939,7.4904 5.1909,15.989 7.679,23.9566 5.9311,18.9924 17.2822,34.4113 29.3799,49.5349 2.1694,2.712 1.3202,4.2454 -1.4368,5.2491 -3.0342,1.1046 -6.1098,2.1907 -9.4533,1.8618 -1.6302,-0.1604 -2.9904,0.118 -2.5169,2.2844 0.3602,1.6484 -0.7064,2.59 -1.5348,3.7903 -5.3002,7.6799 -4.5805,9.5286 3.055,14.3517 6.6525,4.2022 13.988,6.4513 21.2317,9.0554 7.8475,2.8214 15.1376,6.5557 21.4873,12.0485 3.3137,2.8666 3.4454,3.9928 0.0807,6.6473 -3.5681,2.8149 -7.4292,5.1577 -12.0753,5.5903 -5.327,0.4961 -9.3631,3.4069 -13.2661,6.66 -0.5445,0.4538 -1.3628,0.9292 -0.9994,1.6703 0.3321,0.6772 1.2967,0.6395 1.961,0.4057 2.7709,-0.9756 5.6275,-1.1204 8.5158,-1.0255 1.3931,0.0457 3.298,-0.4432 3.7452,1.2823 0.4943,1.9075 -1.3535,2.7448 -2.7651,3.4853 -2.8633,1.5017 -5.7847,2.8926 -8.6779,4.3376 -1.1169,0.5579 -2.2525,1.0886 -3.3212,1.7289 -0.5962,0.3573 -1.2337,0.8882 -0.9028,1.7277 0.3074,0.7795 1.0774,1.0126 1.7817,0.7634 6.6047,-2.3364 13.6355,-0.5317 20.3064,-2.1274 1.8049,-0.4317 3.5671,-0.7408 5.0823,0.6837 3.2552,3.0604 7.3232,3.572 11.510005,3.7244 1.6158,0.0587 3.7209,-0.3083 4.5572,1.0861 2.0677,3.4473 5.3123,4.224 8.7879,5.2292 2.8422,0.822 3.2228,3.1841 1.3705,5.5563 -0.7654,0.9802 -1.8231,1.727 -2.7029,2.624 -2.2874,2.332 -6.1172,4.4056 -1.3795,7.9969 0.3057,0.2316 0.4671,1.1442 0.2647,1.4816 -2.996,4.9962 1.3338,4.4495 3.9026,5.1936 3.413,0.9886 6.4091,3.3015 10.2518,2.9942 1.3513,-0.1082 2.4794,0.9483 2.4908,2.3622 0.037,4.5928 2.017,4.0231 5.0089,2.2479 1.8859,-1.1187 4.8441,-1.7565 4.9827,1.3855 0.2146,4.8649 0.7525,9.6379 -1.7881,14.6432 -3.0827,6.0734 -5.7456,12.7734 -4.6583,20.069 1.3814,9.2695 2.3528,18.5676 1.7319,27.96093 -0.1627,2.4608 0.245,4.6315 2.448,6.1771 3.2512,2.2813 3.0819,5.1147 0.8251,7.8798 -2.5244,3.0928 -4.2075,6.6797 -6.3491,9.9927 -2.2556,3.4895 -2.1223,4.1166 2.1999,4.3595 6.1059,0.3431 11.753,1.4519 17.1399,4.6915 2.961,1.7808 3.4745,3.3591 1.9023,5.9543 -1.3183,2.1764 -3.3968,3.6676 -5.3641,5.2523 -1.9533,1.5735 -3.8064,3.2827 -5.5991,5.0387 -0.7096,0.6951 -1.7724,2.0875 -0.2003,2.5447 3.1134,0.9055 5.5337,3.3389 8.9125,3.6143 6.4783,0.528 7.291,2.1837 3.6271,7.4735 -1.381,1.9938 -2.5949,3.6135 0.4358,5.127 1.843,0.9204 1.4125,2.2411 0.4126,3.5427 -1.0957,1.4264 -2.227,2.8253 -3.3292,4.2468 -0.4424,0.5707 -0.9265,1.252 -0.4564,1.9286 0.454,0.6532 1.3097,0.6118 1.9796,0.3533 2.512,-0.9694 4.9298,-2.2473 7.5063,-2.9692 3.5755,-1.0021 5.569,1.2201 4.5862,4.7805 -0.4508,1.6331 -1.5131,2.8076 -2.7145,3.9355 -2.3721,2.2269 -4.3669,4.7783 -6.0831,7.5386 -0.8224,1.3226 -1.2551,2.4482 1.1694,1.8887 1.3619,-0.3145 3.0699,-0.8597 3.6149,1.0881 0.4384,1.5669 -0.7764,2.6818 -1.8721,3.6262 -4.1112,3.5432 -7.1908,8.0342 -10.9751,11.875 -1.7072,1.7327 -3.5514,3.3976 0.9006,3.7465 2.4729,0.194 4.8193,1.6437 5.7218,3.6484 1.9237,4.2733 4.6687,3.0181 7.7868,2.1328 3.7523,-1.0654 6.0865,-4.4943 9.7643,-5.5667 2.6464,-0.7717 5.8969,-2.9905 7.8283,0.1781 1.8924,3.1047 -1.1873,5.4924 -3.3784,7.0687 -4.3349,3.1189 -4.7907,8.0227 -3.3009,11.5522 2.2389,5.3042 0.9563,8.4128 -2.9028,11.6377 -1.1779,0.9846 -2.5869,2.3162 -1.608,4.1548 0.8138,1.5284 2.4169,2.1853 4.074,2.2897 2.3274,0.1469 4.6705,0.025 7.0041,0.1039 0.8937,0.03 1.8254,0.2684 2.1444,1.2965 0.3108,1.0015 -0.2634,1.7491 -0.9521,2.3306 -0.6796,0.5737 -1.4764,1.0094 -2.2261,1.4993 -0.9778,0.639 -3.1106,0.4722 -2.7418,1.9664 0.4224,1.7114 2.4151,0.833 3.7185,0.838 1.0523,0 2.0963,-0.5112 3.1614,-0.6122 3.6647,-0.3469 7.4835,2.6234 7.1459,6.2415 -0.2536,2.7179 0.639,3.306 2.8788,3.9889 6.6064,2.0137 7.1412,4.0386 2.2832,8.4767 -2.0437,1.8671 -3.1886,3.3536 -0.6376,5.6467 2.4211,2.1764 1.4466,4.09 -0.7628,5.755 -1.0045,0.757 -2.0332,1.4877 -2.9869,2.3049 -1.2271,1.0518 -1.434,2.504 0.2972,2.7983 4.1844,0.7113 7.3537,3.448 11.0879,4.9587 4.6961,1.8997 6.7207,4.8787 4.9539,9.8979 -1.0303,2.927 -3.4982,5.4337 -0.0958,8.3394 0.306,0.2614 0.1904,1.6779 -0.1885,1.978 -3.9626,3.1372 -1.4349,4.8562 1.1183,7.1234 2.7242,2.4188 4.0933,5.8618 5.1495,9.3514 0.4888,1.615 0.4124,3.0944 -0.3089,4.6932 -0.6764,1.4993 -3.4446,2.6201 -1.9409,4.3333 0.9962,1.135 3.4189,0.1511 5.1743,-0.114 1.5941,-0.241 3.1358,-0.825 4.7294,-1.0726 5.2358,-0.814 6.3175,-0.058 7.8866,5.139 0.2509,0.8312 0.5464,1.837 1.1649,2.3367 2.7578,2.2277 2.0121,4.0745 -0.1646,6.2292 -1.6176,1.6014 -3.5421,3.4695 -2.0261,6.1134 4.0038,6.9822 3.6366,14.5269 2.9114,22.0862 -0.3758,3.9174 0.8669,6.6469 4.5869,8.1576 9.5076,3.8611 15.4077,10.9065 18.1805,20.6937 0.8149,2.8767 2.7292,4.3308 5.6378,5.1248 13.2322,3.6112 21.5561,14.5878 21.4075,28.1927 -0.0326,2.9846 0.53,5.4678 2.2435,8.0464 4.0586,6.1079 5.0393,13.3496 5.8132,20.389 0.4598,4.1829 0.938,8.1737 2.8652,11.9039 4.1332,8.0002 6.2843,16.7717 9.0705,25.2157 3.9367,11.9312 7.0887,24.0288 13.3293,35.1222 3.8721,6.8832 6.4035,14.5214 8.0863,22.2201 1.8171,8.3127 6.3326,15.1498 10.3931,22.2854 1.2574,2.21 3.2635,3.9467 5.5159,5.0581 8.5175,4.204 16.2525,9.7563 24.9693,13.7007 7.5724,3.4265 12.6049,10.5947 15.3513,17.942 4.6168,12.3505 8.8542,24.3416 21.9422,30.3503 1.4351,0.6588 2.6647,1.8322 3.8792,2.8933 5.2838,4.6155 12.678,5.7791 17.6984,10.8442 0.4276,0.4313 1.3543,0.4119 2.0619,0.5151 12.7447,1.8602 25.4424,4.307 38.4395,2.9745 1.6024,-0.1641 3.3216,0.1807 4.7765,-0.6047 4.5164,-2.4387 9.3493,-2.2833 14.2242,-1.9795 1.8048,0.1125 3.6253,0.1488 5.3311,-0.5338 8.278,-3.3129 16.9756,-4.1689 25.7715,-4.484 4.8362,-0.1732 9.7422,0.078 13.7153,-3.6226 0.8184,-0.7622 2.3447,-1.0934 3.5347,-1.0717 5.59,0.1013 10.2912,-3.6183 15.4704,-4.0012 8.4998,-0.6285 9.7971,-6.4733 11.4053,-12.6631 0.6089,-2.3442 0.5756,-4.6008 -0.2298,-6.8843 -3.5698,-10.1206 -7.8145,-20.0054 -6.8203,-31.2404 0.4598,-5.1963 -4.9656,-13.0126 -9.1706,-13.4882 -5.8595,-0.6624 -11.3376,-3.468 -17.4432,-2.6875 -5.0212,0.6417 -9.144,-1.5552 -12.4077,-5.2432 -8.784,-9.9259 -17.8444,-19.5906 -25.283,-30.6796 -2.78,-4.144 -3.2329,-9.4309 -6.441,-12.8788 -5.0456,-5.423 -6.9697,-11.9369 -8.7853,-18.6724 -2.0913,-7.7592 -5.9547,-15.0313 -6.0064,-23.356 -0.058,-9.3173 2.4443,-11.443 11.6275,-9.3733 0.3502,0.079 0.6866,0.2476 1.0388,0.2827 6.0607,0.6042 12.4772,-0.337 17.604,4.2903 0.5042,0.455 1.7525,0.1785 2.6422,0.097 4.1141,-0.3774 6.5681,0.9454 6.5383,5.5891 -0.0203,3.1631 1.6484,5.9193 4.7412,6.4681 6.7345,1.1949 10.1377,5.9495 12.6853,11.3539 4.6274,9.8168 10.4535,18.7418 17.1192,27.313 5.5217,7.1002 12.2907,12.3209 19.5726,17.3121 11.9096,8.1628 24.7878,11.5588 39.1612,10.2065 6.7487,-0.6349 13.4539,-0.9065 20.229,-1.9674 7.86,-1.2311 15.7034,-3.9573 23.8927,-3.0099 0.8666,0.1003 1.8907,0.047 2.6509,-0.325 8.7407,-4.2761 18.6169,-4.4563 27.6825,-7.9739 8.1566,-3.1652 16.5204,-5.8142 24.5555,-9.4174 5.3318,-2.3909 7.6116,-6.3427 7.7173,-11.7701 0.2916,-14.9753 -3.2837,-28.4452 -15.991,-37.8918 -3.3821,-2.5139 -6.3879,-5.7394 -11.1556,-6.1136 -9.6392,-0.7566 -19.2206,-2.3375 -28.9387,-1.8345 -3.2696,0.1692 -5.9185,-1.3705 -8.4386,-3.1281 -2.0613,-1.4375 -1.9614,-3.6948 -1.7679,-5.8812 0.1917,-2.1672 1.5828,-3.0637 3.5979,-3.309 2.4468,-0.2975 4.2495,-1.8525 6.1071,-3.2664 1.3096,-0.9971 2.9792,-2.455 4.3206,-1.7448 4.002,2.119 7.6041,0.07 11.3874,-0.3276 2.1133,-0.2219 4.7457,-0.5762 6.3533,0.4135 4.8195,2.9667 7.4868,0.4484 10.4081,-2.8794 2.9399,-3.3484 11.4275,-3.6874 14.1182,-0.3127 2.1762,2.7291 4.6943,2.9653 7.6204,2.8474 5.0341,-0.203 10.1954,-0.7384 15.0215,0.6293 3.3845,0.9595 4.7275,0.5088 6.0391,-2.7471 2.6915,-6.6814 5.4126,-6.9281 9.6603,-1.295 0.6968,0.9242 0.9669,2.6581 2.6417,1.9951 1.1933,-0.4725 0.7388,-1.8655 0.8815,-2.89 0.6913,-4.9747 4.2522,-6.7632 8.7822,-4.3555 2.1235,1.1285 3.4882,3.0573 4.9081,4.9268 0.7935,1.0448 0.8322,3.1903 2.7549,2.7252 1.5465,-0.3739 0.9338,-2.1193 1.1356,-3.2853 0.437,-2.5244 1.7444,-4.4727 4.2084,-5.1075 2.6292,-0.6775 3.978,0.9196 5.5358,3.0775 1.5831,2.1925 4.4095,3.5044 6.7393,5.1337 1.1624,0.8127 1.7484,0.021 2.5826,-0.8604 4.4903,-4.7456 9.7051,-4.0719 12.9999,1.5787 0.7235,1.2411 1.31,2.5614 2,3.8232 0.623,1.1395 1.3782,2.3259 2.9071,1.6012 1.6087,-0.7627 1.7664,-2.2354 1.0304,-3.6736 -0.9032,-1.7648 -1.8861,-3.4434 -2.0146,-5.5115 -0.1964,-3.1611 0.8179,-5.7023 3.6166,-7.2784 2.5565,-1.4397 4.7918,-0.478 6.9767,1.1257 1.9001,1.3949 3.6734,2.8198 4.9592,4.8613 0.7272,1.1547 1.6171,2.6962 3.3179,2.2281 1.6631,-0.4574 2.5529,-1.9244 2.9235,-3.5873 0.194,-0.8702 0.2452,-1.7808 0.2814,-2.6761 0.145,-3.5762 1.541,-6.3694 5.1922,-7.3163 3.714,-0.963 6.1747,1.0662 8.0513,4.0173 0.9667,1.5203 1.8542,3.1091 3.5568,3.9564 1.4153,0.7046 2.8666,2.3105 4.4112,1.3759 1.7877,-1.0817 0.3151,-2.9127 0.1346,-4.4165 -0.2483,-2.0696 -1.5154,-3.5988 -2.7312,-5.1726 -1.6809,-2.176 -2.9215,-4.5586 -2.8226,-7.4109 0.0571,-1.644 0.2449,-3.3259 1.9861,-4.1219 1.7098,-0.7816 3.1933,-0.015 4.4442,1.0922 3.123,2.7645 5.6316,6.0651 7.7635,9.6189 0.9646,1.6079 2.1543,2.8503 3.7194,3.7944 1.5446,0.9316 2.902,0.9752 2.9815,-1.2268 0.1518,-4.2062 5.125,-4.5457 6.2674,-8.0574 0.3166,-0.9734 2.3729,-0.9658 3.4954,-0.3728 2.5546,1.3496 4.922,1.7214 7.4869,-0.013 0.6078,-0.4108 2.108,-0.4319 2.5692,0.016 4.2894,4.16 8.4145,4.8094 12.5388,-0.151 10.2534,-0.3624 14.1833,-2.7856 16.7801,9.9349 0.0717,0.3521 0.1556,0.7039 0.2673,1.0452 0.3978,1.2152 0.9019,2.6573 2.212,2.7968 1.5183,0.1616 1.9705,-1.4403 2.3057,-2.5931 1.6489,-5.6721 5.5085,-7.3884 11.0513,-6.6333 2.1197,0.2888 4.3121,0.034 6.4713,0.046 1.4739,0.01 2.6677,-0.2411 3.7655,-1.5405 3.6906,-4.3687 8.41,-4.3716 12.7492,-0.6943 3.7653,3.1909 7.5821,5.9066 12.8783,7.1334 4.6563,1.0786 8.6663,5.0969 12.8439,7.9869 1.0212,0.7064 0.9991,2.2498 1.0886,3.5175 0.345,4.895 0.3591,9.6816 -2.6581,13.9935 -0.9772,1.3967 -2.5853,3.105 -1.6325,4.8893 1.8391,3.4441 1.6401,8.1774 6.4152,9.8909 1.9075,0.6842 3.0717,2.7267 2.8271,4.8463 -0.4446,3.8536 1.302,6.606 3.9695,8.947 2.6606,2.335 3.6202,5.2148 3.4102,8.6675 -0.1638,2.6914 -0.1137,5.3951 -0.1934,8.0925 -0.064,2.1674 0.6613,3.842 2.6976,4.8527 3.6016,1.7867 5.2043,4.7467 5.179,8.7369 -0.01,1.4272 0.1591,3.1989 2.0579,3.2571 3.905,0.1201 4.7943,3.3079 6.36,5.8284 1.9969,3.2152 2.2415,7.8641 4.6353,10.1069 5.70764,5.3475 7.34404,12.7549 10.20354,19.1533 2.9031,6.495 6.3314,12.913 9.8417,18.7889 6.5715,11.0007 11.5906,23.2078 21.0704,32.373 0.6217,0.6011 1.0848,1.4799 1.3522,2.3156 2.6167,8.1733 8.5227,13.7323 14.6686,19.2816 6.2261,5.6216 11.9683,11.7881 15.894,19.353 3.9171,7.5486 10.0819,12.1899 17.9741,15.2024 4.7634,1.8182 9.7524,2.4988 14.5884,3.4751 5.5099,1.1128 11.6689,1.7437 17.0479,-0.3809 4.8398,-1.9117 9.5128,-1.4384 14.2953,-1.2766 2.4965,0.084 4.507,2.1245 7.1272,2.302 9.726,0.658 19.3345,0.708 28.5311,-3.3499 2.6815,-1.1835 5.415,-2.2771 7.032,-4.7517 2.3944,-3.6644 5.6848,-4.5422 9.7559,-4.1617 6.363,0.5946 12.6377,-0.7159 18.4807,-2.7552 7.9125,-2.7611 15.0674,-18.0222 12.6156,-26.2778 -2.0687,-6.9661 -3.2671,-14.318 -7.5646,-20.4965 -0.606,-0.8715 -0.9982,-1.9211 -1.3468,-2.9374 -2.2577,-6.5798 -0.5564,-10.519 6.1062,-12.3363 9.6074,-2.6206 14.4355,-9.4591 17.3046,-18.2473 0.5029,-1.5406 0.4741,-3.391 2.1593,-4.1028 5.561,-2.349 6.0497,-6.8112 5.6709,-12.0406 -0.2644,-3.6503 -0.8479,-6.9854 -2.5687,-10.3068 -2.1316,-4.1136 -4.4769,-8.1564 -5.4373,-12.8627 -0.5963,-2.9237 -3.0496,-5.0641 -5.8295,-5.9371 -5.8475,-1.8364 -11.6892,-5.3838 -18.0153,-1.2461 -0.5535,0.3623 -1.3903,0.3547 -2.1031,0.3999 -4.1099,0.2605 -8.1362,0.4047 -12.0643,2.2571 -3.0288,1.4286 -9.1693,-1.8959 -9.4352,-5.1699 -0.467,-5.7545 -2.4086,-11.246 -2.7229,-16.9419 -0.3763,-6.8145 -0.089,-13.6655 -0.089,-20.5009 -0.1378,5e-4 -0.2758,7e-4 -0.4137,0 0,-6.1171 0.2196,-12.244 -0.06,-18.3483 -0.2948,-6.427 2.6001,-12.2076 3.2527,-18.4863 0.4878,-4.6923 1.2408,-9.5852 2.5558,-14.179 2.9434,-10.2842 6.9481,-20.2727 8.7673,-30.8679 0.5811,-3.3843 2.9114,-6.1794 2.7814,-9.7902 -0.2085,-5.7838 1.5385,-11.5299 3.225,-16.712 2.3308,-7.1614 3.267,-14.6361 5.7898,-21.7639 1.4817,-4.1859 3.6427,-8.6982 3.3123,-13.4382 -0.4604,-6.6056 1.2327,-13.2174 3.2687,-18.9215 3.1913,-8.9402 4.0371,-18.6436 8.6469,-27.0225 3.306,-6.0085 1.7844,-12.9738 4.7007,-19.1997 2.2336,-4.7688 5.3276,-9.2644 6.4636,-14.6014 0.3076,-1.446 1.5365,-2.941 2.7502,-3.8948 2.0828,-1.6364 3.3274,-3.7213 4.384,-6.0273 3.1278,-6.8253 8.4396,-9.9594 15.9371,-9.4703 1.382,0.09 3.5602,0.5138 3.7603,-1.1364 0.5892,-4.8586 3.5815,-7.5636 7.3783,-9.926 1.0966,-0.6823 0.972,-2.224 1.0745,-3.4918 0.4799,-5.9463 3.2593,-10.5461 8.2546,-13.7845 1.5231,-0.9874 3.3125,-1.8964 3.8542,-3.6379 2.1857,-7.0251 7.3135,-7.993 13.5697,-7.0071 1.0527,0.166 2.1575,-0.031 3.2344,0.021 3.6168,0.1741 5.2765,-1.2672 4.9421,-5.1234 -0.3561,-4.1106 -0.6505,-8.3307 3.0637,-11.4728 1.0352,-0.8757 0.8739,-2.1436 0.5529,-3.4913 -1.9904,-8.3568 1.3186,-15.2825 8.9922,-19.2009 0.6038,-0.3085 1.286,-0.7799 1.5653,-1.3538 1.3218,-2.7164 3.6295,-3.2854 6.3134,-3.089 2.4624,0.1803 3.6371,-1.0602 3.9731,-3.37 0.5297,-3.6414 2.687,-5.8964 6.2245,-6.5498 2.9362,-0.5421 3.781,-2.2772 3.7386,-4.9458 -0.03,-1.8745 0.3986,-4.2582 2.3459,-4.3667 4.8342,-0.2693 7.3824,-2.6091 8.3829,-7.1315 0.097,-0.4402 0.6865,-1.0176 1.1273,-1.0989 6.8282,-1.2587 7.4733,-5.9644 8.3213,-11.946 0.6217,-4.3848 5.9276,-7.5187 5.4495,-13.3254 -0.1337,-1.6217 0.6927,-3.566 -0.01,-5.6981 -2.366,-7.2115 1.1577,-12.5347 8.6609,-13.5159 1.4236,-0.186 2.8721,-0.1722 4.3064,-0.2849 1.1454,-0.09 2.5994,-0.645 2.438,-1.6802 -0.96,-6.1594 8.1068,-6.004 7.4575,-12.0889 -0.1129,-1.0585 2.3562,-1.3041 3.8047,-1.2452 3.5922,0.1459 7.1812,0.3745 10.772,0.5549 5.0725,0.2549 5.4771,-0.3329 3.2112,-4.8115 -0.483,-0.95463 -1.3879,-1.87403 -0.6196,-2.92153 0.7059,-0.9623 1.9312,-0.7687 3.0099,-0.6816 2.8829,0.2324 4.9347,1.9576 6.967,3.78783 0.8687,0.7823 2.0382,2.478 3.0313,1.4619 1.3816,-1.4135 -0.5361,-2.4248 -1.4762,-3.36343 -0.6304,-0.6295 -1.4657,-1.0499 -2.1219,-1.6581 -1.457,-1.3507 -3.3113,-2.8395 -2.4982,-4.9819 0.9681,-2.5503 3.5571,-1.9498 5.6519,-1.8047 8.4302,0.5834 8.7323,0.1719 5.1285,-7.4525 -0.3074,-0.6505 -0.7538,-1.2595 -0.9365,-1.941 -2.5034,-9.3366 -3.3213,-21.7111 7.1088,-27.3176 0.9316,-0.5009 2.077,-0.9708 2.1903,-2.1987 0.4658,-5.0522 3.8718,-7.3832 8.1255,-8.9772 1.157,-0.4334 1.9397,-1.2985 1.3416,-2.4659 -2.3718,-4.6296 0.2794,-6.9709 3.8341,-9.0914 2.9677,-1.7703 4.5322,-3.5438 1.2587,-6.9476 -3.3202,-3.4525 -2.6079,-4.9118 2.2921,-6.3625 1.3499,-0.3995 2.7039,-0.6453 1.8094,-2.3414 -2.4255,-4.6005 0.04,-5.6595 3.9894,-5.9698 1.0277,-0.0808 2.2284,-0.5796 2.3851,-1.8459 0.1746,-1.4104 -1.15,-1.6677 -2.0872,-2.0428 -1.3313,-0.5327 -2.782,-0.7786 -4.0902,-1.3546 -1.2281,-0.541 -2.0635,-1.5497 -1.5388,-3.0168 0.4346,-1.2148 1.5891,-1.4276 2.6776,-1.3119 1.2385,0.1317 2.4515,0.5038 3.6765,0.7667 4.9442,1.0612 9.9871,1.18 14.9996,1.2828 2.6163,0.0536 4.3917,-1.0611 1.8453,-3.8865 -1.1194,-1.2419 -2.2516,-2.9124 -1.3521,-4.3858 2.9425,-4.8193 2.7682,-11.1135 7.8081,-15.0187 3.7617,-2.9146 3.7467,-7.1409 2.385,-11.6984 -1.3652,-4.5689 -2.5004,-9.4114 1.2839,-13.8375 2.5979,-3.0387 3.8992,-7.2765 4.2084,-10.8624 0.6305,-7.3126 -3.6563,-13.8336 -5.6404,-20.7559 -0.3872,-1.3512 -1.891,-2.7049 -3.6786,-2.874 -3.5427,-0.3352 -5.967,-1.4619 -4.9261,-5.7606 0.349,-1.4415 -1.1653,-1.5354 -2.0182,-2.0783 -3.7833,-2.408 -3.8308,-2.8539 -0.552,-5.6677 1.6359,-1.4037 3.2357,-2.8851 5.5834,-3.0116 1.1216,-0.0605 2.3225,-0.4033 2.5818,-1.5845 1.318,-6.0056 6.5354,-7.4097 11.157,-9.0208 5.3986,-1.8817 9.7976,-5.2043 14.2719,-8.4436 3.311,-2.3972 3.484,-4.6292 1.2705,-7.2394 -5.5271,-6.5179 -7.0181,-14.2859 -5.9362,-22.3897 0.469,-3.5139 2.0179,-7.4449 6.9073,-7.7549 z" />
<path
   id="path4"
   d="m 41.827355,482.91117 c -0.0053,-0.5045 -0.0514,-1.1931 0.6491,-1.056 0.3449,0.0676 0.657,0.7422 0.8027,1.2 0.0714,0.2243 -0.2395,0.8087 -0.4316,0.8351 -0.6428,0.088 -0.8999,-0.4151 -1.0202,-0.9791 z" />
<path
   id="path6"
   d="m 373.36566,56.152871 c -0.0908,0.8517 -0.2582,1.7355 -1.2306,1.9376 -0.6097,0.1267 -0.8396,-0.4467 -0.6576,-0.9611 0.2185,-0.6178 0.4515,-1.3538 0.9248,-1.7211 0.4196,-0.3257 0.8806,0.1575 0.9634,0.7446 z" />
<path
   id="path8"
   d="m 878.95356,647.15837 c -0.299,0.1329 -0.5538,0.3252 -0.8135,0.3322 -0.158,0.004 -0.3235,-0.2773 -0.4858,-0.4306 0.1388,-0.0608 0.2884,-0.1887 0.4144,-0.1688 0.2861,0.0457 0.5606,0.1641 0.8849,0.2672 z" />
<path
   id="path10"
   d="m 886.74816,644.03947 c 0.1205,0.0542 0.2411,0.1085 0.3618,0.1627 -0.0695,0.1179 -0.1148,0.2928 -0.216,0.3354 -0.0828,0.0347 -0.2318,-0.0888 -0.3515,-0.1422 0.0685,-0.1187 0.137,-0.2373 0.2057,-0.3559 z" />
</svg>