<?xml version="1.0" encoding="UTF-8" standalone="no"?>
<svg
   xmlns:dc="http://purl.org/dc/elements/1.1/"
   xmlns:cc="http://creativecommons.org/ns#"
   xmlns:rdf="http://www.w3.org/1999/02/22-rdf-syntax-ns#"
   xmlns:svg="http://www.w3.org/2000/svg"
   xmlns="http://www.w3.org/2000/svg"
   height="1598.6356"
   width="1798.2821"
   xml:space="preserve"
   viewBox="0 0 1798.2822 1598.6356"
   y="0px"
   x="0px"
   id="Layer_1"
   version="1.1"><metadata
   id="metadata11"><rdf:RDF><cc:Work
       rdf:about=""><dc:format>image/svg+xml</dc:format><dc:type
         rdf:resource="http://purl.org/dc/dcmitype/StillImage" /></cc:Work></rdf:RDF></metadata><defs
   id="defs9" />
<g
   transform="translate(-32.11016,-29.91568)"
   id="g4">
	<path
   id="path2"
   d="m 776.319,1509.409 c 5.556,-9.762 9.048,-31.624 3.041,-37.205 -51.889,-48.21 -49.086,-66.232 -75.303,-93.682 -6.034,-6.318 -32.921,-37.458 -58.738,-41.369 -1.537,-0.233 -40.825,-16.786 -72.557,-62.369 -34.342,-49.332 -16.38,-24.126 -34.1,-42.257 -8.611,-8.81 -19.683,-10.422 -30.689,-11.224 -9.506,-0.693 -18.368,-3.506 -27.481,-5.494 -16.217,-3.538 -17.181,-0.38 -26.862,-4.269 -1.064,-0.427 -2.287,-1.114 -3.296,-0.927 -19.927,3.7 -43.091,-5.713 -53.269,10.289 -9.081,14.278 -17.231,29.392 -29.67,41.271 -5.79,5.53 -9.813,18.32 -38.6,28.806 -33.618,12.245 -26.606,-14.079 -57.367,-11.579 -19.839,1.612 -30.632,-7.431 -41.287,-22.099 -3.959,-5.451 -8.656,-10.384 -11.821,-16.438 -6.643,-12.707 -11.048,-0.146 -21.478,-20.133 -6.918,-13.257 -7.426,-16.598 -25.895,-13.751 -21.701,3.345 -33.487,-6.133 -43.774,-25.95 -0.519,-1 -22.786,-39.891 -21.51,-57.889 0.163,-2.298 0.401,-5.412 -2.464,-7.058 -23.703,-13.617 -28.964,-43.738 -51.22,-63.48 -3.471,-3.079 -4.56,-7.467 -6.872,-11.125 -5.014,-7.934 -20.608,-21.385 -8.485,-26.77 12.835,-5.701 26.269,-6.252 39.745,-4.105 12.218,1.947 24.444,1.528 36.684,2.008 14.04,0.551 12.582,-6.74 20.713,-20.493 10.392,-17.577 -32.671,-49.175 -40.029,-111.241 -1.75,-14.76 -10.631,-32.745 6.79,-39.061 14.424,-5.229 41.617,3.26 56.337,5.813 104.539,18.132 131.841,53.317 176.522,66.927 30.213,9.204 65.968,1.454 88.256,-21.561 29.928,-30.906 69.18,-45.976 81.509,-45.773 3.945,0.065 6.852,-2.819 10.572,-3.688 9.02,-2.107 18.06,-3.716 27.329,-3.896 1.478,-0.029 2.823,-0.043 4.087,-1.127 99.681,-85.455 21.358,-17.737 90.505,-74.278 16.54,-13.525 43.871,-28.5 54.405,-37.974 16.7,-15.02 43.797,-20.065 63.55,-30.97 126.494,-69.834 280.052,-90.654 428.927,-46.503 54.093,16.042 100.857,47.226 153.921,64.509 64.854,21.123 123.395,60.546 175.647,104.81 11.022,9.337 34.203,39.692 46.854,42.113 61.975,11.858 129.956,-84.634 36.053,-174.438 -58.444,-55.892 -198.681,-101.195 -272.424,-246.047 -48.467,-95.204 -49.783,-206.603 -49.518,-313.433 0.055,-22.023 0.321,-44.903 9.909,-64.729 9.589,-19.827 31.404,-35.582 52.9,-30.787 70.535,15.733 22.27,162.804 54.077,265.535 42.226,136.384 198.849,198.044 299.315,269.831 263.653,188.388 117.749,445.041 -109.862,525.212 -6.733,2.371 -9.957,7.594 -12.874,13.432 -39.416,78.885 -22.835,44.928 -64.631,91.594 -24.245,27.069 -31.902,20.972 -158.519,130.052 -4.115,3.545 -5.98,8.98 -10.374,12.334 -1.029,0.785 -0.172,2.221 -0.089,3.364 1.226,16.979 3.966,18.883 -0.199,37.711 -2.001,9.045 -2.907,18.425 -8.855,26.456 -7.168,9.678 -34.064,28.945 -40.236,32.532 -35.194,20.455 -56.289,24.211 -91.244,55.572 -18.325,16.441 -20.592,10.158 -38.574,38.897 -6.006,9.6 -12.326,19.229 -14.678,30.673 -0.221,1.075 -0.912,2.351 -1.785,2.949 -7.967,5.456 -14.546,13.025 -24.254,15.86 -2.526,0.738 -4.993,1.833 -7.313,3.087 -8.225,4.444 -7.061,-1.392 -24.119,-1.035 -18.88,0.396 -23.917,-9.665 -86.956,-0.519 -44.207,6.414 -50.842,15.323 -91.711,17.697 -33.585,1.951 -64.668,17.962 -69.626,21.084 -10.686,6.729 -22.235,5.652 -33.419,4.863 -6.35,-0.448 -12.561,-3.749 -16.958,-10.585 -17.26,-26.839 -20.725,-31.161 -20.637,-42.695 0.105,-13.92 -2.566,-36.211 13.974,-65.275 z m 327.895,-256.306 c -0.645,-6.852 0.051,-11.808 -0.584,-16.822 -6.889,-54.334 -6.702,-110.631 -36.741,-130.099 -27.175,-17.612 -34.569,-14.729 -43.616,-17.483 -15.798,-4.808 -22.078,-0.136 -27.984,-0.945 -37.821,-5.181 -111.207,27.751 -127.467,38.352 -5.93,3.866 -5.976,4.392 -3.533,11.475 1.352,3.921 3.091,7.888 2.14,12.027 -0.942,4.099 0.008,8.174 -0.417,11.993 -0.41,3.68 3.057,4.911 2.671,7.803 -1.289,9.653 -0.265,19.486 -1.076,28.968 -0.086,1 -5.112,52.133 -4.213,66.246 7.961,124.973 74.689,205.177 80.301,207.039 6.805,2.258 22.522,-6.911 29.255,-8.739 40.953,-11.115 61.698,-13.208 77.731,-22.214 41.31,-23.205 59.215,-110.025 59.019,-117.56 -0.221,-8.482 -0.925,-16.95 -1.16,-25.432 -0.434,-15.608 -4.627,-30.842 -4.326,-44.609 z" />
</g>
</svg>