<?xml version="1.0" encoding="UTF-8" standalone="no"?>
<svg
   xmlns:dc="http://purl.org/dc/elements/1.1/"
   xmlns:cc="http://creativecommons.org/ns#"
   xmlns:rdf="http://www.w3.org/1999/02/22-rdf-syntax-ns#"
   xmlns:svg="http://www.w3.org/2000/svg"
   xmlns="http://www.w3.org/2000/svg"
   xml:space="preserve"
   enable-background="new 0 0 1000 792"
   viewBox="0 0 767.617 679.82507"
   height="679.82507"
   width="767.617"
   y="0px"
   x="0px"
   id="Layer_1"
   version="1.0"><metadata
   id="metadata17"><rdf:RDF><cc:Work
       rdf:about=""><dc:format>image/svg+xml</dc:format><dc:type
         rdf:resource="http://purl.org/dc/dcmitype/StillImage" /></cc:Work></rdf:RDF></metadata><defs
   id="defs15" />
<g
   transform="translate(-115.93,-56.074)"
   id="g8">
	<polygon
   id="polygon2"
   points="679.931,657.209 679.943,657.205 679.938,657.209 " />
	<path
   id="path4"
   d="m 879.858,466.996 c -15.04,-2.806 -34.849,-11.602 -51.904,-23.713 -29.343,-20.841 -41.267,-52.99 -52.321,-86.356 -3.6,-10.857 -7.424,-21.611 -12.899,-31.648 -6.874,-12.604 -15.809,-24.566 -27.661,-32.582 -14.138,-9.555 -30.918,-12.036 -46.998,-16.261 -9.327,-2.451 -18.821,-4.11 -28.231,-6.176 -23.627,-5.187 -48.811,-4.34 -73.493,-5.587 -25.497,-1.312 -51.223,-0.61 -76.685,-2.012 -6.521,-0.38 -11.909,-0.919 -17.327,-3.755 -5.219,-2.73 -9.133,-7.359 -14.019,-10.592 -5.74,-3.797 -12.257,-3.83 -18.551,-6.114 -6.269,-2.274 -14.073,-5.215 -18.855,-10.191 -2.237,-2.327 -4.613,-5.684 -6.775,-8.308 -4.213,-5.071 -9.033,-11.035 -13.522,-15.53 -9.36,-9.349 -18.448,-19.352 -28.389,-28.884 -7.65,-7.338 -14.93,-15.029 -21.142,-23.6 -2.301,-3.167 -4.686,-7.456 -7.313,-11.648 -1.927,-3.068 -5.215,-5.584 -6.264,-9.155 -1.092,-3.72 -0.581,-8.175 -1.256,-12.049 -1.525,-8.751 -4.665,-17.084 -7.774,-25.371 -2.573,-6.857 -6.053,-12.994 -8.787,-19.735 -1.386,-3.388 -2.271,-6.95 -3.363,-10.506 -1.095,-3.551 -2.414,-7.114 -4.756,-10.385 l -0.548,-0.764 -0.912,0.131 c -2.138,0.35 -3.845,1.864 -5.561,3.786 -2.544,2.914 -5.015,7.024 -7.195,10.91 -2.167,3.874 -4.05,7.551 -5.193,9.35 -2.933,4.622 -6.581,9.264 -9.917,14.193 -7.824,-3.76 -16.032,-6.212 -24.859,-6.396 -4.261,-8.608 -10.804,-18.706 -18.525,-24.586 -1.243,-0.942 -2.407,-1.501 -3.652,-1.512 -0.698,-0.005 -1.385,0.208 -1.938,0.571 -0.975,0.644 -1.537,1.59 -1.968,2.58 -0.636,1.498 -0.992,3.245 -1.33,4.979 -0.33,1.725 -0.631,3.437 -1.013,4.694 -1.382,4.647 -4.688,9.387 -6.309,14.612 -1.539,0.249 -3.058,0.507 -4.542,0.802 -14.884,3.068 -29.313,6.188 -42.947,14.394 -3.477,2.102 -5.886,4.824 -7.751,7.795 -1.87,2.976 -3.231,6.193 -4.71,9.442 -3.062,6.617 -6.672,9.852 -13.041,12.607 -13.316,5.606 -26.062,9.223 -40.046,12.727 -4.653,1.188 -7.911,2.158 -10.237,4.576 -1.144,1.205 -1.94,2.731 -2.453,4.561 -0.518,1.838 -0.786,3.998 -0.922,6.667 -0.049,0.994 -0.074,1.982 -0.074,2.966 0.002,7.829 1.52,15.3 3.615,22.234 2.205,7.177 5.259,14.718 9.838,20.957 4.566,6.234 10.743,11.179 19,12.86 2.045,0.4 4.041,0.576 5.841,0.958 1.53,0.322 2.889,0.793 4.102,1.584 -1.194,2.826 -3.274,5.019 -5.736,7.208 -2.547,2.276 -5.451,4.518 -7.748,7.6 -4.492,6.093 -8.189,12.984 -8.687,20.981 -0.079,1.308 -0.158,2.889 -0.158,4.571 0.006,3.023 0.233,6.357 1.279,9.163 0.528,1.4 1.282,2.694 2.407,3.669 1.12,0.978 2.622,1.556 4.302,1.546 1.101,0 2.278,-0.226 3.559,-0.68 3.51,-1.296 5.732,-4.397 7.943,-7.198 1.756,-2.277 3.493,-4.325 5.446,-5.529 0.129,0.515 0.234,1.062 0.409,1.504 0.949,2.434 2.429,4.038 4.212,4.89 1.773,0.86 3.662,1.09 5.771,1.416 3.588,0.547 7.326,0.63 11.043,0.631 1.788,0 3.569,-0.021 5.327,-0.021 2.976,0 5.881,0.058 8.615,0.354 7.386,0.789 14.918,1.613 20.891,4.87 6.312,3.403 11.145,7.482 18.546,9.548 6.911,1.908 13.613,7.139 19.784,13.391 6.09,6.159 11.654,13.247 16.602,18.952 4.491,13.374 7.675,24.793 8.439,40.163 0.23,4.786 0.292,9.64 0.291,14.519 10e-4,5.173 -0.067,10.375 -0.067,15.552 0,7.478 0.141,14.907 0.836,22.14 3.005,31.155 13.278,60.925 20.905,90.497 5.477,21.021 10.375,42.764 16.554,64.201 l -0.409,0.109 c 0.917,-0.229 4.771,32.231 5.169,35.438 0.952,7.663 0.975,14.538 -0.864,22.039 -2.181,8.901 -5.725,17.382 -9.931,25.455 -2.404,4.614 -7.542,8.876 -12.218,13.808 -2.333,2.479 -4.549,5.151 -6.201,8.23 -1.651,3.075 -2.721,6.572 -2.718,10.557 -10e-4,3.198 0.684,6.69 2.221,10.531 l 0.192,0.479 0.427,0.268 c 5.888,3.724 15.353,5.905 24.666,5.925 8.324,-0.02 16.528,-1.747 21.819,-6.317 2.655,-2.341 4.399,-5.94 5.846,-10 2.156,-6.089 3.584,-13.334 5.313,-19.074 0.639,-2.138 1.31,-4.956 2.683,-6.752 1.316,-1.714 2.935,-1.647 4.236,-3.031 3.201,-3.429 4.129,-13.077 4.936,-17.489 1.262,-6.895 1.784,-13.935 1.783,-20.943 -0.002,-12.933 -1.792,-25.968 -4.185,-38.726 -0.022,-27.774 1.513,-55.525 2.319,-83.293 8.513,3.991 16.765,7.685 25.808,10.504 18.103,5.594 36.865,8.905 56.487,9.675 l 0.727,0.029 c 0.163,13.074 4.059,24.874 4.643,37.371 0.076,1.578 0.109,3.171 0.109,4.77 0.002,8.202 -0.863,16.629 -0.867,25.146 0,2.943 0.106,5.893 0.388,8.854 1.132,11.784 2.044,24.653 2.044,37.457 0,13.827 -1.069,27.582 -4.051,39.793 -1.456,5.982 -2.818,11.828 -4.532,17.505 -0.666,2.157 -1.986,3.892 -3.735,5.48 -1.75,1.585 -3.915,2.979 -6.094,4.404 -4.362,2.891 -9.051,5.76 -12.009,11.015 -1.625,2.894 -3.197,7.399 -3.214,11.742 0,2.39 0.496,4.801 1.979,6.721 3.932,5.06 10.31,7.396 16.888,8.586 6.59,1.179 13.499,1.179 18.678,1.179 h 0.209 c 6.617,0.012 11.621,-1.608 15.853,-4.495 4.236,-2.881 7.683,-8.937 11.591,-13.737 4.075,-5.009 3.058,-9.162 3.851,-15.425 0.79,-6.273 0.211,-12.719 0.775,-18.443 1.277,-12.881 5.127,-25.9 5.127,-39.266 -0.002,-6.771 -0.784,-12.941 -1.15,-19.252 -0.058,-0.978 -0.085,-1.938 -0.085,-2.888 -0.002,-5.416 0.846,-10.485 1.168,-16.172 0.715,-12.945 1.275,-25.563 3.176,-37.635 1.865,-11.832 3.505,-23.657 5.758,-35.085 1.201,-6.073 1.574,-12.358 1.574,-18.649 0,-6.085 -0.349,-12.161 -0.655,-18.075 4.884,-1.89 10.456,-3.117 15.6,-5.275 5.123,-2.153 9.678,-4.707 14.661,-6.803 10.017,-4.195 19.842,-8.774 29.51,-13.607 10.441,-5.254 20.308,-9.724 30.44,-15.021 1.243,-0.657 2.502,-1.293 3.786,-1.967 0.896,-0.455 1.78,-0.867 2.67,-1.309 l 5.294,0.197 -1.486,0.458 c 4.363,15.031 9.601,29.459 19.486,42.411 8.413,11.08 18.794,21.955 29.13,31.611 9.921,9.247 19.929,17.991 27.685,29.023 4.313,6.132 6.208,14.415 6.203,22.802 0.002,7.027 -1.322,14.107 -3.542,19.973 -2.388,6.421 -6.278,13.834 -10.362,19.428 -1.08,1.462 -2.23,2.858 -3.472,3.95 -1.245,1.094 -2.568,1.879 -4.075,2.228 -1.163,0.284 -2.288,0.351 -3.459,0.351 -0.863,0 -1.751,-0.038 -2.678,-0.038 -1.9,-0.002 -4.017,0.172 -6.204,1.318 -2.852,1.475 -5.622,3.888 -7.965,6.619 -2.337,2.74 -4.229,5.78 -5.2,8.647 -0.634,1.874 -0.947,3.54 -0.947,5.051 -0.01,1.867 0.51,3.518 1.445,4.801 1.411,1.935 3.533,2.991 5.831,3.72 2.313,0.723 4.886,1.126 7.426,1.523 4.283,0.668 10.469,1.659 16.249,1.659 3.348,0 6.567,-0.324 9.297,-1.315 3.075,-1.129 5.725,-3.766 8.079,-6.696 2.344,-2.938 4.345,-6.222 5.798,-8.757 7.046,-12.499 13.279,-26.035 20.121,-38.35 6.481,-11.61 15.763,-23.73 20.271,-37.08 0.729,-2.158 1.062,-4.312 1.062,-6.425 -0.018,-6.996 -3.554,-13.38 -7.871,-19.14 -4.334,-5.757 -9.547,-10.954 -13.225,-15.388 -7.714,-9.303 -10.283,-19.82 -12.043,-32.173 -0.784,-5.49 -1.723,-11.972 -1.719,-18.201 -0.009,-7.081 1.229,-13.729 4.961,-18.286 4.109,4.489 7.045,9.976 9.951,16.861 4.367,10.289 9.762,19.271 14.915,28.87 5.521,10.241 12.012,20.809 20.86,28.746 7.357,6.598 15.787,12.489 22.004,20.451 1.837,2.344 3.503,5.162 5.298,7.647 l 0.89,-0.682 -0.324,1.677 0.357,0.073 c 0.447,0.063 1.196,0.475 2.001,1.247 1.221,1.148 2.539,2.975 3.705,4.789 1.175,1.821 2.198,3.61 3.019,4.833 2.941,4.295 5.484,8.51 7.604,13.31 4.732,10.602 7.837,20.509 8.419,32.515 0.524,11.862 3.194,23.224 3.186,34.991 0,1.188 -0.028,2.38 -0.085,3.57 -0.17,3.154 -0.402,5.821 -1.102,8.195 -0.707,2.379 -1.841,4.501 -3.967,6.728 -1.907,1.967 -4.031,3.813 -5.93,5.978 -1.896,2.157 -3.566,4.672 -4.389,7.898 -0.51,1.987 -0.858,4.372 -0.858,6.816 0,2.207 0.282,4.47 1.045,6.53 0.757,2.056 2.046,3.938 4.029,5.132 4.54,2.697 11.21,4.03 15.865,5.065 3.17,0.688 6.585,0.942 10.011,0.942 3.085,0 6.18,-0.206 9.091,-0.498 1.883,-0.194 3.45,-0.517 4.817,-1.047 2.052,-0.781 3.604,-2.122 4.709,-3.874 1.117,-1.754 1.87,-3.862 2.709,-6.478 1.305,-4.116 1.796,-8.424 1.796,-12.751 -0.007,-8.555 -1.895,-17.233 -3.39,-24.844 -2.374,-11.962 -3.845,-23.656 -3.845,-36.426 0,-12.973 -0.125,-25.991 -0.778,-39.188 -0.287,-6.318 -2.814,-11.283 -6.073,-15.521 -3.255,-4.246 -7.231,-7.859 -10.688,-11.706 l -0.357,-0.409 0.506,-0.417 -0.148,-0.187 c -2.797,-3.373 -4.859,-8.93 -7.808,-13.375 -3.247,-4.915 -6.548,-9.528 -8.911,-14.459 -4.932,-10.287 -6.624,-23.347 -8.764,-34.749 -1.353,-7.001 -2.22,-14.845 -4.848,-22.091 -2.296,-6.353 -3.898,-12.367 -6.756,-18.479 -4.7,-10.063 -3.389,-24.094 -4.367,-35.061 0.447,5.011 10.107,14.285 13.288,18.001 4.847,5.66 10.245,10.497 16.469,14.489 18.253,11.711 38.952,20.358 60.667,21.144 3.775,0.138 7.436,0.19 11.063,-0.965 1.305,-0.42 2.604,-1.299 3.288,-2.255 -1.21,-0.307 -2.49,-0.532 -3.689,-0.756 z" />
	<polygon
   id="polygon6"
   points="147.541,278.576 147.581,278.562 147.543,278.574 " />
</g>
<path
   id="path10"
   d="m 93.127,87.943 c -0.897,-7.771 4.852,-15.8 12.298,-14.996 6.932,0.75 15.634,8.319 20.748,10.674 -11.482,1.514 -22.963,3.004 -34.447,4.504" />
</svg>