<?xml version="1.0" encoding="UTF-8" standalone="no"?>
<svg
   xmlns:dc="http://purl.org/dc/elements/1.1/"
   xmlns:cc="http://creativecommons.org/ns#"
   xmlns:rdf="http://www.w3.org/1999/02/22-rdf-syntax-ns#"
   xmlns:svg="http://www.w3.org/2000/svg"
   xmlns="http://www.w3.org/2000/svg"
   height="773.94543"
   width="349.68744"
   version="1.1"
   viewBox="0 0 349.68744 773.94543"
   id="svg2">
  <defs
     id="defs8" />
  <g
     transform="translate(-209.37038,-179.49524)"
     id="layer4">
    <path
       d="m 356.6,952.7 c -0.44044,-0.44044 -6.8768,-0.95568 -14.303,-1.145 -13.256,-0.3379 -13.594,-0.42229 -18.536,-4.6368 -2.7688,-2.361 -6.8096,-5.6465 -8.9794,-7.3013 l -3.9453,-3.0086 0.87805,-23.582 0.87804,-23.582 -3.6369,-3.7961 c -2.8973,-3.0242 -4.7254,-3.7961 -8.99,-3.7961 -4.6196,0 -5.7499,0.57904 -8.2488,4.2258 -4.2316,6.1756 -9.603,9.1687 -21.005,11.705 -10.821,2.4067 -17.826,1.5804 -21.215,-2.5022 -1.058,-1.2748 -3.9424,-1.9133 -8.6442,-1.9133 h -7.0564 l 0.92154,-7.3567 c 2.0423,-16.303 2.9594,-32.755 2.0044,-35.955 -0.5561,-1.8633 -2.8257,-7.1302 -5.0435,-11.704 -3.6927,-7.6157 -3.9645,-9.0306 -3.2261,-16.795 0.61554,-6.4729 0.32525,-9.4094 -1.2269,-12.411 -1.1183,-2.1625 -2.0332,-5.7837 -2.0332,-8.0471 0,-2.4811 -2.5043,-8.8022 -6.3066,-15.918 -9.5226,-17.822 -10.464,-22.034 -8.9141,-39.88 0.71315,-8.2114 0.96754,-16.241 0.56533,-17.844 -0.56482,-2.2504 1.6365,-6.137 9.6694,-17.072 l 10.401,-14.158 4.3058,-20.736 c 2.3682,-11.405 4.8922,-22.059 5.609,-23.675 0.71677,-1.6164 1.3032,-4.5692 1.3032,-6.5618 0,-2.7767 0.85158,-3.9756 3.6461,-5.1331 4.5735,-1.8944 12.288,-9.9216 19.189,-19.966 5.0697,-7.3793 5.3115,-8.1676 5.297,-17.272 -0.008,-5.2471 -0.76493,-12.419 -1.6813,-15.937 -1.3357,-5.1287 -1.3631,-8.6804 -0.138,-17.912 2.9751,-22.419 10.844,-38.572 29.501,-60.563 7.4133,-8.7377 8.064,-10.019 9.4221,-18.552 0.80241,-5.0412 6.1142,-26.438 11.804,-47.549 9.7682,-36.242 10.349,-39.132 10.412,-51.817 0.0652,-13.106 -0.0721,-13.761 -5.6297,-26.842 -4.7039,-11.072 -7.135,-14.937 -13.951,-22.179 -8.1332,-8.6422 -17.889,-14.95 -23.121,-14.95 -3.6618,0 -19.103,-11.612 -19.136,-14.39 -0.0262,-2.2423 -12.599,-20.165 -20.869,-29.75 -9.377,-10.868 -11.638,-19.965 -8.4248,-33.905 0.72985,-3.1666 1.256,-8.2263 1.1692,-11.244 -0.10987,-3.8195 0.66112,-6.5274 2.5377,-8.9131 2.3567,-2.996 2.453,-3.6041 0.76646,-4.8374 -1.7118,-1.2517 -1.7161,-2.121 -0.038,-7.7195 3.0702,-10.242 4.293,-11.223 12.935,-10.377 4.0809,0.39977 16.344,1.5942 27.251,2.6543 10.907,1.0601 21.846,2.2645 24.309,2.6764 5.852,0.97885 8.4318,-0.65979 6.5561,-4.1644 -1.5762,-2.9451 -0.31678,-4.4829 4.9587,-6.0545 4.6795,-1.3941 6.3972,-3.1376 6.3972,-6.4935 0,-2.8147 0.34827,-2.9404 6.2195,-2.245 5.7728,0.6837 6.5768,0.41624 11.195,-3.7242 8.5533,-7.6685 11.644,-8.6534 26.982,-8.5974 18.092,0.066 32.435,3.1942 47.801,10.426 25.105,11.814 42.147,25.544 54.588,43.978 2.8784,4.2652 8.3084,10.112 12.067,12.992 14.048,10.766 28.584,24.228 29.453,27.277 0.49445,1.7343 1.8361,12.653 2.9815,24.264 2.081,21.095 4.8233,35.887 9.409,50.751 2.8237,9.1528 1.8383,11.602 -3.5345,8.7861 -6.2665,-3.2845 -11.728,-10.317 -14.054,-18.097 l -2.2525,-7.5348 -6.945,0.0372 c -10.726,0.0576 -11.423,0.6172 -11.423,9.1694 0,7.4842 6.7896,31.73 16.116,57.549 4.2371,11.73 17.236,38.583 22.188,45.834 2.1054,3.0831 2.6228,5.8679 2.6296,14.154 0.006,7.9532 0.84505,12.79 3.662,21.124 2.0095,5.9448 4.3232,14.654 5.1416,19.354 0.81843,4.6997 3.2341,12.648 5.3683,17.663 19.06,44.789 21.427,73.677 7.9177,96.592 -4.7647,8.0819 -5.4789,10.449 -7.3329,24.307 -3.7212,27.814 -9.7642,61.242 -12.953,71.648 -5.1611,16.846 -9.6218,50.802 -9.496,72.288 0.0598,10.203 -0.2656,23.185 -0.72288,28.847 -0.5723,7.0865 -0.15773,14.663 1.3302,24.309 2.8002,18.154 3.2199,19.772 5.1303,19.772 1.0153,0 1.8976,2.8651 2.4192,7.8554 0.45157,4.3205 2.0238,11.894 3.4938,16.83 2.5409,8.5319 2.5712,9.2976 0.61482,15.518 -2.0528,6.5265 -2.0783,6.5487 -10.19,8.8717 -10.603,3.0366 -18.188,3.0655 -24.451,0.0933 -2.7882,-1.3231 -6.3991,-2.2314 -8.0242,-2.0184 -1.6251,0.21296 -6.096,-0.91477 -9.9352,-2.506 -6.252,-2.5913 -6.9912,-3.3026 -7.0831,-6.816 -0.0564,-2.1575 -1.064,-6.7874 -2.239,-10.289 -2.8391,-8.4598 -7.8986,-11.302 -23.551,-13.229 -11.292,-1.3903 -11.883,-1.6258 -16.262,-6.4805 -4.7363,-5.2506 -17.842,-14.499 -22.72,-16.034 -1.5524,-0.48841 -4.25,-2.5845 -5.9947,-4.6579 -4.2996,-5.1098 -12.563,-5.3984 -16.36,-0.57133 -2.1502,2.7335 -3.5722,3.2023 -9.7799,3.2244 -7.0858,0.0252 -7.448,0.20398 -14.777,7.2953 -5.8297,5.6406 -7.6547,8.3249 -8.1449,11.98 -1.0678,7.961 4.56,23.105 9.4071,25.313 2.7425,1.2496 2.9982,1.9733 2.2813,6.4566 -0.62237,3.8921 -0.22433,5.8756 1.7369,8.6553 5.1699,7.3273 9.5098,17.576 10.176,24.03 0.62769,6.0818 0.34998,7.0207 -3.3092,11.188 -2.1969,2.5021 -3.9944,5.9655 -3.9944,7.6963 0,2.5448 -0.94647,3.4306 -4.9463,4.629 -5.6408,1.69 -7.0931,1.8103 -8.2223,0.68115 v 4e-5 z"
       style="fill:#000000"
       id="path10970" />
  </g>
  <metadata
     id="metadata5">
    <rdf:RDF>
      <cc:Work>
        <dc:format>image/svg+xml</dc:format>
        <dc:type
           rdf:resource="http://purl.org/dc/dcmitype/StillImage" />
        <cc:license
           rdf:resource="http://creativecommons.org/licenses/publicdomain/" />
        <dc:publisher>
          <cc:Agent
             rdf:about="http://openclipart.org/">
            <dc:title>Openclipart</dc:title>
          </cc:Agent>
        </dc:publisher>
        <dc:title>Rottweiler outline</dc:title>
        <dc:date>2010-03-23T03:25:59</dc:date>
        <dc:description>A sitting Rottweiler dog, in silhouette. Based on a picture I took of our late Duque, a wonderfully sweet dog. Done in Inkscape.</dc:description>
        <dc:source>https://openclipart.org/detail/33325/rottweiler-outline-by-j_alves</dc:source>
        <dc:creator>
          <cc:Agent>
            <dc:title>J_Alves</dc:title>
          </cc:Agent>
        </dc:creator>
        <dc:subject>
          <rdf:Bag>
            <rdf:li>animal</rdf:li>
            <rdf:li>black</rdf:li>
            <rdf:li>dog</rdf:li>
            <rdf:li>rottweiler</rdf:li>
            <rdf:li>silhouette</rdf:li>
          </rdf:Bag>
        </dc:subject>
      </cc:Work>
      <cc:License
         rdf:about="http://creativecommons.org/licenses/publicdomain/">
        <cc:permits
           rdf:resource="http://creativecommons.org/ns#Reproduction" />
        <cc:permits
           rdf:resource="http://creativecommons.org/ns#Distribution" />
        <cc:permits
           rdf:resource="http://creativecommons.org/ns#DerivativeWorks" />
      </cc:License>
    </rdf:RDF>
  </metadata>
</svg>
