<?xml version="1.0" encoding="UTF-8" standalone="no"?>
<svg
   xmlns:dc="http://purl.org/dc/elements/1.1/"
   xmlns:cc="http://creativecommons.org/ns#"
   xmlns:rdf="http://www.w3.org/1999/02/22-rdf-syntax-ns#"
   xmlns:svg="http://www.w3.org/2000/svg"
   xmlns="http://www.w3.org/2000/svg"
   height="1600.2991"
   width="1987.59"
   xml:space="preserve"
   enable-background="new 0 0 2051.115 1651.178"
   viewBox="0 0 1987.59 1600.2991"
   y="0px"
   x="0px"
   id="Layer_1"
   version="1.1"><metadata
   id="metadata47"><rdf:RDF><cc:Work
       rdf:about=""><dc:format>image/svg+xml</dc:format><dc:type
         rdf:resource="http://purl.org/dc/dcmitype/StillImage" /></cc:Work></rdf:RDF></metadata><defs
   id="defs45" />
<g
   transform="translate(-31.76,-25.59)"
   id="g40">
	<path
   id="path2"
   d="m 1680.65,36.4 c 0.01,0.02 0.03,0.05 0.04,0.08 v -0.04 z" />
	<path
   id="path4"
   d="m 1675.91,34.21 c 1.72,0.31 3.62,0.67 4.74,2.19 -0.68,-1.3 -2.03,-1.99 -4.74,-2.19 z" />
	<path
   id="path6"
   d="m 1995.71,181.21 c 3.35,3.59 11.28,7.92 17.91,8.1 -5.98,-1.4 -11.49,-4.58 -15.64,-9.09 1.13,-0.23 2.36,-0.44 3.56,-0.66 -2.987,-0.876 -8.563,-1.116 -12.34,-7.41 2.66,0.29 5.31,0.52 8.01,0.58 -3.41,-1.32 -6.87,-2.73 -10.56,-2.83 -0.18,-0.2 -0.37,-0.4 -0.58,-0.63 4.38,-1.87 9.15,-3.18 12.9,-6.27 -0.46,0.03 -15.04,3.87 -15.05,3.87 -0.35,-0.12 -1.07,-0.38 -1.43,-0.5 -0.99,-1.22 -2.09,-2.3 -3.21,-3.35 9.53,-0.033 4.79,-0.361 11.37,-0.95 0.15,0.06 0.29,0.11 0.44,0.18 14.24,-2.71 20.04,-6.34 28.26,-17.58 -16.33,16.45 -33.33,16.29 -35.92,15.06 4.36,-1.6 8.12,-4.66 11.13,-8.22 -4.14,4.35 -10.38,5.89 -15.66,8.49 -1.72,-0.14 -3.38,-0.27 -5.05,-0.48 -0.75,-1.03 -1.55,-2.1 -1.03,-3.44 0.3,0.07 0.64,0.16 1.03,0.25 5.99,-2.33 12.44,-3.94 17.43,-8.27 -0.08,-0.03 -0.18,-0.06 -0.28,-0.08 0.11,0.02 0.2,0.04 0.28,0.07 0.36,-0.36 0.74,-0.73 1.15,-1.12 2.93,-0.98 5.93,-1.76 9.05,-1.91 -2.47,0.11 -4.94,0.14 -7.38,0.04 2.07,-3.3 3.74,-6.82 4.38,-10.71 -9.7,14.72 -7.3,7.29 -12.65,12.27 0.18,0.01 0.36,0 0.55,0 -1.41,0.26 -3.4,0.7 -6.54,1.65 0.35,-0.11 0.76,-0.25 1.37,-0.46 -2.48,-2.22 -3.85,-5.72 -7.09,-6.97 -0.01,-0.45 -0.04,-1.34 -0.05,-1.79 1.65,-1.1 3.94,-1.81 4.59,-3.92 -2.83,0.96 -5.72,1.86 -8.28,3.41 0.38,0.04 1.05,0.1 1.52,0.14 -1.58,-0.12 -3.61,-0.03 -5.93,0.33 2.8,-1.26 5.26,-3.17 8.03,-4.54 -2.19,0.42 -3.73,0.13 -5.03,0.08 3.92,-0.53 9.29,1.46 19.3,-6.56 1.81,-0.03 2.73,-2.26 2.93,-3.88 -6.095,2.278 -6.791,6.166 -21.27,6.59 2.36,-4.83 4.52,-9.84 5.46,-15.16 -1.52,5.57 -4.31,10.96 -8.7,14.79 -1.92,0.29 -3.87,0.13 -5.77,0.1 2.04,-3.21 7.19,-5.99 8.31,-16.05 -2.71,6.19 -9.52,14.99 -15.89,14.5 7.06,-3.83 13.19,-10.45 14.27,-18.67 -1.45,4.68 -5.24,9.34 -9.16,12.79 0.17,-0.26 0.51,-0.76 0.68,-1.01 0.06,-1.96 -1.17,-3.63 -1.91,-5.35 -0.54,0.86 -1.06,1.72 -1.53,2.6 5.86,-10.78 6.07,-9.73 5.88,-21.27 0.03,2.08 0.1,4.17 0.12,6.26 2.35,-3.31 0.77,-16.14 -9.05,-23.52 8.58,9.87 6.51,13.24 7.62,20 -1.4,9.69 -4.79,14.47 -8.42,17.4 -0.95,0.07 -1.88,0.12 -2.76,0.18 -2.32,-1.85 -3.65,-2.43 -4.8,-2.82 1.49,-1.25 2.84,-2.73 3.82,-4.43 2.797,-2.186 3.634,-5.978 4.03,-9.52 -0.83,0.98 -1.68,1.96 -2.5,2.92 -0.42,-3.62 0.76,-7.13 1.55,-10.62 -0.65,1.09 -1.42,2.12 -2.18,3.11 -1.19,-3.19 -2.21,-6.5 -4.17,-9.32 0.22,1.61 1.71,12.12 1.91,15.81 -0.17,0.67 -0.3,1.22 -0.57,1.9 -1.14,-4.66 -0.88,-9.54 -2.09,-14.19 -0.51,14.07 -1.86,20.29 -1.86,20.33 -0.53,0.7 -0.99,1.28 -1.43,1.79 -1.1,-0.33 -1.79,-1.05 -2.03,-2.2 -1.14,1.49 -2.33,2.94 -3.57,4.34 0.15,-1.07 0.35,-2.13 0.58,-3.19 -1.15,0.22 -2.36,0.48 -2.67,-0.97 -0.2,0.29 -0.38,0.55 -0.57,0.82 4.54,-6.71 7.42,-16.75 5.73,-26.04 0.91,6.96 -1.65,15.41 -5.54,21.46 0.2,-0.37 0.39,-0.74 0.57,-1.12 -0.48,-0.94 -0.92,-1.89 -1.33,-2.84 -1.03,1.49 -1.19,5.26 -3.68,4.16 -0.97,2.17 -1.74,4.41 -2.36,6.7 4.064,-14.964 9.745,-26.79 6.94,-43.08 2.07,13.25 -6.24,36.88 -9.82,41.25 -2.419,-20.06 4.147,-9.66 -3.3,-38.66 0.59,7.17 2.77,14.36 1.16,21.56 -0.8,-3.01 -1.48,-6.06 -2.5,-8.99 -0.04,0.32 -0.1,0.64 -0.15,0.96 0.16,-2.36 -0.47,-5.38 -4.71,-8.4 0.46,1.33 1,2.64 1.58,3.94 -0.43,-0.05 -1.27,-0.13 -1.7,-0.18 0.15,1.9 0.4,3.81 0.69,5.7 -2.35,-3.11 -2.54,-7.28 -4.86,-10.41 -0.15,2.26 0.49,4.53 0.15,6.77 -5.15,-7.89 -10.65,-11.96 -18.26,-15.93 11.07,7.37 16.32,16.67 18.22,22.95 0.38,0.94 0.51,2.22 1.67,2.61 -0.32,1.03 -0.51,2.09 -0.58,3.16 -0.92,-0.48 -1.8,-0.95 -2.66,-1.42 -1.27,-4.58 -3.42,-6.58 -4.8,-9.5 -0.33,-0.2 -1.01,-0.61 -1.34,-0.82 3.57,4.95 4.27,11.47 3.58,17.41 -3.79,-4.81 -4.7,-31.22 -20.09,-34.58 11.21,5.06 14.74,19.93 14.18,30.26 -2.34,-4.24 -4.33,-8.68 -7.32,-12.51 -0.06,0 -0.12,-0.01 -0.2,-0.02 0.07,0 0.13,0.01 0.19,0.01 -1.54,-2.97 -3.64,-5.6 -5.64,-8.26 -0.27,0.96 -0.5,1.91 -0.71,2.87 0,0 0.02,0.07 0.07,0.21 -0.68,-0.84 -1.67,-1.66 -3.26,-2.47 -0.18,1.74 0.63,3.14 2.05,4.1 0.41,2.91 -1.39,5.39 -2.06,8.09 0.58,0.31 1.15,0.63 1.72,0.95 -0.58,-0.32 -1.15,-0.63 -1.72,-0.94 -0.39,-0.02 -0.74,-0.04 -1.07,-0.07 0.72,-1.72 1.51,-3.42 2.36,-5.09 -3.191,-6.612 -2.073,-18.842 -5.09,-25.53 -0.09,0.53 -0.15,1.07 -0.21,1.61 0.24,-3.33 0.03,-5.2 -3.6,-10.56 1.27,5.09 2.9,10.26 1.46,15.52 -1.44,-1.22 -2.91,-2.39 -4.47,-3.41 0.67,2.17 1.65,5.91 2.47,10.02 -2.476,-11.501 -7.651,-20.915 -14.31,-28 5.863,6.911 13.461,24.385 12.37,36.22 -1.49,-2.61 0.25,-3.24 -2.42,-7.49 0.33,0.5 0.67,0.99 1.01,1.49 -0.329,-8.808 -5.558,-18.712 -13.59,-20.77 5.56,3.28 9.04,9.29 10.35,15.5 -2.35,-1.19 -4.21,-3.09 -6.41,-4.48 0.24,0.96 0.5,1.93 0.74,2.91 -2.581,-8.238 -5.204,-15.89 -13.17,-19.13 3.82,3.08 7.2,7.21 7.85,12.22 -6,-3.03 -8.92,-8.21 -20.95,-7.69 7.496,0.405 16.505,5.438 21.61,15.29 -0.61,0.68 -1.21,1.36 -1.79,2.05 -2.54,-4.79 -4.59,-5.65 -8.25,-9.38 -0.5,-0.08 -1.51,-0.25 -2.02,-0.32 2.77,2.29 5.23,4.95 7.13,8.02 0.22,0 0.63,0.03 0.84,0.05 0.13,2.7 2.29,4.97 1.6,7.76 0.04,0.15 0.09,0.3 0.14,0.44 -0.65,-1.77 -0.7,-2.94 -3.31,-4.68 -4.961,-6.015 -7.658,-11.719 -13.19,-14.4 0.17,-0.1 0.32,-0.19 0.7,-0.41 -2.69,-1.8 -6.12,-2.07 -8.69,-3.99 -1.01,-3.1 0.53,-6.84 -2.14,-9.4 0.03,-2.34 0.34,-4.8 -0.73,-6.97 -1.15,-1.48 0.86,-2.53 0.8,-3.98 -0.71,0.81 -1.4,1.61 -2.09,2.39 -2.5,-2.18 -5.67,-3.2 -8.75,-4.21 2.55,1.29 8.22,2.51 8.94,9.38 -1.32,2.07 -2.5,-0.44 -2.88,-1.74 -4.34,4.38 -8.47,9.3 -10.32,15.28 -2.823,0 -7.731,2.146 -8.34,-1.61 1.483,-2.649 1.334,-2.392 3.96,-8.03 0.26,0.12 0.47,0.22 0.54,0.25 1.82,-1.47 3.13,-3.46 3.61,-5.77 -1.17,0.78 -2.32,1.6 -3.45,2.43 -0.74,-0.23 -1.47,-0.45 -2.18,-0.68 -0.09,1 -0.15,1.99 -0.19,2.98 -5.989,6.993 -7.157,6.598 -9.45,11.4 -4.613,-2.407 -9.739,-3.685 -14.83,-3.96 4.71,2.26 9.2,4.97 13.82,7.42 0.03,0.25 0.1,0.88 0.34,2.9 -0.16,0 -1.43,0.04 -3.05,0.09 0.35,-0.02 0.72,-0.03 1.1,-0.05 l -0.66,-0.6 c -7.88,-1.48 -15.93,0.52 -23.84,-0.35 -0.25,-1.12 -0.6,-2.65 -1.15,-4.87 0.29,1.11 0.58,2.21 0.86,3.33 -0.21,-6.2 0.96,-12.27 1.84,-18.38 -2.46,6.86 -4.42,13.93 -4.33,21.28 -1.93,-3.46 -5.68,-5.22 -8.01,-8.34 2.41,-4.19 4.88,-8.34 8.23,-11.87 -4.35,3.57 -7.1,8.51 -10.45,12.92 -1.14,-1.19 -2.14,-2.47 -3.11,-3.75 0.26,2.3 1.48,4.32 2.03,6.55 -3.16,-0.02 -6.31,-0.2 -9.45,-0.17 -1.07,-6.3 1.76,-12.41 5.36,-17.4 -4.389,5.247 -6.733,9.628 -7.22,20.5 -11.89,-8.89 -16.7,-24.41 -36.78,-32.29 12.75,6.77 20,17.35 21.52,20.59 0.01,0 0.02,0.01 0.04,0.02 -0.64,6.56 0.93,13.2 -0.49,19.72 0.27,0.02 0.76,0.07 1.1,0.1 -7.03,-0.51 -2.78,3.46 -13.43,-1.18 -3.37,-3.83 -6.92,-7.57 -10.8,-10.86 -0.64,1.28 -1.38,2.5 -2.11,3.72 4.58,-9.78 10.05,-28.94 -23.24,-35.9 4.52,0.96 8.75,2.81 12.94,4.71 2.17,1.89 4.11,3.69 5.75,5.47 -0.97,2.72 -2.06,5.44 -2.12,8.36 -0.43,-0.09 -1.28,-0.27 -1.7,-0.36 0.24,0.34 0.71,1.03 0.94,1.36 0.16,6.96 -0.6,13.97 0.44,20.89 -0.48,0.18 -1.43,0.56 -1.91,0.74 -2.91,-7.79 -5.98,-16.84 -14.22,-20.48 -0.07,-4.8 0.34,-7.93 -0.58,-9.8 0.49,3.14 0.03,6.33 0.02,9.49 -6.52,-1.54 -10.2,-2.5 -13.2,-2.32 0.53,-0.06 1.06,-0.09 1.6,-0.11 -4.48,-1.14 -9.53,-1.19 -13.93,0.32 0.39,0.29 1.16,0.86 1.55,1.14 -9.665,3.809 -11.313,3.409 -12.29,4.82 2.37,-0.16 4.73,-0.69 7.13,-0.84 -1.85,0.75 -4.07,0.96 -5.44,2.55 4.29,-0.21 8.14,-2.54 12.45,-2.78 4.51,-0.65 7.05,0.96 12.13,0.22 -0.58,0.09 -1.44,0.24 -1.9,0.31 3.45,0.89 6.41,3.03 8.98,5.45 0.92,5.21 -0.8,10.59 -0.29,15.88 -2.66,1.57 -5.68,2.32 -8.41,3.7 2.83,-0.82 5.56,-1.98 8.45,-2.69 2.645,6.877 -0.574,-0.098 3.6,8.25 -0.53,0.14 -1.59,0.4 -2.12,0.53 2.34,-0.4 4.68,-0.95 7.06,-1.23 -0.11,-1.17 -0.26,-2.31 -0.39,-3.55 0.06,0.6 0.13,1.2 0.21,1.8 0,-2.4 0.19,-4.79 0.39,-7.18 1.63,2.74 3.3,5.52 5.78,7.59 -0.92,0.32 -1.82,0.64 -2.71,0.94 1.23,0.18 2.47,0.32 3.74,0.44 -5.88,-0.47 -1.15,-0.94 -14.95,1.34 -0.15,-0.1 -0.29,-0.2 -0.44,-0.31 -4.41,1.01 -8.75,2.38 -13.22,3.05 -3.09,-5.56 -5.41,-11.67 -5.64,-18.09 -0.18,15.57 8.36,16.31 1.9,20.12 -1.45,-0.1 -1.76,0.27 -7.9,2.56 0.34,0.33 0.7,0.66 1.05,1 -7.29,-6.41 -14.29,-12.14 -21.19,-12.29 0.45,0.01 1.34,0.03 1.78,0.04 -4.23,-3.17 -10.1,-0.41 -14.61,-2.87 -7.2,-3.96 -14.13,-8.41 -21.62,-11.8 6.68,4.13 14.08,7.34 19.93,12.67 -5.12,0.95 -38.96,12.42 -40.83,13.58 3,0.12 5.64,-1.44 8.54,-1.94 21.32,-3.91 11.27,-1.55 23.58,-1.55 -0.11,-0.04 -0.22,-0.08 -0.34,-0.12 1.88,0.56 3.93,0.97 7.15,1.5 -0.3,8.98 1.28,12.29 3.02,16.01 -1.23,1.98 -3.2,0.14 -4.6,-0.54 1.25,1.68 2.92,2.9 4.77,3.88 -0.02,0.17 -0.03,0.34 -0.05,0.52 2.27,1.8 3.19,4.9 5.53,6.55 0.63,0.77 1.37,1.49 2.1,2.21 -0.13,0.3 -0.21,0.49 -0.27,0.64 -2.859,-1.202 -50.042,-22.983 -50.9,-26.82 -1.1,0.24 -2.22,0.48 -3.28,0.72 -0.04,-0.14 -0.08,-0.3 -0.12,-0.47 -2.5,-1.17 -5.15,-2.57 -7.96,-1.71 1.8,0.91 3.54,2 5.06,3.36 -1.69,1.66 -3.85,2.66 -6.01,3.48 0.08,0.33 0.25,1 0.33,1.34 1.77,-0.99 3.51,-2.22 5.57,-2.54 2.18,0.83 3.03,3.83 1.46,5.66 0.71,0.08 1.47,0.13 2.21,0.3 2.38,2.38 3.83,5.51 5.01,8.62 0.28,0.24 0.59,0.48 0.89,0.71 -3.18,-1.91 -8.28,-4.92 -14,-8.04 -2.26,-8.744 -5.47,-24.786 -12.643,-30.689 6.253,8.388 7.254,19.113 9.723,28.969 -7.38,-4.07 -6.83,0.87 -9.56,-18.29 -0.05,4.93 0.73,9.77 2.2,14.47 -5.37,0.45 -4.12,-5.89 -5.46,-9.3 -0.07,2.67 0.63,5.25 1,7.88 -6.92,-2.08 -14.04,-3.78 -21.3,-3.29 7.84,0.31 16.26,1.55 22.65,6.42 0.89,7.16 10.24,19 15.35,24.5 -12.04,-4.71 -14.65,-6.55 -19.98,-8.14 0.86,0.25 1.74,0.52 2.64,0.8 -0.14,-2.94 -2.44,-5.04 -3.38,-7.7 -1.32,-2.91 -1.14,-6.18 -1.34,-9.29 -2.68,5.34 0.26,10.99 1.93,16.14 -18.839,-6.024 -21.158,-2.677 -24.91,-3.25 -4.01,-11.33 -9.62,-11.05 -18.05,-11.69 12.65,2.46 15.49,8.32 15.31,12.95 -1.63,-0.09 -3.23,-0.22 -4.82,-0.22 0.14,-0.08 0.38,-0.21 0.79,-0.45 -2.192,-1.126 -8.937,-5.733 -23.43,-4.5 6.79,3.56 0.5,-3.05 16.81,7.8 0.663,-0.215 1.406,-0.486 1.84,-0.62 -4.73,1.68 -2.38,1.39 -6.44,3.08 -3.45,-0.94 -6.77,-2.36 -10.35,-2.71 2.82,1.18 7.03,1.07 8.49,4.12 -7.3,3.74 -12.37,10.41 -15.34,9.82 -3.77,-4.88 -7.45,-10.6 -8.67,-14.91 0.6,7.85 15.25,24.12 15.06,26.97 -4.79,0.56 -9.59,1.09 -14.36,1.75 -10.88,-7.21 -23.19,-5.46 -26.5,-5.93 -3.43,-3.78 -8.32,-5.57 -13.08,-6.96 3.78,2.1 7.93,3.98 10.72,7.43 -24.94,6.82 -17.48,6.23 -28.13,9.54 -1.83,-5.88 -2.31,-12.08 -3.92,-18.03 0.7,6.24 1.33,13.29 2.72,20.34 -0.12,-0.51 -0.24,-1.01 -0.38,-1.51 -2.43,0.88 -4.91,0.62 -7.15,-0.59 0.53,0.79 1.06,1.57 1.62,2.35 -2.74,1.64 -6.07,2.08 -8.58,4.08 3.64,-0.02 6.82,-2.13 10.4,-2.5 1.55,1.08 2.92,2.55 4.91,2.88 -0.2,-1.3 -0.4,-2.6 -0.66,-3.89 6.402,30.988 27.452,41.099 57.99,49 -11.624,3.269 -9.3,-0.003 -17.43,2.38 0.45,0.25 1.35,0.76 1.8,1.01 2.81,0.64 5.11,0.78 7.12,0.69 -0.62,0.05 -1.24,0.11 -1.98,0.15 2.28,2.97 5.97,3.82 9.57,3.57 -3.6,0.28 -7.3,-0.58 -9.59,-3.55 -1.74,-0.2 -3.45,-0.46 -5.14,-0.84 -2.15,-1.2 -2.01,-1.15 -2.61,-1.53 -0.98,0.2 -2.13,0.44 -2.27,0.46 0.42,-0.09 1.27,-0.27 1.69,-0.36 -20.04,-11.9 -29.85,-14.55 -38.53,-13.78 -0.11,0.1 -0.24,0.2 -0.36,0.3 -5.62,0.04 -10.31,4.1 -15.93,3.75 1.63,0.38 3.25,0.82 4.88,1.32 19.384,-8.817 32.64,3.052 47.49,9.98 -3.533,0.711 -14.931,1.876 -18.54,1.6 0.91,0.41 1.81,0.82 2.72,1.22 -21.99,-8.72 -28.79,-14.25 -44.83,-14.07 2.36,-0.03 4.74,-0.17 7.13,-0.27 -6.57,-3.1 -21.12,-0.39 -24.62,-0.55 2.02,1.17 4.58,1.67 5.8,3.89 -0.55,0.09 -1.58,0.27 -2.19,0.38 -9.64,-2.66 -19.27,-3.69 -29.32,-1.64 1.53,-0.31 3.08,-0.63 4.62,-0.96 -5.85,-1.11 -29.65,3.86 -43.6,21.8 32.374,-34.345 76.424,-19.286 116,6.24 -0.43,-0.25 -0.87,-0.48 -1.34,-0.65 -6.36,0.76 -23.89,-6.33 -36.7,-15.56 41.488,36.232 106.024,16.84 56.66,28.5 -54.38,-4.08 -56.38,-25.59 -99.06,-27.25 44.97,8.4 47.01,21.48 81.05,29.4 -18.84,0.69 -63.83,-29.82 -84.45,-20.02 0.62,-0.3 1.24,-0.59 1.9,-0.86 -5.77,-0.54 -11.49,1.45 -16.73,3.64 54.337,-7.49 57.549,13.819 99.51,20.04 -1.17,-0.17 -2.32,-0.33 -3.45,-0.48 0.1,0.3 0.32,0.89 0.42,1.18 -6.21,1.74 -12.28,3.98 -18.21,6.47 1.04,0.25 2.11,0.53 3.21,0.75 -18,-3.54 -32.13,-8.1 -46.74,-10.92 0.3,0.02 0.59,0.04 0.88,0.06 -2.1,-1.98 -19.27,-6.15 -26.32,-5.2 2.33,1.21 5.29,0.93 7.32,2.76 -6.48,-0.4 -13.34,-0.32 -20.89,0.45 27.91,0.28 60.96,10.04 89.4,17.72 -12.96,-3.34 -3.94,3.05 -19.07,0.94 1.56,-1.91 4.09,-2.25 6.35,-2.86 -0.24,-0.3 -0.69,-0.91 -0.92,-1.21 -3.03,1.4 -6.11,2.75 -9.31,3.67 2.38,0.73 4.83,1.16 7.29,1.51 -6.92,-0.89 -14.1,-3.07 -19.92,-5.01 -1.05,0.16 -2.1,0.31 -3.12,0.46 4.23,0.96 8.14,2.9 12.34,4.06 5.04,1.66 10.36,2.23 15.48,3.63 -46.959,-5.463 -39.181,-7.825 -91.32,-14.9 39.873,7.826 23.908,5.936 60.32,12.79 -1.02,-0.14 -2.03,-0.26 -3.04,-0.39 5.38,3.69 11.31,6.43 16.9,9.77 -12.94,-1.25 -31.19,-9.44 -34.17,-13.27 -1.12,-0.3 -2.25,-0.58 -3.34,-0.85 9.69,8.32 21.98,13.1 34.24,16.22 -1.39,1.29 -2.99,2.33 -4.62,3.27 -9.392,-0.205 -24.113,-6.005 -41.64,-3.63 0.16,0 0.34,0.01 0.51,0.02 -4.96,-0.07 -9.42,0.87 -15.66,2.76 -16.28,-7.82 -22.12,-15.98 -32.83,-20.14 -0.83,0.26 -1.65,0.53 -2.45,0.78 23.95,12.46 24.44,26.38 89.5,36.03 -4.46,1.45 -9.24,1.49 -13.87,1.32 0.95,0.2 1.9,0.42 2.85,0.65 -0.99,-0.23 -1.95,-0.44 -2.86,-0.64 l -0.94,-0.54 c -0.34,0.1 -0.64,0.2 -0.94,0.29 0.15,-0.05 0.31,-0.1 0.46,-0.16 -12.536,-8.035 -55.614,-9.625 -95.28,1.77 1,-0.06 22.03,-2.35 23.52,-3.42 -0.59,-0.03 -1.7,-0.06 -2.46,-0.08 10.03,0.22 27.84,-4.38 43.89,-2.26 -0.41,-0.03 -0.82,-0.06 -1.23,-0.07 1.12,0.85 2.29,1.66 3.51,2.4 0.15,-0.01 0.29,-0.02 0.43,-0.03 1.42,1.19 3.06,2.09 4.8,2.76 0.15,-0.02 0.28,-0.04 0.42,-0.07 7.547,3.154 22.962,2.54 33.53,4.56 -5.93,1.62 -18.14,0.07 -22.56,-0.66 4.96,2.26 10.53,1.83 15.76,3.02 -0.69,1.27 -1.14,2.52 0.76,2.56 -0.15,-3.47 3.41,-2.16 15.68,-1.85 -0.07,0.51 -0.19,1.5 -0.26,2.02 -0.53,0.36 -1.13,0.72 -2.1,1.24 0.24,-0.14 0.46,-0.27 0.62,-0.36 -31.871,-1.212 -6.048,-2.22 -74.21,-2.22 0.42,-0.01 0.83,-0.02 1.11,-0.02 l -0.03,-0.88 c -7.97,-0.62 -21.28,-3.53 -40.23,5.48 37.17,-8.57 30.39,-2.15 39.94,-3.61 0.67,0.27 1.29,0.42 4.41,1.48 -4.17,1.86 -9.19,2.2 -12.63,5.38 0.02,0.01 0.04,0.01 0.06,0.01 -11.2,-0.1 -24.59,-0.15 -36.58,1.33 7.48,0.58 17.45,0.3 29.25,0.96 -5.33,2.96 -9.98,7.34 -16.01,8.87 0.62,0.39 1.27,0.78 1.92,1.21 -15.265,-8.775 -18.672,-3.18 -24.99,-2.05 -1.64,-1.66 -3.23,-3.39 -4.32,-5.46 17.94,-2.63 18.16,-1.53 21.82,-2.97 -17.9,-1.14 -30.44,3.75 -34.91,6.09 3.87,-0.19 7.37,-2.1 11.18,-2.59 2.16,0.94 3.44,3.17 5.18,4.71 1.254,2.043 3.774,2.849 4.91,5 -3.97,1.19 -7.92,2.44 -11.99,3.24 2.09,1.15 4.57,1.63 6.08,3.69 -0.42,0.32 -1.28,0.94 -1.7,1.24 0.12,0.06 0.24,0.13 0.36,0.19 -11.08,-4.99 -28.91,-14.56 -50.29,-14.87 10.77,0.63 27.2,4.4 39.47,12.33 -1.81,0.92 -3.52,2 -5.06,3.29 1.7,-0.95 3.24,-2.24 5.1,-2.89 1.66,0.09 6.17,2.22 10.16,4.38 -0.66,-0.32 -1.32,-0.63 -1.99,-0.92 -2.56,1.5 -5.18,3.12 -6.33,6.02 1.54,-0.74 3.01,-1.63 4.57,-2.37 2.43,-0.23 4.84,0.6 7.26,0.86 -0.49,0.44 -0.96,0.9 -1.43,1.35 -4.21,1.06 -8.17,2.23 -11.63,4.5 0.76,0.4 1.56,0.83 2.36,1.23 -3.57,-1.34 -6.57,-2.14 -8.57,-2.01 1.09,-0.07 2.2,-0.11 3.33,-0.15 -1.89,-1.3 -2.05,-1.44 -3.38,-1.48 -1.34,-1.84 -3.62,-2.38 -5.67,-2.93 0.13,0.2 0.25,0.4 0.38,0.6 -0.27,-0.39 -0.63,-0.84 -1.25,-1.49 0.2,-0.26 0.62,-0.78 0.82,-1.05 -5.45,-2.17 -5.15,-8.47 -13.95,-9.66 4.36,0.98 7.47,4.92 9.84,8.61 0,0 -16.16,-4.95 -34.43,-7.12 4.41,0.78 31.91,5.5 35.24,11.19 -16.74,-1.4 -32,-0.91 -32,-0.91 3.22,0.46 6.4,1.18 9.53,2.07 -18.58,-4.74 -37.11,-4.76 -57.58,3.64 4.128,-1.283 17.576,-7.72 39.66,-5.22 0.55,0.57 1.11,1.15 1.69,1.73 -12.26,2.95 -24.17,7.28 -35.39,13 5.67,-1.46 23.87,-10.29 41.52,-12.46 -0.36,-0.29 -0.8,-0.57 -1.29,-0.84 0.22,0.09 0.42,0.18 0.6,0.28 7.43,0.2 14.31,3.28 21.3,5.48 0.13,-0.05 0.27,-0.09 0.4,-0.14 8.84,3.7 11.6,3.43 11.58,5.49 -3.99,1.44 -7.19,4.4 -10.94,6.31 0.08,0 0.18,0 0.28,-0.01 -0.27,0.02 -0.46,0.02 -0.89,0.05 -2.47,2.24 -5.42,4.2 -8.9,3.27 0.49,0.15 1.48,0.44 1.98,0.58 -3.22,8.83 -16.6,-3.29 -36.57,1.2 17.34,-1.09 33.95,4.77 33.98,4.77 11.48,3.91 37.49,13.08 52.4,13.61 l 17.23,11.87 c -0.69,0.05 -17.78,1.46 -29.15,2.18 1.96,-0.27 3.91,-0.56 5.86,-0.75 -8.22,-2.6 -16.7,-4.44 -24.76,-7.59 l -0.18,0.34 c 5.58,2.69 11.51,4.49 17.32,6.61 -2.74,1.56 -13.31,0.64 -27.97,0.92 4.14,1.73 18.47,2.85 22.8,1.79 -0.96,-0.3 -1.87,-0.62 -2.77,-0.94 1.34,0.33 27.32,3.87 45.44,5.8 -0.57,0 -1.13,0 -1.69,0.03 0.17,0.04 0.34,0.1 0.51,0.15 -1.2,-0.28 -1.82,-0.12 -5.71,-0.18 1.24,1.07 2.93,0.96 4.49,1.18 -6.2,0.21 -12.41,0.63 -18.55,1.33 1.22,0.19 2.44,0.3 3.67,0.39 -21.375,-1.442 -26.048,0.6 -53.18,-8.04 -2.898,-2 -12.614,-6.46 -24.59,-8.34 -0.09,0.27 -0.28,0.82 -0.38,1.1 6.557,2.744 20.369,13.077 54.66,18.4 -1.04,-0.08 -2.11,-0.16 -3.19,-0.24 5.83,3.94 28.78,0.44 40.28,4.62 h 0.58 c -1.38,0.05 -2.93,0.11 -4.88,0.39 -0.11,-0.07 -0.21,-0.13 -0.31,-0.18 -100.43,2.42 -76.02,-12.35 -104.56,-13.38 5.96,0.96 12.32,3.08 18.21,7.29 -4.16,1.75 -27.5,-1.34 -37.25,-5.18 12.38,5.99 36.26,8.52 40.77,8 5.147,1.065 9.254,4.56 13.78,7.28 -2.46,0.89 -4.69,0.05 -7.16,0.34 2.99,2.05 7.28,0.69 10.12,2.95 -4.27,1.11 -8.8,0.8 -12.96,2.28 1.24,0.37 2.49,0.76 3.75,1.12 -12.23,-3.23 -23.42,-7.18 -30.07,-7.29 0.53,0.01 1.59,0.02 2.12,0.03 l 0.02,-0.75 c -10.48,-2.2 -20.3,-6.16 -31.61,-3.37 17.86,-2.08 20.62,3.89 31.29,5.24 -0.52,-0.32 -1.03,-0.63 -1.52,-0.96 3.27,1.95 14.14,5.65 20.89,6.29 -0.52,-0.04 -1.31,-0.09 -1.72,-0.12 -2.15,3.63 -7.15,2.62 -10.31,4.73 -2.43,-0.54 -4.75,-1.46 -7.07,-2.32 -0.19,0.26 -0.56,0.81 -0.75,1.08 -7.12,-0.89 -14.13,-2.94 -21.33,-2.98 1.005,0.3 25.201,5.817 26.61,5.42 -0.35,0.12 -0.7,0.23 -1.05,0.33 2.7,0.89 5.39,1.84 8.15,2.6 0.31,-0.11 0.6,-0.21 0.88,-0.3 0.13,0.34 0.39,1.02 0.52,1.36 -16.758,4.899 -24.212,14.959 -26.75,16.82 -1.69,0.62 -3.55,0.48 -5.3,0.71 l 0.09,-0.85 c -6.26,-1.67 -12.74,0.01 -18.85,1.47 0.46,0.69 0.95,1.41 1.43,2.13 2.48,-2.14 6.26,-1.09 9.29,-1.77 -0.97,-0.33 -1.88,-0.68 -2.81,-1.02 5.45,2.03 8.56,1.48 16.6,4.38 -6.97,0.82 -14.02,0.63 -20.98,1.65 0.37,0.55 0.78,1.11 1.22,1.65 3.82,-1.31 16.6,-0.58 19.01,-0.31 -2.32,1.52 -4.71,2.44 -8.08,3.8 0.05,-0.02 0.1,-0.04 0.14,-0.06 -3.26,-0.94 -6.57,-1.61 -9.91,-2.06 1.8,2.987 0.905,1.65 5.05,7.43 1.18,-0.99 2.39,-1.97 3.68,-2.83 4.415,-0.756 8.408,1.163 12.74,1.49 0.3,0.24 0.91,0.71 1.21,0.95 -8.79,7.36 -11.82,20.24 -43.06,-40.44 10.6,24.12 21.84,40.39 21.88,40.46 -1.88,1.11 -3.75,2.21 -5.62,3.31 -1.86,-3.26 -3.7,-6.52 -5.34,-9.9 -0.02,0.1 -0.04,0.21 -0.06,0.31 0.09,-0.62 0.05,-0.85 0.03,-1.78 1.91,-0.03 3.83,-0.05 5.77,-0.09 -0.24,-0.43 -0.74,-1.3 -0.99,-1.73 -2,0 -3.98,0 -5.96,-0.01 -8.8,-15.33 -11.79,-22.86 -12.05,-28.27 -0.12,24.11 3.55,33.41 6.83,46.8 -0.57,0.03 -1.71,0.11 -2.28,0.15 0.75,0.21 1.31,0.36 1.76,0.48 -5.09,-1.27 -9.79,-2.45 -23.42,-0.71 0.79,0.12 1.59,0.21 2.39,0.28 -5.17,-0.01 -10.77,0.7 -15.16,3.02 7.34,-0.05 14.8,-3.12 22.04,-0.8 0.23,0.01 0.47,0.01 0.7,0.01 -7.61,0.5 -19.16,1.46 -23.42,4.06 0.62,-0.38 1.25,-0.75 1.91,-1.1 -5.84,-0.77 -39.5,11.1 -46.84,15 l 47.72,-13.8 c -0.71,-0.02 -2.11,-0.06 -2.82,-0.08 0.05,-0.01 38.97,-2.14 38.99,-2.15 0.34,0.18 0.64,0.33 0.94,0.48 -4.43,0.55 -6.22,-0.38 -8.98,0.45 0.78,0.89 10.87,7.34 13.31,7.65 0.32,0.5 0.63,0.95 0.93,1.39 -0.11,-0.15 -0.22,-0.31 -0.33,-0.46 -1.9,0.96 -3.97,1.41 -5.95,2.13 2.1,0 4.19,-0.33 6.25,-0.77 -1.3,2.5 -4.34,4.44 -7.16,4.33 -1.9,-1.2 -5.32,-4.79 -6.82,-1.31 2.14,0.62 4.18,1.56 6.13,2.66 -1.29,2.42 -3.55,4.08 -5.31,6.13 -0.71,0.03 -2.12,0.1 -2.83,0.13 0.15,0.06 0.29,0.11 0.44,0.17 -4.59,-1.57 -9.38,-2.96 -14.35,-3.99 0,0.27 0,0.53 0.01,0.8 -0.01,-0.44 0,-0.63 -0.03,-1.37 -13.03,-2.15 -26.4,-2.5 -39.4,0.13 13.156,0.248 20.581,-9.242 93.15,22.88 1.13,1.37 2.3,2.72 3.5,4.05 -1.48,0.23 -2.96,0.48 -4.42,0.69 3.55,0.44 7.11,0.67 10.68,0.84 -34.19,-1.37 -33.22,-3.71 -39.96,-9.31 -12.4,-9.5 -21.06,-15.29 -35.26,-13.23 2.91,-0.42 5.85,-0.67 8.81,-0.44 -7.09,-2.33 -21.08,1.1 -25.32,0.26 -4.49,-1 -9.15,-0.81 -13.72,-0.65 4.11,0 8.17,0.79 12.26,1.22 -0.6,0.54 -1.18,1.08 -1.75,1.63 13.695,-4.266 60.042,37.312 91.33,39.71 0.25,0.19 0.73,0.58 0.99,0.78 -0.37,-0.02 -0.77,-0.06 -1.2,-0.11 -0.37,0.23 -0.68,0.41 -0.99,0.61 0.22,-0.15 0.45,-0.29 0.68,-0.43 -57.056,-2.585 -42.376,-17.14 -68.93,-21.38 0.19,-0.32 0.32,-0.53 0.37,-0.61 -10.63,-1.38 -21.78,-1.26 -31.8,2.91 2.54,-0.07 14.33,-4.28 30.25,-0.35 0.08,-0.13 0.15,-0.25 0.23,-0.37 8.61,2.12 16.47,6.61 23.19,12.33 -4.32,0.3 -8.37,0.53 -12.2,0.71 -5.55,-0.54 -10.93,-2.7 -16.58,-2.1 2.59,1.18 5.55,1.42 8.16,2.48 -33.33,1.33 -48.23,0.63 -76.25,20.27 16.58,-9.32 30.96,-13.97 42.26,-16.04 -0.15,0.03 -0.32,0.07 -0.45,0.1 1,0.08 23.72,1.1 26.04,-0.03 -6.26,-1.8 -14.87,-1.5 -20.74,-0.83 18.49,-2.378 65.224,6.11 68.93,8.63 -1.89,1.32 -4.29,1.47 -6.3,2.52 -2.89,0.24 -5.39,2.04 -7.97,3.22 -2.46,1.33 -5.36,0.84 -8.02,1.07 0.26,0.05 0.51,0.1 0.77,0.15 -0.64,-0.12 -1.35,-0.25 -2.17,-0.39 -3.96,-3.18 -8.54,-5.46 -13.15,-7.51 2.13,2.75 5.68,3.91 7.98,6.54 -0.68,0.1 -2.01,0.29 -2.75,0.4 -11.06,-2.47 -21.42,-10.76 -32.35,-8.02 0.27,0.03 0.58,0.09 0.9,0.15 -4.58,-0.15 -9,2.92 -19.04,17.7 3.68,-1.14 10.26,-16.69 23.26,-16.62 11.25,3.27 32.89,11.7 33.74,12.06 0.88,-0.42 1.76,-0.83 2.66,-1.23 -10.949,5.011 -14.031,7.027 -16.84,9.02 -0.374,0.069 -33.08,5.69 -33.08,5.69 0.09,0 0.18,0 0.28,-0.01 -9.009,1.451 -3.178,0.73 -23.039,2.101 0.773,-0.109 1.548,-0.218 2.349,-0.331 -6.327,0.346 -61.968,5.49 -88.382,8.149 1.497,-0.371 2.995,-0.742 4.492,-1.113 -16.4,4.063 -57.83,4.473 -132.152,8.781 0.708,0.05 1.416,0.099 2.124,0.149 -19.084,-1.331 -131.673,48.866 -146.962,49.324 -23.83,7.57 -39.86,16.75 -49.75,18.45 -3.78,1.95 -7.84,3.24 -11.85,4.65 -0.08,0.24 -0.17,0.46 -0.26,0.69 -2.684,-0.241 -19.13,5.248 -23.38,6.11 -0.45,-0.1 -1.14,-0.27 -1.51,-0.36 0.09,-0.37 0.28,-1.12 0.37,-1.49 -1.61,0.52 -3.2,1.15 -4.77,1.78 -7.96,-0.44 -15.79,1.41 -23.55,2.87 0.63,-2.2 1.64,-4.25 2.65,-6.3 -3.27,0.48 -3.92,4.45 -5.03,7 0.02,0.01 0.06,0.02 0.09,0.03 -0.11,-0.03 -0.22,-0.06 -0.35,-0.09 -2.27,0.2 -4.53,0.57 -6.75,1.16 1.07,1.02 2.6,1.07 3.95,1.48 -2.84,1.65 -6.31,1.34 -9.2,2.84 1.49,0.27 3,0.53 4.51,0.79 -2.39,1.41 -5.39,1.85 -7.24,4.04 -2.11,0.71 -4.33,1.51 -6.61,2.37 1,-0.43 1.59,-0.68 1.6,-0.68 1.35,-0.54 2.75,-0.99 4.15,-1.42 -0.87,-2.72 1.35,-6.18 -1.19,-8.27 -1.45,5.28 -1.54,5.58 -2.02,6.96 -1.03,0.14 -24.08,3.86 -26.74,4.98 4.64,0.28 9.24,-1.15 13.9,-0.41 -6.42,2.5 -13.39,2.79 -19.95,4.68 3.18,0.17 6.38,0.07 9.55,0.53 -3.21,2.61 -7.82,2.05 -11.49,3.8 2.22,-0.08 4.43,0.14 6.62,0.44 -9.26,-1.17 -15.12,0.75 -32.31,-2.32 5.33,2.86 11.75,2.01 17.3,4.3 4.03,0.32 8.1,-0.46 12.14,0.14 -2.68,1.41 -4.62,2.54 -5.42,3.19 1.4,-0.43 2.83,-0.82 4.26,-1.19 -1,0.269 -30.985,9.781 -44.92,10.56 0.24,0.03 0.46,0.05 0.69,0.08 -2.57,-0.15 -8,-0.2 -25.43,0.21 4.71,1.73 32.63,2.39 33.8,0.21 -2.08,-0.01 -3.41,-0.04 -4.37,-0.09 5.47,0.26 9.39,-0.36 12.7,-1.08 0.42,0.23 1.18,0.64 1.58,0.86 -2.43,1.41 -3.93,3.78 -5.33,6.12 -11.3,3.07 -21.92,8.27 -31.86,14.36 0.65,0 1.3,-0.03 1.95,-0.07 -3.1,0.62 -5.58,1.24 -6.18,1.71 5.98,-0.13 12,-1.77 17.97,-0.95 4.866,-3.466 -0.179,-0.699 8.16,-5.59 -6.27,4.42 -11.76,8.2 -14.21,9.47 0,0 0.1,-0.41 -10.88,1.71 2.38,0.06 4.77,0.17 7.12,0.71 -3.869,2.875 -39.206,7.684 -71.2,-0.42 23.38,9.22 64.09,5.01 65.09,5.04 0.17,-0.06 0.5,-0.17 0.69,-0.24 -1.071,0.518 -30.005,15.718 -40.13,21.52 -2.14,0.2 -3.9,2.01 -5.66,3.21 -0.478,0.159 -36.354,2.619 -49.63,6.28 4.247,0.442 29.625,-2.802 40.24,-1.75 -2.25,1.86 -5.08,2.94 -7.15,5.04 4.77,-0.97 9.15,-3.48 13.22,-6.09 -2.79,0.23 -5.59,0.21 -8.38,0.26 5.36,-0.38 10.39,-0.71 14.35,-0.91 0.46,0.45 0.94,0.91 1.42,1.38 -4.12,1.92 -8.32,3.66 -12.63,5.09 0.79,0.23 1.6,0.47 2.4,0.72 -3.57,0.81 -7.19,1.75 -10.31,3.75 3.93,0.5 7.61,-1.35 11.5,-1.36 -4.68,4.08 -22.33,18.74 -24.58,24.1 4.48,-2.93 7.46,-7.63 11.95,-10.54 -0.08,0.47 -0.25,1.42 -0.33,1.9 1.23,-0.52 2.43,-1.4 3.85,-1.12 0.31,-0.28 0.61,-0.58 0.91,-0.86 -3.59,3.71 -6.67,6.94 -7.81,8.26 -0.19,0.06 -0.37,0.12 -0.53,0.14 -1.26,0.95 -2.53,2.04 -2.45,3.82 1.25,-0.57 2.49,-1.14 3.74,-1.72 -13.87,7.66 -26.05,12.91 -33.17,16.25 0.55,-0.23 11.64,-4.9 22.21,-9.43 1.48,2.6 -2.41,4.11 -2.49,6.72 3.9,-0.67 6.66,-1.76 8.93,-3.2 -11.675,7.981 -60.697,11.693 -72.03,26.89 6,-2.72 7.32,-7.04 27.3,-11.5 0.02,-0.26 0.04,-0.46 0.05,-0.62 12.01,-2.84 24.4,-4.49 35.91,-9.1 2.12,3.1 -7.35,6.85 -10.5,14.58 1.29,-0.45 2.45,-1.06 3.52,-1.78 -8.035,6.121 -30.327,14.7 -49.28,26.32 0.78,-0.13 27.07,-9.8 27.73,-10.49 -0.26,0.01 -0.69,0.03 -1.08,0.05 2.98,-0.23 4.35,-0.66 5.93,-1.12 0.42,0.21 1.26,0.62 1.68,0.83 -0.65,1 -15.1,19.48 -17.08,26.03 0.1,-0.03 0.18,-0.05 0.27,-0.08 -2.224,0.953 -38.009,9.964 -52.78,36.54 12.79,-19.26 26.89,-26.04 49.07,-32.89 -1.79,3.33 -4.14,6.44 -5.04,10.18 -2.16,1.77 -3.79,4.11 -5.8,6.04 -0.1,-0.03 -0.12,-0.03 -0.6,-0.18 -2.76,2.05 -14.14,13.15 -15.3,16.11 12.13,-10.1 11.21,-10.37 14.73,-11.94 -1.04,3.28 -3.72,5.9 -4.26,9.32 -24.32,35.88 -73.95,106.56 -75.39,108.6 1.36,-2.98 3.8,-5.29 5.13,-8.28 0.04,-0.44 0.13,-1.32 0.18,-1.76 -4.41,3.44 -7.38,8.45 -12.18,11.43 -7.06,4.37 -24.32,15.29 -30.28,21.2 2.13,-1.53 22.49,-16.12 26.44,-16.4 -1.14,2.16 -3.12,3.67 -4.69,5.49 5.21,-2.89 8.17,-8.86 13.85,-11.21 -2.75,6.08 -21.95,30.1 -22.5,31.1 6.335,-1.624 25.787,-31.743 29.34,-36.65 -0.2,0.36 -0.4,0.72 -0.6,1.08 5.08,-0.34 8.87,-4.84 13.92,-5.27 -15.46,19.48 -41.96,39.21 -77.08,106.34 21.46,-39.36 52.76,-76.1 69.27,-94.11 -0.755,0.927 -1.221,1.554 -2.88,3.41 0.38,0.12 1.14,0.38 1.52,0.51 -4.172,11.934 -6.521,20.811 -39.54,48.79 7.16,-2.65 33.84,-26.85 37.05,-38.46 -1.02,3.68 -3.11,6.86 -5.5,9.78 0.17,1.61 0.37,3.22 0.59,4.84 1.72,-3.4 3.44,-6.79 5.16,-10.18 -6.24,12.47 -13.75,27.29 -21.1,41.56 0.38,-0.76 0.73,-1.52 1.07,-2.26 -0.03,-0.4 -0.08,-1.18 -0.1,-1.57 -8.07,4.98 -16.45,9.52 -24.05,15.21 3.86,-1.14 19.47,-12.45 23,-11.25 -1.17,2.28 -2.34,4.54 -3.5,6.77 0.57,-1.24 1.12,-2.48 1.73,-3.7 -0.36,0.14 -1.1,0.41 -1.47,0.56 -3.76,4.58 -8.03,8.84 -11.08,13.95 4.79,-2.01 6.48,-8.26 8.94,-7.19 -12.23,23.49 -22.95,43.22 -25.07,44.71 -23.83,16.36 -55.53,40.25 -76.3,70.19 22.05,-29.56 60.55,-58.61 73.09,-64.59 0.18,0.26 0.37,0.53 0.5,0.7 -6.01,11.62 -7.55,12.35 -7.56,14.98 -0.02,-0.68 0.07,-1.45 0.54,-2.52 -2.33,1 -4.36,2.53 -6.49,3.89 -3.06,2.02 -6.71,2.79 -10.04,4.25 0.69,0.22 1.39,0.42 2.11,0.6 4.01,-1.5 7.48,-4.55 11.85,-4.93 -4.15,8.77 -15.34,27.71 -15.38,32.04 0.49,-0.52 0.97,-1.05 1.45,-1.58 -12.72,16.27 -25.38,35.4 -35.42,58.62 19.62,-39.26 51.32,-77.93 82.7,-107.66 -11.113,44.288 -50.689,63.374 -101.7,146.51 24.92,-38.46 56.95,-77.04 81.88,-102.37 -9.42,15.5 -28.67,38.09 -49.82,79.78 -0.029,0.05 -50.197,45.611 -68.28,75.34 14.17,-19.84 34.33,-39.5 34.96,-40.11 -0.88,0.61 -1.7,1.26 -2.52,1.95 8.46,-7.67 31.1,-28.18 31.1,-28.18 -0.34,1.68 -34.51,82.49 -101.5,149.48 18.72,-15.62 35.25,-30.78 55.83,-61.46 2.7,-1.73 4.85,-4.14 7.25,-6.24 h 1.15 c -10.42,17.83 -38.45,61.2 -61.68,73.55 33.01,-15.62 45.23,-48.21 73.09,-84.06 2.55,-2.07 6,-5.9 6.13,-7.59 -0.02,0.01 -0.03,0.03 -0.05,0.04 5.45,-6.53 11.46,-13.14 18.3,-19.74 -0.55,1.5 -19.86,32.3 -24.78,46.7 0.02,0.11 0.03,0.24 0.04,0.36 -0.11,-0.69 -0.21,-0.78 -0.36,-1.15 -8.18,19.72 -17.73,38.85 -25.79,58.61 31.885,-74.196 57.912,-109.938 61.5,-116.69 1.02,28.28 -28.96,71.42 -32.87,90.8 2.42,-8.39 6.35,-16.93 10.78,-24.97 -1.54,2.86 -2.98,5.76 -4.28,8.73 1.56,2.7 -8.65,37.28 -7.2,43.57 0.08,-0.14 0.15,-0.3 0.22,-0.45 -17.27,37.64 -36.34,54.21 -47.08,65.49 25.52,-23.03 41.36,-47.21 51.61,-69.23 -2.6,5.84 -5.44,11.57 -8.56,17.15 0.98,1.24 1.71,2.66 2.35,4.13 0.38,0.25 1.13,0.76 1.51,1.02 0.08,0.44 0.24,1.2 0.36,1.79 -8.09,17.21 -17.29,32.72 -28.16,44.52 30.48,-30.87 38.55,-62.4 54.3,-106.5 0.19,0.4 0.41,0.9 0.54,1.19 -1.45,8.19 -11.96,45.6 -13.4,50.67 2.78,-7.42 19.46,-62.98 20.39,-69.93 -0.77,1.16 -1.5,2.35 -2.21,3.56 2.46,-6.51 5.13,-13.28 8.09,-20.36 -0.06,0.21 -0.12,0.41 -0.18,0.61 3.64,-2.25 5.03,-6.74 13.6,-17.77 0.28,0.01 0.85,0.04 1.12,0.05 0,0 0.14,-0.26 0.39,-0.73 -8.56,17.11 -20.27,42.18 -23.77,52.06 0.31,-0.73 2.96,-6.89 8.21,-16.87 2.29,3.11 -0.87,7.15 0.34,10.71 0.37,-1 5.64,-18.3 5.43,-20.15 -0.97,1.6 -2.11,3.09 -3.18,4.62 25.042,-46.074 83.02,-118 94.11,-135.36 2.27,3.08 0.85,7.38 1.12,10.99 -3.15,5.06 -7.24,9.5 -10.52,14.48 4.19,-3.25 6.48,-8.33 10.59,-11.6 3.28,59.17 5.083,105.288 -30.35,152.45 23.19,-26.58 31.49,-56.76 33.76,-88.95 -0.444,11.817 -2.622,22.336 -3.95,30.52 3.03,-3.16 3.91,-7.65 5.84,-11.44 0.29,0.91 0.57,1.83 0.85,2.77 0.01,-0.02 0.01,-0.04 0.01,-0.06 -0.39,12.3 2.5,23.37 2.82,24.16 -0.06,-3.1 -1.6,-23.91 -1.25,-29.78 0.31,0 0.96,0.02 1.28,0.02 2.41,-2.24 4.79,-4.6 6.22,-7.59 0.01,-0.21 0.01,-0.42 0.02,-0.63 0,1 0.09,1.21 0.45,2.85 0.39,-3.14 0.59,-11.67 0.62,-20.8 0.01,1.45 0.03,2.9 0.06,4.35 0.23,-3.19 0.36,-17.83 0.44,-29.06 0.68,43.99 1.66,97.49 -41.83,139.29 28.24,-20.89 38.44,-50.38 42.21,-81.41 0.06,0.16 0.12,0.31 0.16,0.42 1.045,-42.407 6.785,-47.54 7.21,-61.78 -0.39,1.19 -0.8,2.41 -1.19,3.62 5.136,-16.065 2.23,-19.508 2.45,-22.81 0,0.59 0.16,1.21 0.72,6.17 0.35,-2.98 0.67,-5.66 0.96,-8.07 -0.65,5.47 -1.04,9.59 -1.06,9.95 0.39,-0.13 1.17,-0.38 1.56,-0.5 0.85,4.61 1.95,9.19 3.39,13.65 0.03,-2.27 -0.48,-4.74 -1.01,-7.61 9.02,-8.09 5.85,-26.36 4.28,-30.58 -0.09,-3.41 -0.6,-7.68 -1.74,-13.1 -2.17,4.3 -4.11,17.45 -5.29,27.11 2.745,-23.059 0.418,-16.306 17.63,-57.06 -0.22,2.5 -9.26,48.08 -4.47,62.13 -0.32,-0.93 -0.63,-1.87 -0.91,-2.78 -1.17,6.69 1.54,26.79 2.74,33.03 0,-0.01 -1.17,-39.93 -1.17,-39.93 -0.18,0.86 -0.32,1.73 -0.43,2.59 0.65,-12.3 2.71,-37.77 7.66,-56.13 -0.08,-0.13 -0.17,-0.26 -0.26,-0.4 8.03,-26.25 6.58,-19.66 19.93,-45.44 1.42,0.41 1.95,-1.15 2.78,-1.93 0.22,0.3 0.68,0.89 0.92,1.19 1.15,-7.42 9.52,-19.34 10.26,-20.34 l 0.81,0.67 c -2.554,21.847 -2.718,96.405 -6.24,126.06 2.34,-10.97 4.06,-29.43 5.01,-41.51 0.01,0.66 0,1.31 -0.04,2.02 1.42,-4.16 2.13,-15.15 3.99,-19.96 1.77,15.47 3.55,31.11 3.55,31.11 0.07,-25.51 -1.26,-39.45 -2.5,-49.58 0.2,1 0.39,2.01 0.54,3.02 0.79,-2.32 4.04,-18.93 2.72,-22.16 -0.32,1.49 -0.71,2.98 -1.08,4.49 0.55,-2.27 0.95,-4.21 1.24,-5.91 0,0.07 -0.01,0.15 -0.01,0.22 2.26,1.43 3.67,-9.56 4.46,-19.33 3.42,-22.67 17.3,-76.84 17.3,-76.86 -0.02,0.46 -0.04,1.37 -0.06,1.83 0.13,-0.66 7.49,-16.55 15.99,-32.39 -3.7,7.56 -9.12,18.65 -9.16,18.75 1.73,-1.74 6.09,-7.38 11.11,-14.08 16.17,8.34 33,-28.82 33,-35.29 1.7,-4.13 2.61,-7.36 2.66,-8.12 -0.06,0.04 -0.14,0.1 -0.22,0.15 1.001,-0.777 5.836,-7.381 11.35,-18.9 4.86,-6.8 18.4,-22.27 18.95,-26.26 -1.79,1.94 -3.72,3.74 -5.63,5.56 2.9,-3.37 6.26,-7.68 9.82,-13.32 -0.92,1.79 -1.81,3.59 -2.62,5.43 0.33,-0.15 0.99,-0.47 1.32,-0.63 3.327,-4.115 31.077,-43.633 25.86,-47.4 -0.23,0.3 -0.45,0.59 -0.67,0.88 1.36,-1.92 2.46,-4.08 2.97,-6.85 -0.21,1.12 -0.41,2.23 -0.65,3.37 3.76,-3.52 13.31,-18.87 17.25,-28.96 -0.5,1.29 -1.01,2.54 -1.67,4 0.31,0.29 0.94,0.88 1.25,1.16 0.55,3.36 0.13,6.8 0.02,10.19 2.52,3.44 1.71,7.92 2.39,11.89 1.52,-1.37 2.17,-3.36 3.3,-5.01 -1.56,-6.06 -2.37,-12.25 -3.19,-18.43 1.58,10.72 5.05,31.36 10.63,44.64 -0.64,-1.52 -1.31,-3.04 -1.95,-4.55 -0.35,4.01 1.51,7.73 1.85,11.69 -2.67,3.87 -5.91,8.58 -9.86,14.36 4.18,-5.03 7.18,-8.68 9.46,-11.49 1.62,2.05 2.51,4.68 2.36,7.31 -2.16,3.54 -5.41,6.29 -7.75,9.71 6.377,-1.419 15.583,-17.531 18.63,-20.66 -0.96,4.27 -2.42,8.9 -4.34,13.47 0.31,-1.05 0.59,-2.11 0.91,-3.14 -0.29,0.14 -16.52,14.3 -16.64,14.41 8.15,-2.43 11.22,-8.63 14.19,-7.83 -4.6,9.64 -11.31,18.55 -19.98,22.68 0.04,0.11 0.14,0.32 0.18,0.43 20.55,-12.77 21.48,-23.05 27.06,-34.02 2.38,-1.68 3.15,-4.67 5.16,-6.68 0.56,1.54 1.01,2.77 1.41,4.51 -0.24,5.05 -0.85,10.05 -1.99,14.99 2.15,-2.23 3.21,-3.97 3.1,-7.6 0.01,0.08 0.02,0.15 0.03,0.23 0.88,-4.08 0.74,-8.41 -0.41,-12.43 -1.49,-7.06 10.3,-20.92 2.56,-47.45 0.2,0.55 0.49,1.34 1.11,3.36 0.34,-0.52 1.02,-1.56 1.36,-2.09 4.095,22.166 3.465,42.911 3.47,42.94 0.18,-0.3 0.56,-0.88 0.75,-1.17 1.3,-9.18 0.34,-18.49 0.62,-27.73 l -1,0.32 c -0.83,-13.509 -2.398,-16.24 -4.64,-53.05 0.02,0.83 0,1.66 -0.06,2.48 0.15,-2.741 -1.554,-15.141 -1.87,-22.17 0.1,0.99 0.26,1.97 0.47,2.92 0.44,-1.11 0.84,-2.23 1.23,-3.34 2.41,5.99 1.78,12.81 4.89,18.58 -0.13,-2.01 -0.33,-3.99 -0.55,-5.98 0.58,0.53 1.16,1.05 1.74,1.6 -2.32,-29.81 4.07,-17.99 7.72,-47.67 -0.39,0.74 -0.75,1.49 -1.1,2.25 1.99,-4.78 4.47,-10.38 6.62,-14.35 -0.04,0.13 -0.09,0.25 -0.13,0.38 0.85,6.25 -4.05,11.69 -3.62,18.01 10.76,-27.669 0.921,-4.531 12.49,-32.15 -0.2,0.54 -0.51,1.38 -1.11,2.92 2.11,2.04 -0.41,5.18 -0.19,7.7 9.76,-13.78 12.89,-12.71 16.99,-16.34 0.33,0.42 0.99,1.26 1.33,1.67 0.1,-0.06 0.23,-0.14 0.38,-0.23 -6.2,8.57 -11.97,17.22 -16.8,27.09 2.51,-6.62 5.37,-12.62 8.61,-17.68 -21.32,15.68 -22.7,86.22 -24.05,89.49 -2.9,-10.95 -3.5,-22.43 -6.92,-33.26 1.12,11.54 2.87,23.12 6.39,34.21 1.65,5.3 -1.84,39.15 1.01,47.21 -1.17,-11.84 -1.01,-32.34 1.23,-54.62 -0.02,1.74 -0.02,3.5 0,5.3 -6.11,73.3 9.29,60.16 6.87,96.64 0.21,-1.26 0.35,-2.53 1.03,-3.61 0.01,3.05 0.08,6.14 0.89,9.12 0.24,-1.81 0.57,-3.57 0.9,-5.34 0,72.942 -2.242,95.85 -6.647,104.659 0.34,-0.968 0.681,-1.936 1.021,-2.905 -4.648,8.15 -8.793,17.062 -13.662,24.935 -6.384,10.323 -93.416,94.359 -107.403,97.301 -24.64,14.56 -15.18,5.41 -26.31,18.26 -9.964,10.845 -20.013,65.051 -28.23,78.35 0.04,0.33 0.09,0.82 0.15,1.31 -0.06,-0.48 -0.12,-0.97 -0.16,-1.29 0,2.054 -0.355,3.82 -0.9,5.407 -1.034,0.711 -1.423,1.507 -1.943,2.628 -4.598,4.924 -7.495,11.357 -7.944,18.088 -0.204,0.458 -0.41,0.916 -0.591,1.38 -0.653,0.631 -1.018,1.542 -0.892,2.715 -0.595,2.265 -0.813,4.578 -0.43,6.888 -1.008,11.31 -4.4,20.775 -4.4,20.784 0.36,-0.79 0.71,-1.55 1.04,-2.3 -0.44,1 -28.18,71.197 -52.04,118.35 -3.84,4.81 -11.79,20.74 -11.97,22.33 0.15,-0.2 0.3,-0.41 0.46,-0.64 -6.674,11.662 -5.749,8.096 -12.94,17.4 0.12,-0.24 0.24,-0.47 0.34,-0.7 -9.86,8.64 -8.96,16.32 -7.29,17.64 0.97,2.74 1.41,5.85 3.71,7.89 -5.53,7.98 -4.94,7.44 -4.82,14.49 -14.138,7.355 0.127,2.784 -29.37,-0.92 6.5,0.81 17.15,3.4 17.97,3.48 -3.28,-2.91 -8.14,-3.09 -12.33,-3.45 -8.9,-0.32 -5.01,-5.56 -16.88,4.45 -9.68,6.34 -15.02,7.08 -16.73,17.87 -1.177,3.132 -5.951,14.199 -7.67,26.66 0.01,-0.17 0.03,-0.34 0.04,-0.51 -4.83,35.794 -5.207,33.328 -4.82,63.82 0.044,3.508 11.845,2.429 14.158,-1.079 13.899,-8.623 36.747,-17.795 48.133,-25.969 27.469,-19.62 28.828,-23.472 28.828,-23.472 -0.34,0.16 -0.75,0.41 -1.23,0.73 6.63,-5.368 26.763,-23.557 28.59,-30.52 1.15,-1.66 2.33,-3.43 3.58,-5.34 5.008,-1.46 12.084,-12.079 16.386,-16.543 10.513,-10.911 9.045,-2.726 17.65,-19.36 5.403,-10.443 19.504,-60.762 19.504,-61.967 -0.01,0.02 -0.02,0.04 -0.04,0.06 6.495,-17.738 13.602,-35.061 18.626,-53.325 -0.218,0.89 -0.435,1.78 -0.653,2.671 0,0 20.614,-44.853 32.307,-71.085 -0.33,0.96 -0.64,1.93 -0.93,2.89 2.8,-3.69 5.02,-7.96 6.05,-12.49 -0.44,0.49 -0.84,1.02 -1.22,1.55 1.5,-2.69 3.01,-4.84 4.92,-6.89 -0.48,0.64 -0.94,1.29 -1.36,1.99 21.413,-15.835 19.888,-16.306 28.23,-26.54 -2.14,2.72 -4.1,5.27 -5.74,7.52 5.962,-3.39 41.076,-50.856 51.89,-58.73 3.31,-0.31 10.79,-4.93 12.29,-8.1 -0.18,0.13 -0.37,0.25 -0.55,0.38 0.888,-0.625 1.35,-0.98 1.35,-0.98 4.317,-1.203 16.589,-10.441 27.896,-19.382 0.263,-0.022 0.522,-0.078 0.777,-0.168 -0.109,0.097 -0.226,0.201 -0.328,0.293 7.23,-4.193 25.629,-18.541 33.379,-27.125 -0.465,0.366 -0.936,0.736 -1.413,1.112 1.226,-1.711 12.023,-12.575 13.953,-12.81 7.088,-5.562 14.318,-10.548 15.727,-11.04 -14.27,17.09 -97.87,99.3 -104.16,112.28 0.001,0.072 0.007,0.147 0.008,0.219 -2.301,3.458 -0.16,16.959 0.972,20.011 l 0.136,-0.313 c 0.003,0.029 0.007,0.057 0.01,0.086 -1.984,6.287 2.263,20.538 4.834,21.597 17.936,88.175 17.85,93.47 17.85,93.47 0.333,1 18.981,150.419 29.12,175.9 0.94,8.27 18.5,11.15 27.31,8.7 11.67,7.02 7.43,5.04 31.899,12.26 1.062,0.313 0.278,16.37 0.873,19.072 2.34,10.629 11.225,19.676 21.781,22.247 -1.441,-0.247 -2.882,-0.494 -4.323,-0.741 21.723,3.722 15.707,9.311 59.617,4.354 1.202,0.321 4.914,-0.604 5.763,-0.952 -0.03,10e-4 -0.098,0.01 -0.169,0.01 0.164,-0.044 0.328,-0.091 0.492,-0.134 1.284,0.115 12.772,-1.041 16.146,-4.306 -0.04,0.01 -0.07,0.02 -0.11,0.02 4.682,-1.171 7.073,-4.348 8.12,-8.98 -0.337,-0.477 -0.666,-0.942 -1.001,-1.415 -0.241,-1.238 -2.651,-5.029 -5.171,-7.796 -24.322,-47.347 -67.158,-61.772 -84.718,-72.3 0.05,0.02 0.1,0.04 0.15,0.05 -6.592,-5.769 -11.087,-7.699 -20.61,-34.19 -8.167,-35.273 -6.394,-42.201 -11.42,-43.75 -0.206,-1.347 -0.504,-1.87 -1.703,-5.058 0.01,-0.061 0.012,-0.124 0.019,-0.186 0.045,0.117 0.087,0.219 0.133,0.344 0,-24.839 -18.774,-36.091 -6.89,-119.75 2.705,-7.093 33.782,-48.371 65.81,-80.674 -0.439,0.18 -0.878,0.361 -1.318,0.541 1.236,-0.495 25.85,-19.649 26.824,-20.412 52.575,-41.191 46.315,-48.655 88.38,-77.531 -0.332,0.556 -0.664,1.113 -0.995,1.67 107.168,-100.475 88.592,-94.184 93.699,-122.273 8.862,-36.886 10.23,-34.239 19.576,-44.866 1.416,-0.394 2.187,-1.535 2.36,-2.838 2.04,-1.73 4.012,-3.54 5.919,-5.424 36.152,-15.927 94.105,-10.385 164.257,0.131 189.653,28.429 290.336,-2.331 294.698,-6.693 2.78,-1.33 103.17,-26.44 118.27,-25.56 24.3,-3.92 22.34,5.12 26.08,6.4 3.158,11.913 21.451,7.66 48.25,9.78 0.177,0.089 8.33,2.446 8.52,2.5 1.48,1.17 3.45,1.37 5.25,1.81 22.49,4.79 16.58,12.21 24.27,21.51 4.27,5.83 9.24,11.19 12.53,17.69 6.3,10.1 15.18,29.01 19.06,29.76 6.948,15.042 14.081,32.29 24.71,47.61 2.041,6.665 18.815,35.107 26.946,48.521 0.01,0.082 0.022,0.164 0.034,0.246 -0.089,-0.147 -0.174,-0.286 -0.271,-0.446 0.06,3.15 3.82,11.16 6.88,13.13 -0.041,-0.094 -0.078,-0.178 -0.118,-0.27 0.659,0.923 1.377,1.803 2.148,2.639 4.047,7.894 7.637,14.992 10.231,20.165 0,0.256 0.028,0.51 0.074,0.766 -0.052,-0.069 -0.105,-0.145 -0.155,-0.209 0.214,2.061 4.314,12.242 7.214,17.675 0.215,1.075 0.814,1.667 1.525,2.544 16.758,23.073 29.104,32.663 36.021,50.771 1.647,3.003 3.252,8.682 5.741,10.973 5.021,17.575 4.484,7.522 22.819,46.717 0.098,1 32.441,98.044 56.115,106.473 13.726,4.886 21.546,2.251 31.433,16.085 8.879,12.424 -0.208,20.704 2.639,28.688 12.909,36.2 56.323,35.629 93.856,27.005 10.352,-2.379 31.676,-5.019 23.146,-11.23 -17.641,-25.523 -25.797,-38.599 -82.55,-78.1 0.719,0.466 1.441,0.936 2.162,1.404 -7.093,-5.195 -4.828,-4.068 -10.612,-7.125 0.576,0.416 1.146,0.842 1.73,1.251 -0.147,-0.095 -4.051,-2.583 -4.164,-2.717 -2.845,-1.902 -5.253,-3.698 -7.726,-6.213 -1.32,-2.934 -18.813,-33.417 -21.876,-34.137 -5.299,-9.664 -11.845,-21.96 -20.214,-37.813 0.22,0.41 0.47,0.87 0.63,1.16 2.06,-2.06 4.69,-4.09 4.44,-7.34 1.74,-2.4 3.49,-4.9 4.43,-7.73 0.14,-0.12 0.28,-0.23 0.43,-0.35 6.629,-22.741 9.786,-30.213 14.993,-41.18 -0.139,-0.513 0.491,-1.042 1.286,-2.67 -0.104,0.263 -0.187,0.503 -0.255,0.722 2.687,-3.027 1.67,-2.946 4.145,-5.806 18.553,-35.599 25.362,-39.644 8.51,-74.827 0.04,0.04 0.07,0.09 0.11,0.13 -0.06,-0.32 -7.29,-24.81 -8.24,-26.54 0,0 -0.207,1.131 -9.531,-47.49 -8.03,-41.878 1.481,-62.605 -10.293,-78.009 -48.04,-62.852 29.218,-9.604 -127.481,-102.482 0.612,0.127 1.229,0.228 1.853,0.269 -2.039,-0.146 -17.728,-13.071 -19.158,-14.518 -1.53,-2.78 -3.68,-5.25 -6.17,-7.17 -1.16,-1.64 -2.02,-3.13 -2.61,-4.49 -0.137,-6.001 2.416,-9.722 6.142,-14.372 26.928,-31.416 26.932,-23.327 34.878,-123.184 0.04,0.217 0.081,0.428 0.12,0.646 0.322,-44.655 -25.751,-63.907 -12.542,-112.203 -0.068,0.862 -0.135,1.724 -0.203,2.586 1.325,-9.832 35.627,-167.965 33.136,-177.571 0.717,-3.887 10.664,-68.838 20.679,-66.453 0.22,0.47 0.44,0.83 0.85,1.61 2.21,10.31 17.75,25.19 21.8,26.96 0.106,0.116 0.646,0.394 1.462,0.811 0.61,1 1.149,1.897 2.466,2.433 2.236,1.894 4.802,3.414 6.901,5.505 4.82,2.57 10.23,4.01 15.03,6.72 1.78,1.57 2.49,4.06 4.47,5.53 7.002,12.834 36.6,45.224 37.6,46.08 1.49,2.37 3.05,4.96 4.69,7.81 0.36,1.52 8.55,16.11 12.14,19.17 2.28,4.62 4.77,9.45 8.58,14.57 0.32,7.99 6.63,7.85 6.15,20.19 0.05,-0.28 0.11,-0.56 0.16,-0.85 -0.025,0.276 -0.052,0.558 -0.08,0.846 -0.271,0.361 -0.359,0.579 -0.46,0.891 -2.045,3.091 -6.805,23.624 10.6,28.702 1.48,0.57 3.57,0.68 4.1,2.52 8.25,18.1 15.59,10.11 25.4,11.62 21.948,15.081 50.811,-1.792 56.573,-11.191 0.59,-0.438 1.029,-0.859 1.42,-1.629 21.291,-16.058 32.449,-22.781 27.475,-42.678 0.078,0.242 0.158,0.482 0.252,0.718 2.909,-55.093 -23.074,-120.34 -40.95,-234.67 0,0.09 0,0.169 0.01,0.258 -0.137,-0.349 -0.302,-0.657 -0.5,-0.917 -0.83,-8.445 -2.437,-19.443 -3.696,-20.761 -0.233,-1.01 -13.42,-60.314 -16.79,-65.78 -0.224,-4.705 1.868,-12.3 0.69,-19.08 -0.109,-4.173 -1.941,-7.175 -2.58,-12.29 1.12,1.66 -0.76,3.16 4,8.43 -0.43,-0.45 -0.92,-0.98 -1.22,-1.29 1.213,6.932 4.21,16.31 4.21,16.31 0.23,-0.03 0.71,-0.09 0.94,-0.11 -1.49,-8.51 -1.29,-9.47 -0.9,-12.41 6.907,8.751 4.527,10.891 6.53,21.22 -0.19,-0.91 -0.37,-1.81 -0.51,-2.73 -0.9,4.36 -0.4,8.83 -0.23,13.23 1.32,-3.65 2.53,-7.58 1.82,-11.48 -0.1,0.39 -0.19,0.78 -0.29,1.17 0.42,-1.85 0.87,-4.84 0.34,-9.73 0.07,0.55 0.16,1.19 0.21,1.57 0.77,1.39 1.33,2.89 1.62,4.47 0.21,-0.02 0.64,-0.05 0.86,-0.07 -0.24,-1.93 -0.39,-3.86 -0.48,-5.79 3.05,0.8 6.21,1.35 9.35,0.63 -3.94,-1.197 -7.664,-2.694 -10.51,-5.43 -0.18,-4.01 -1.17,-8.09 -3.3,-11.51 -0.01,0.21 -0.02,0.41 -0.03,0.61 0.01,-0.2 0.02,-0.4 0.02,-0.61 -1.168,-2.844 -2.706,-4.977 -2.93,-5.49 1.99,-1.67 2.49,0.68 9.12,0.91 -0.65,-0.01 -1.49,-0.03 -1.96,-0.04 1.7,2.44 11.8,0.03 15.27,-0.32 -0.42,-0.36 -0.81,-0.71 -1.18,-1.05 5.14,4.06 9.03,8.48 10.97,11.97 -1.12,1.92 1.45,3.46 1.21,5.49 0.09,0.07 0.28,0.19 0.38,0.25 0.24,-7.1 -9.06,-19.39 -22.08,-26.91 4.79,-0.07 5.48,0.29 7.93,0.46 -0.13,0 -0.26,0 -0.38,-0.01 10.967,6.87 13.357,4.67 18.467,9.78 z M 562.316,1174.019 c 0.007,-0.017 0.013,-0.034 0.02,-0.052 10.493,-8.493 10.207,-8.255 -0.02,0.052 z M 1795.35,1139.01 c 3.866,71.218 -8.857,68.26 -0.33,79.16 0.17,0.93 0.33,1.86 0.48,2.79 -0.861,1.22 -3.057,3.569 -1.35,6.11 0.26,2.03 1.25,3.54 3.43,3.66 -1.86,3.32 -4.3,6.21 -6.77,9.08 -1.2,1.26 -1.46,5.15 -3.79,3.11 -0.62,-1.99 -0.31,-4.19 -1.31,-6.07 -0.78,-9.179 -1.559,-5.708 -2.32,-10.82 -0.85,-1.04 -1.64,-2.12 -2.23,-3.32 -6.27,-2.508 -4.033,-1.832 -7.529,-13.531 -77.626,-259.788 -38.274,-92.904 -74.331,-225.129 100.506,32.223 84.279,135.666 96.05,154.96 z" />
	<path
   id="path8"
   d="m 1552.386,69.274 c 0.01,0.006 0.014,0.011 0.021,0.017 0,-0.004 0,-0.007 -0.01,-0.011 0,-0.002 -0.01,-0.004 -0.014,-0.006 z" />
	<path
   id="path10"
   d="m 1552.386,69.274 c -1.517,-1.243 -3.207,-2.043 -5.106,-2.214 1.725,0.648 3.44,1.367 5.106,2.214 z" />
	<path
   id="path12"
   d="m 1994.56,151.51 c 0.63,-0.67 1.22,-1.4 1.74,-2.21 -0.54,0.75 -1.13,1.49 -1.74,2.21 z" />
	<path
   id="path14"
   d="m 1316.16,276.02 c 6.13,-0.43 12.28,0 18.44,-0.03 -4.21,-2.83 -8.77,-5.1 -13.12,-7.66 1.23,2.8 4.19,4.26 5.75,6.87 -3.65,0.83 -7.56,-0.5 -11.07,0.82 z" />
	<path
   id="path16"
   d="m 1353.35,232.86 c -2.28,-0.55 -4.6,-0.71 -6.91,-0.78 0.7,1.32 27.46,14.12 35.09,12.99 -7.594,-4.277 -23.91,-7.038 -28.18,-12.21 z" />
	<path
   id="path18"
   d="m 1338.09,228.93 c -6.7,-1.81 -23.99,-0.97 -32.14,-0.02 26.25,2.13 20.77,1.35 32.14,0.02 z" />
	<path
   id="path20"
   d="m 1292.29,244.61 c -9,-3.92 -20.33,-4.34 -28.48,1.77 14,-7.61 20.36,1.2 28.48,-1.77 z" />
	<path
   id="path22"
   d="m 1211.93,317.76 c 1.09,0.01 2.06,0.07 2.95,0.19 -0.93,-0.2 -1.9,-0.28 -2.95,-0.19 z" />
	<path
   id="path24"
   d="m 1143.93,391.17 c 10.84,-1.06 18.39,-1.38 23.93,-1.18 -12.01,-1.92 -22.38,0.94 -23.93,1.18 z" />
	<path
   id="path26"
   d="m 1137.91,505.14 c -4.18,1.52 -8.44,2.84 -12.64,4.3 0.49,0.39 1,0.81 1.51,1.22 5.39,-1.94 11.15,-3.19 16.87,-3.34 -1.96,-0.64 -3.9,-1.28 -5.74,-2.18 z" />
	<path
   id="path28"
   d="m 1114.67,411.87 c -0.05,1.69 -0.08,3.3 -0.1,4.86 0.08,-1.36 0.35,-2.62 0.72,-3.88 -0.22,-0.34 -0.44,-0.66 -0.62,-0.98 z" />
	<path
   id="path30"
   d="m 359.93,722.44 c 13.05,-0.49 8.73,-4.5 55.36,4.77 l 0.42,-0.21 c 8.86,2.58 18.04,3.85 27.09,5.49 2.1,-0.41 4.14,-1.03 6.21,-1.56 -58.092,-9.178 -51.017,-12.75 -89.08,-8.49 z" />
	<path
   id="path32"
   d="m 352.24,768.96 c -8.41,-1.04 -22.67,6.29 -26.85,10.72 3.54,-1.5 6.6,-3.98 10.27,-5.19 16.68,-5.54 15.85,-4.11 16.58,-5.53 z" />
	<path
   id="path34"
   d="m 336.3,1189.11 c -0.48,40.78 -5.83,39.63 -9.11,49.43 13.83,-18.26 10.58,-48.2 9.11,-49.43 z" />
	<path
   id="path36"
   d="m 293.43,916.12 c -0.63,0.52 -32.03,44.49 -32.87,46.88 9.73,-9.91 33.17,-44.56 32.87,-46.88 z" />
	<path
   id="path38"
   d="m 118.59,1324.67 c -1.31,1.37 -2.63,2.74 -3.94,4.11 1.22,3.8 -1.98,7.24 -1.82,11.09 1.38,-1.75 5.53,-13.21 5.76,-15.2 z" />
</g>
</svg>