<?xml version="1.0" encoding="UTF-8" standalone="no"?>
<svg
   xmlns:dc="http://purl.org/dc/elements/1.1/"
   xmlns:cc="http://creativecommons.org/ns#"
   xmlns:rdf="http://www.w3.org/1999/02/22-rdf-syntax-ns#"
   xmlns:svg="http://www.w3.org/2000/svg"
   xmlns="http://www.w3.org/2000/svg"
   height="1599.7622"
   width="1874.4158"
   xml:space="preserve"
   enable-background="new 0 0 1965.505 1677.153"
   viewBox="0 0 1874.4158 1599.7623"
   y="0px"
   x="0px"
   id="Layer_1"
   version="1.1"><metadata
   id="metadata9"><rdf:RDF><cc:Work
       rdf:about=""><dc:format>image/svg+xml</dc:format><dc:type
         rdf:resource="http://purl.org/dc/dcmitype/StillImage" /></cc:Work></rdf:RDF></metadata><defs
   id="defs7" />
<path
   id="path2"
   d="m 229.27273,28.254 c 2.343,-9.372 4.245,-18.84 6.388,-28.254 5.79,0.915 20.651,23.824 23.894,28.748 8.064,31.798 7.264,27.523 6.01,45.202 0.988,5.369 6.493,7.975 9.141,12.388 9.78,16.073 9.061,19.78 13.418,31.553 1.25,1.66 3.404,2.301 5.086,3.478 34.873,23.001 27.789,21.727 38.583,32.825 0.785,1 26.649,28.357 29.347,29.578 32.643,15.476 82.404,93.183 95.637,107.017 12.978,17.304 38.698,41.373 39.602,42.376 11.788,10.011 81.657,99.292 157.735,105.01 155.924,12.331 127.986,64.145 245.797,59.345 109.31497,8.574 362.86197,-81.509 423.35897,-67.236 84.716,18.747 168.095,42.943 168.095,42.943 91.369,15.969 194.843,152.928 219.36,216.292 12.607,30.395 5.994,23.073 13.176,48.428 0.762,2.922 11.315,26.099 14.899,30.03 0.094,0.641 0.284,1.933 0.378,2.574 -1.271,-0.82 -2.553,-1.66 -3.793,-2.448 0.799,1.03 1.618,2.049 2.469,3.079 -0.042,0.704 -0.116,2.101 -0.147,2.795 2.091,2.122 3.804,4.592 5.642,6.945 0.231,-0.546 0.683,-1.65 0.914,-2.207 -0.116,0.83 -0.326,2.501 -0.441,3.331 3.541,4.97 7.061,9.982 10.076,15.299 -2.333,-1.681 -4.308,-3.814 -5.926,-6.147 0.063,1.261 0.2,3.772 0.263,5.022 -0.42,-1.061 -0.82,-2.112 -1.198,-3.152 -1.366,-1.471 -3.036,-2.879 -3.226,-5.001 -2.406,-1.597 -3.656,-4.403 -5.842,-6.189 1.954,6.241 6.578,11.169 8.7,17.358 -1.471,-1.04 -2.805,-2.196 -4.003,-3.478 7.927,15.367 2.838,5.128 29.946,34.485 -7.607,-6.725 -14.889,-13.838 -22.769,-20.237 2.899,6.642 7.448,12.077 10.192,19.691 0.42,0.179 1.271,0.515 1.692,0.693 0.116,0.767 0.357,2.312 0.473,3.089 -2.122,-1.671 -4.276,-3.289 -6.378,-4.938 -0.431,0.126 -1.292,0.389 -1.723,0.515 -3.068,-3.583 -5.8,-7.46 -9.425,-10.507 1.229,5.18 4.928,9.141 8.605,12.777 0.21,0.515 0.62,1.545 0.83,2.059 -1.723,-1.177 -3.468,-2.385 -5.159,-3.53 -0.306,7.074 8.058,13.019 30.45,43.532 -3.074,-2.961 -12.92,-11.841 -31.7,-35.893 3.877,6.693 9.089,12.535 12.871,19.302 -3.583,-2.532 -6.714,-5.6 -9.667,-8.816 0.651,1.534 1.282,3.089 1.86,4.686 l 1.114,0.084 c -0.157,0.525 -0.473,1.576 -0.641,2.101 l 1.692,-0.021 c -0.168,0.536 -0.494,1.608 -0.651,2.144 l 1.597,-0.021 c -0.063,0.42 -0.189,1.25 -0.242,1.671 3.003,5.409 10.493,23.271 17.789,32.068 3.93,4.928 8.469,9.52 11.19,15.299 -1.957,-1.753 -18.745,-19.65 -24.156,-27.928 -1.082,-0.084 -2.143,-0.158 -3.173,-0.21 0.42,1.198 0.872,2.406 1.355,3.625 -0.395,13.633 3.241,14.661 4.707,18.714 24.478,22.284 22.169,17.079 25.501,23.494 -12.285,-8.231 -20.302,-17.983 -27.382,-20.888 0.315,0.483 0.967,1.429 1.292,1.912 8.865,33.449 7.53,11.586 33.518,44.572 -5.018,-2.854 -19.725,-18.693 -27.371,-23.4 0.137,1.166 0.305,2.354 0.483,3.551 l 1.145,0.053 c -0.126,1.387 -0.221,2.795 -0.305,4.213 h 1.229 c 0.315,2.165 -0.935,5.065 1.04,6.735 0,0.315 0,0.967 0,1.292 7.866,20.592 26.695,60.949 26.741,61.089 -8.168,-15.599 -30.415,-56.751 -34.212,-70.693 2.092,32.461 43.372,91.781 56.214,113.395 -32.257,-48.62 -32.336,-45.033 -52.368,-87.053 3.902,10.966 20.023,46.655 26.667,56.067 -0.01,0.672 0,1.366 0.042,2.07 0.515,0.368 1.566,1.093 2.091,1.461 0.073,1.681 0.126,3.352 0.252,5.064 -8.457,-14.498 -3.996,-7.793 -12.861,-15.572 0.458,1.007 17.406,38.265 18.272,41.241 -4.644,-9.32 -8.994,-18.829 -14.416,-27.708 -0.83,-0.116 -2.49,-0.336 -3.32,-0.452 1.755,2.963 3.289,6.105 4.014,9.509 -3.425,-5.937 -5.684,-12.609 -10.255,-17.82 11.382,44.566 21.353,51.31 24.261,56.508 -2.238,-1.891 -4.382,-3.919 -6.536,-5.863 4.571,13.229 9.982,26.153 14.668,39.36 -7.924,-17.174 -15.624,-41.732 -21.635,-47.598 22.488,88.604 7.213,45.111 40.369,122.21 -28.824,-54.863 -43.073,-88.917 -52.148,-113.489 6.041,21.44 42.481,103.197 42.786,104.201 -5.51,-7.669 -0.496,-4.133 -10.129,-12.199 -1.103,-0.116 -2.196,-0.231 -3.257,-0.326 0.084,1.397 0.179,2.805 0.305,4.234 -2.585,-1.009 -4.854,-2.648 -6.462,-4.896 0.074,1.313 0.21,3.951 0.284,5.264 l 1.156,-0.052 c -0.042,1.229 -0.063,2.469 -0.052,3.73 0.778,0.609 2.343,1.839 3.121,2.448 -0.767,0.073 -2.322,0.231 -3.1,0.315 -0.462,-0.504 -1.387,-1.502 -1.849,-2.007 0.462,1.093 0.935,2.196 1.397,3.32 0.431,0.483 1.313,1.45 1.755,1.923 -0.158,0.452 -0.462,1.334 -0.609,1.776 l 1.723,-0.179 c -0.137,0.809 -0.42,2.438 -0.557,3.247 l 1.681,-0.074 c -0.189,0.567 -0.557,1.681 -0.746,2.238 l 1.313,-0.116 c 0.594,8.128 19.107,48.256 24.587,59.482 -4.665,-7.492 -8.679,-15.372 -13.197,-22.937 0.567,3.026 1.271,6.073 1.513,9.173 -0.767,-1.25 -1.513,-2.48 -2.249,-3.699 -1.059,10.587 18.105,41.899 19.228,49.311 -12.055,-18.503 -31.028,-57.422 -31.028,-57.422 2.788,15.2 17.315,43.496 24.608,56.582 l -0.62,0.336 c -7.286,-13.89 -18.379,-32.029 -19.932,-34.044 0.121,7.199 7.062,27.023 6.494,34.884 l 1.135,0.052 c -0.084,1.734 -0.179,3.467 -0.21,5.243 l 1.303,-0.042 c -0.105,1.765 -0.221,3.509 -0.273,5.317 l 1.313,-0.063 c -0.095,1.219 -0.147,2.459 -0.158,3.72 2.101,2.186 0.683,5.705 1.208,8.458 0.935,1.408 1.114,3.058 0.378,4.634 -0.063,-0.883 -0.179,-2.648 -0.231,-3.53 l -1.513,0.273 c 0.179,-0.557 0.557,-1.681 0.735,-2.238 l -1.618,0.137 c 0.063,-1.355 0.147,-2.69 0.252,-4.014 -2.627,0.179 -2.196,-2.249 -2.364,-4.024 -1.229,-1.66 -0.809,-3.825 -0.872,-5.716 l -1.156,-0.042 c 0.063,-1.776 0.105,-3.562 0.242,-5.306 l -1.313,0.221 c -0.094,-3.352 1.177,-7.408 -1.975,-9.772 0.323,45.864 12.218,60.745 32.047,109.255 -8.626,-17.516 -17.453,-34.937 -25.722,-52.631 -0.157,3.11 -0.168,6.262 0.053,9.394 1.16,2.238 1.441,12.745 3.299,16.927 22.828,55.679 38.657,82.49 47.398,103.875 -16.064,-28.429 -50.117,-99.83 -50.981,-106.397 0.031,2.48 0.326,4.98 1.04,7.397 -0.61,16.464 9.742,24.514 8.563,39.875 -0.651,-1.198 -1.282,-2.396 -1.881,-3.562 -0.157,1.313 -0.546,2.795 0.862,3.72 -0.063,0.378 -0.189,1.135 -0.252,1.513 l 1.051,0.137 c 2.028,7.87 6.115,15.078 8.511,22.811 -0.495,6.153 25.212,52.386 25.774,53.388 -26.023,-38.422 -37.174,-70.309 -39.444,-75.884 -0.313,11.177 13.881,38.811 13.859,43.71 -4.466,-9.131 -7.681,-18.797 -11.821,-28.065 -1.66,7.922 4.445,14.185 5.916,21.571 -1.933,-2.921 -2.28,-7.113 -5.495,-8.952 3.142,39.516 -2.622,20.303 26.709,74.129 -9.015,-10.759 -15.582,-23.337 -22.538,-35.483 -6.383,9.349 10.369,27.646 40.317,65.544 -13.496,-13.597 -41.619,-47.908 -44.068,-53.608 0.116,0.693 0.357,2.091 0.473,2.784 5.727,5.947 8.07,14.132 13.554,20.258 0.084,0.662 0.263,2.007 0.347,2.679 -4.55,-6.977 -11.18,-12.525 -14.216,-20.468 0.052,2.007 0.189,4.024 0.399,6.063 l -1.124,-0.021 c 0.273,5.233 -0.714,10.528 0.074,15.729 3.719,6.147 8.091,11.936 12.672,17.484 -1.303,-1.04 -3.909,-3.11 -5.212,-4.151 12.304,20.636 28.034,38.877 42.87,57.674 -0.897,-1.014 -42.301,-46.323 -50.561,-64.767 -0.147,1.629 -0.462,3.247 -0.946,4.844 2.049,7.04 7.418,12.661 8.91,19.901 -3.594,-4.77 -6.178,-10.171 -9.572,-15.036 -0.21,2.595 -1.04,5.411 -0.116,7.954 3.457,4.707 6.672,9.667 10.938,13.722 0.809,1.713 1.776,3.373 2.869,4.97 0.315,1.114 0.62,2.249 0.914,3.415 -0.988,-1.261 -1.933,-2.574 -2.816,-3.825 -0.135,4.202 1.461,4.593 21.015,32.919 -21.439,-23.717 -48.922,-69.863 -48.922,-69.863 -1.965,-4.245 -4.371,-8.259 -6.83,-12.22 1.376,3.377 12.401,26.182 31.658,54.848 -4.129,-4.129 -7.481,-8.952 -11.411,-13.25 -0.021,2.08 0.515,4.234 1.324,6.199 -5.264,-6.378 -9.467,-13.628 -13.302,-20.931 -2.333,2.186 0.662,4.896 0.704,7.46 0.252,0.01 0.777,0.042 1.03,0.053 -0.126,1.376 -0.284,2.721 -0.368,4.14 l 0.935,0.147 c 3.811,5.611 2.859,4.05 3.751,8.427 -0.231,-0.021 -0.683,-0.063 -0.914,-0.084 -0.243,-2.349 -7.553,-9.957 -7.964,-14.101 -0.725,0.756 -1.418,1.534 -2.08,2.343 1.807,2.942 3.698,5.884 5.033,9.11 -11.8,-17.158 -23.936,-34.306 -32.32,-53.461 -0.452,0.2 -1.366,0.599 -1.818,0.799 -0.053,-0.547 -0.158,-1.65 -0.221,-2.207 -0.672,-1.524 -1.261,-3.016 -1.902,-4.497 -0.41,3.625 0.567,7.156 2.459,10.266 -0.704,0.095 -2.112,0.284 -2.816,0.378 0.168,-0.578 0.494,-1.734 0.662,-2.301 l -1.503,0.094 c 0.158,-2.385 0.095,-4.791 -0.578,-7.082 -0.294,2.553 -0.515,5.138 -0.662,7.733 -0.476,-1.106 -12.249,-36.28 -13.386,-41.609 -0.544,39.205 37.262,88.672 45.665,106.512 -10.345,-14.616 -19.574,-26.549 -37.605,-62.487 -0.126,2.322 0.294,4.529 1.25,6.641 0.01,1.166 0.042,2.354 0.074,3.562 -0.841,-2.301 -1.513,-4.644 -1.996,-7.008 -1.45,-1.597 -2.721,-3.362 -3.31,-5.443 l -0.494,-0.084 c -1.103,-2.354 -2.343,-4.613 -3.783,-6.735 -0.347,-1.208 -0.662,-2.406 -0.935,-3.583 l -0.651,-0.137 c -0.326,-0.609 -0.977,-1.839 -1.303,-2.459 0.021,-0.672 0.073,-2.017 0.094,-2.69 l -1.072,-0.094 c -0.568,-2.396 -1.103,-4.823 -1.313,-7.25 l -1.019,-0.063 c 0,-0.641 -0.01,-1.933 -0.01,-2.574 -1.404,-2.724 -7.013,-23.894 -9.32,-27.235 0.042,-0.662 0.105,-1.986 0.137,-2.648 l -1.219,0.105 c -0.188,-3.692 -2.571,-11.186 -3.089,-12.199 0.021,-0.651 0.063,-1.954 0.084,-2.606 l -1.198,0.105 c -0.179,-1.66 0.231,-3.457 -0.904,-4.813 -0.294,-3.593 -0.609,-7.187 -1.271,-10.717 0.651,8.952 -1.471,18.083 0.914,26.878 1.061,6.031 -1.503,11.999 -0.893,18.104 -0.998,-4.896 -1.576,-9.866 -2.017,-14.826 -1.03,-0.483 -2.049,-0.946 -3.037,-1.387 -1.335,-12.345 -16.249,-56.989 -18.104,-79.467 l -0.904,-0.126 c -0.02,-4.293 -8.153,-51.736 -8.332,-51.938 -0.147,-2.133 0,-4.308 -1.04,-6.21 0.146,-11.237 -1.557,-13.786 -2.564,-20.363 -0.284,2.217 -0.525,4.455 -0.799,6.693 0.753,-4.646 -23.52,-97.768 -23.778,-98.768 -3.482,-13.315 -18.21,-38.893 -25.68,-62.35 -2.963,-8.795 -5.201,-17.852 -8.595,-26.489 -0.315,2.354 -0.441,4.728 -0.609,7.114 0,0 -4.663,-25.974 -5.348,-28.485 l -2.228,0.073 c 0.137,3.982 0.094,7.965 0.147,11.957 -0.967,-3.079 -3.509,-5.737 -3.016,-9.12 -0.483,-0.483 -1.439,-1.439 -1.923,-1.923 -17.135,-39.964 -16.361,-79.325 -30.86,-121.285 -18.832,-52.341 -1.12,-224.886 -1.072,-225.896 -0.315,-0.62 -0.967,-1.87 -1.282,-2.49 -0.851,0.021 -2.564,0.074 -3.425,0.095 -4.382,6.723 -18.576,61.276 -18.619,62.277 -0.189,-0.599 -0.347,-1.177 -0.483,-1.755 -0.725,4.814 -33.893,163.991 -21.361,190.644 66.434,138.558 113.116,138.715 105.535,191.705 -4.767,34.806 51.082,295.553 50.593,310.984 -0.946,8.297 -36.773,28 -23.515,64.651 -0.494,0.105 -1.482,0.315 -1.975,0.41 -0.189,-1.681 -0.347,-3.352 -0.851,-4.928 -0.116,1.061 -0.336,3.173 -0.441,4.234 23.821,25.415 12.502,53.732 -7.019,61.436 -14.167,3.539 -67.34,1.919 -85.834,-6.567 1.288,-5.896 14.354,-27.014 18.198,-32.089 -0.063,-5.727 2.238,-12.346 7.219,-15.288 -1.482,2.007 -2.543,4.214 -3.205,6.609 l -0.788,0.052 c -0.042,1.881 -0.116,3.751 -0.137,5.674 -0.589,-0.2 -1.755,-0.599 -2.343,-0.799 0.158,0.525 0.462,1.566 0.62,2.08 0.389,0.095 1.145,0.273 1.534,0.368 0.672,-1.702 1.366,-3.373 2.08,-5.044 0.063,-1.429 0.147,-2.837 0.252,-4.224 1.45,-2.27 3.289,-4.581 3.11,-7.429 11.502,-13.496 22.247,-31.395 21.088,-49.153 0.089,-9.706 2.294,-32.449 2.291,-32.467 -2.65,-10.423 -6.756,-4.896 -7.029,-30.681 -0.029,-1.019 -12.241,-142.358 -47.882,-188.227 -3.12,-4.671 -19.086,-20.013 -23.431,-31.375 -4.63,-12.336 -1.297,-19.692 -19.932,-43.048 -7.01,-8.553 -17.449,-27.821 -28.065,-39.381 -0.746,-1 -21.028,-25.258 -23.578,-28.895 -28.066,-39.95 -23.871,-42.55 -41.682,-63.758 0.2,0.525 0.578,1.566 0.767,2.091 -0.231,0.399 -0.704,1.198 -0.935,1.597 2.683,8.338 10.535,92.819 10.591,93.819 0.624,18.872 13.139,69.771 4.886,80.622 -17.267,22.154 -102.509,272.591 -104.106,282.677 -9.125,55.353 -31.714,10.831 -62.319,45.791 -3.949,3.922 2.306,10.705 1.187,19.417 -12.385,31.38 -39.322,19.852 -80.444,20.762 2.091,-0.305 4.182,-0.578 6.304,-0.82 -11.526,-0.946 -23.788,0.294 -34.495,-4.907 3.865,-10.42 22.523,-32.479 22.549,-32.552 11.925,-24.374 56.005,-29.116 80.475,-76.419 14.767,-36.83 35.698,-76.382 42.596,-95.227 8.759,-20.466 12.156,-40.115 18.84,-56.645 0.935,-1.103 2.984,-2.637 0.977,-3.846 0.589,-3.762 2.953,-6.861 4.067,-10.434 9.502,-28.188 2.34,-37.892 -15.33,-195.835 -10.991,-67.092 -55.642,-189.636 -57.317,-235.405 -3.79,1.434 -23.59,14.504 -31.89,17.463 -14.704,3.676 -12.013,-30.13 -59.786,-10.812 -97.869,38.274 -97.963,50.503 -187.271,72.721 -64.07897,18.556 -74.25297,11.818 -88.00897,14.363 -22.35,1.342 -25.85,9.783 -103.129,5.548 0,0 -80.926,-1.355 -80.927,-1.355 -27.135,-1.539 -31.589,-2.888 -37.143,1.534 -0.454,14.846 76.355,260.632 77.47,272.643 -0.079,1 -5.28,28.823 0.693,46.137 2.552,6.356 27.193,98.151 41.493,122.042 6.199,13.491 13.87,27.781 11.295,43.143 -5.855,16.215 -30.482,40.098 -30.408,63.569 29.885,19.882 9.28,59.291 -39.203,52.736 -79.704,-0.849 -58.105,2.612 -26.762,-42.25 2.186,-3.121 1.944,-7.334 4.382,-10.276 33.067,-42.346 21.877,-56.705 29.063,-95.595 -1.081,-12.239 -18.974,-63.014 -20.983,-77.586 -0.1,-1.001 -5.52,-29.76 -15.393,-42.849 -17.354,-14.034 -70.308,-143.439 -75.558,-153.511 -6.255,-13.708 -27.582,-48.354 -29.914,-59.419 -1.972,-12.626 -37.583,-74.678 -69.39,-94.849 -0.389,-0.672 -1.156,-2.017 -1.534,-2.69 -13.485,26.15 -35.05,248.961 -37.28,275.448 -0.93,11.857 2.361,5.355 -11.033,27.245 -28.326,63.077 -14.001,122.064 -36.607,214.285 -3.457,4.035 -9.047,5.684 -14.174,6.315 -18.957,10.647 -17.123,7.278 -32.804,24.23 -1.651,7.598 8.522,13.6 -3.877,32.562 0.368,2.837 0.441,5.716 0.105,8.574 -13.535,7.813 -100.014,2.511 -104.442,1.639 0.315,-2.7 -0.294,-5.895 1.849,-7.985 2.282,-2.321 22.233,-25.95 21.897,-30.482 39.548,-40.027 82.123,-35.327 96.972,-172.53 3.47,-43.23 7.791,-56.781 2.564,-70.262 -7.229,-72.977 13.391,-182.999 -9.971,-283.917 -11.428,-35.381 -4.163,-64.424 -3.142,-79.719 0.462,-2.133 -1.492,-3.457 -2.963,-4.487 -22.08,-14.275 -51.083,-76.472 -55.815,-101.479 -3.394,-18.115 -15.088,-33.413 -18.335,-51.549 -1.366,-14.847 3.583,-29.326 3.72,-44.131 9.697,-77.44 -14.942,-72.016 -30.009,-103.896 -59.387,-104.356 -53.119,-224.777 -90.173,-258.542 -4.308,-4.791 -9.898,-8.248 -13.954,-13.281 -25.437,4.52 -22.838,11.035 -39.549,17.736 -21.551,8.554 -26.656,4.997 -49.92,10.066 -27.833002,10.542 -18.915,21.141 -29.126002,30.45 -11.766,10.541 -39.651,5.508 -49.258,-3.625 -31.099,-1.929 -23.632,-8.95 -37.7950003,-38.225 -2.041,-19.582 4.055,-6.631 -4.00300003,-36.723 -2.86699997,-28.129 5.08200003,-18.17 14.89900033,-31.144 16.477,-21.922 82.249,-74.449 79.824,-107.994 -1.786,-0.084 -3.572,-0.179 -5.359,-0.294 11.323002,-9.436 3.449,-12.761 9.005,-19.428 10.055002,-13.347 59.564002,-59.966 61.510002,-61.573 6.079,-3.819 -10.121,-22.842 -10.949,-38.015 -0.889,-17.351 -8.021,2.628 3.583,-61.11 0.578,-2.48 1.324,-5.401 3.688,-6.746 6.676,-0.596 18.989,11.355 22.423,30.996 2.879,18.042 22.978,38.781 24.482,49.804 5.779,-1.671 11.19,-5.138 17.379,-5.012 27.959,7.701 2.973,-8.29 5.537,-40.716 0.987,-5.977 1.618,-12.009 2.658,-17.987 M 1595.8697,915.352 c 0.24,18.003 7.621,58.484 10.308,60.69 0.572,-9.02 -1.843,-30.664 -2.038,-34.453 -1.879,-4.134 -1.898,-4.658 -1.765,-8.101 l -1.471,0.252 c 0.168,-0.546 0.494,-1.618 0.662,-2.164 l -1.492,-0.042 c 0.053,-1.755 0.084,-3.509 0.189,-5.243 l -1.292,0.021 c 0.063,-1.744 0.105,-3.488 0.231,-5.212 l -1.25,-0.063 c 0.052,-1.744 0.073,-3.499 0.168,-5.212 -0.558,-0.116 -1.682,-0.358 -2.25,-0.473 m 176.47,59.019 c 0.977,3.257 2.259,6.42 3.677,9.53 1.061,1.461 -0.305,3.615 0.946,4.949 1.366,0.809 1.912,2.175 1.87,3.751 l 0.935,-0.231 c 1.912,7.166 4.508,15.225 11.327,19.27 -0.699,-1.395 -18.192,-35.814 -18.755,-37.269 m -148.972,7.628 c 0.011,2.921 -0.672,6.105 0.757,8.826 -0.031,8.269 2.333,16.297 3.425,24.45 0.925,-8.679 -1.482,-17.179 -2.385,-25.722 l -1.082,0.084 c 0.157,-2.573 0.041,-5.169 -0.715,-7.638 m -10.539,9.11 c -1.33,21.835 6.442,26.141 2.742,40.148 l 1.271,0.242 c 0.504,11.474 4.602,22.454 6.767,33.697 0.893,-1.124 2.469,-2.112 1.912,-3.814 -0.709,-22.45 -2.694,-43.535 -12.692,-70.273 m 162.359,33.213 c 1.093,5.327 1.755,11.232 5.317,15.582 -1.566,-5.263 -3.027,-10.591 -5.317,-15.582 m 11.662,17.926 c 0.746,3.814 1.292,8.133 4.497,10.802 -1.523,-3.605 -2.878,-7.261 -4.497,-10.802 m -147.354,44.309 c 9.14,28.75 10.029,36.056 24.619,65.786 0.063,-1.082 0.178,-3.247 0.242,-4.329 l -1.261,-0.01 c 0.052,-1.744 0.084,-3.488 0.189,-5.201 l -1.082,-0.105 c 0.189,-6.599 -1.965,-12.945 -3.373,-19.302 -1.45,-2.49 -2.154,-5.285 -1.87,-8.143 l -1.345,0.221 c 0.147,-0.82 0.441,-2.459 0.588,-3.278 l -1.524,0.074 c 0.105,-1.45 0.231,-2.89 0.378,-4.308 l -1.135,0.084 c -1.261,-8.595 -5.548,-16.37 -7.943,-24.661 0,10e-4 7.828,40.368 7.828,40.369 -1.545,-3.305 -18.011,-66.638 -18.198,-67.646 1.156,10.149 0.515,20.646 3.887,30.449 m 146.577,-27.96 c -2.079,11.722 11.567,43.711 15.771,51.402 -2.285,-8.466 -11.678,-43.127 -15.771,-51.402 m -7.565,16.833 c 0,0 13.457,34.689 16.076,49.605 -0.672,0.116 -2.038,0.347 -2.711,0.462 0.389,0.105 1.177,0.326 1.566,0.431 3.194,12.84 11.863,23.505 21.719,31.995 -2.49,-6.367 -6.168,-12.178 -8.837,-18.461 -1.103,0.042 -2.154,0.126 -3.205,0.21 -0.252,-1.629 0.116,-3.499 -1.145,-4.76 0.063,-0.441 0.2,-1.313 0.263,-1.755 l -1.261,0.189 c -1.464,-8.645 -22.217,-57.859 -22.465,-57.916 m 31.91,133.768 c -0.389,-5.895 -3.73,-11.138 -3.772,-17.137 -2.332,6.01 1.576,11.757 3.772,17.137 m -16.759,-6.63 c -0.976,17.145 0.293,6.943 6.304,24.976 -1.548,-9.641 -1.275,-9.217 -4.623,-20.458 h -0.767 c -0.304,-1.534 -0.578,-3.026 -0.914,-4.518 m -1.513,21.729 c 1.292,5.348 2.553,10.717 4.329,15.939 0.799,12.388 6.357,23.725 8.763,35.798 -1.21,-16.17 -7.238,-35.569 -13.092,-51.737 m 7.397,43.08 c 4.804,32.991 4.283,36.564 9.803,39.014 -0.441,-15.484 -6.614,-26.461 -9.803,-39.014 m -94.25,30.481 c -0.089,10.195 13.545,62.12 12.367,69.327 -1.639,-7.166 -2.984,-14.427 -5.191,-21.445 -0.431,9.802 9.501,46.313 11.589,51.297 0.179,-2.921 0.042,-5.842 -0.074,-8.753 0.252,0.032 0.746,0.105 0.998,0.147 0.875,4.246 0.945,2.93 2.722,11.148 0.672,3.037 0.735,6.178 1.345,9.257 1.572,-11.968 -9.781,-77.723 -9.372,-86.233 -0.946,-1.66 -1.639,-3.425 -2.101,-5.233 l -0.61,-0.168 c -0.065,-0.642 -11.32,-29.445 -11.936,-30.681 0.042,-0.725 0.115,-2.154 0.158,-2.868 -2.27,4.57 0.242,9.446 0.105,14.205 m 96.268,66.165 c 0.83,7.313 3.089,14.49 2.637,21.929 l -1.082,0.588 c -0.189,-1.03 -0.546,-3.089 -0.725,-4.119 -1.196,3.505 2.63,17.734 2.889,18.734 l 0.704,0.189 c 0.21,2.101 0.494,4.192 0.925,6.294 0.778,-6.609 -0.431,-13.187 -0.904,-19.743 -0.315,-0.021 -0.946,-0.053 -1.261,-0.073 2.254,-18.132 -4.555,-30.641 -6.262,-37.658 0.536,4.707 1.545,9.362 3.079,13.859 m -20.416,-0.242 c -0.378,0.809 -1.135,2.417 -1.503,3.226 0.725,0.725 1.345,1.408 2.091,2.228 0.914,4.529 1.177,9.215 2.848,13.575 1.376,4.297 4.486,7.891 5.191,12.441 h -1.744 c 0.105,-0.568 0.315,-1.702 0.42,-2.259 l -1.103,-0.158 c -0.326,-1.576 -0.672,-3.121 -1.124,-4.613 -0.521,13.716 7.073,25.985 11.726,34.947 -0.599,-2.448 -1.261,-4.886 -1.755,-7.334 0.946,-0.021 2.837,-0.063 3.772,-0.084 -1.124,1.933 0.347,3.625 1.25,5.201 1.166,3.394 0.63,7.103 1.818,10.528 -0.151,-7.012 0.383,-17.338 -5.558,-16.57 0.063,-1.366 0.147,-2.711 0.263,-4.035 l -1.114,-0.021 c -0.63,-7.46 -2.627,-15.025 -6.283,-21.582 -0.031,-0.294 -0.084,-0.904 -0.116,-1.198 -2.707,-5.106 -2.126,-6.106 -5.149,-11.432 0.032,-0.399 0.105,-1.208 0.147,-1.618 l -1.124,0.032 c -0.599,-2.112 -1.261,-4.203 -1.881,-6.273 -0.042,-1.744 -0.631,-3.372 -1.072,-5.001 m -47.461,21.414 c -1.571,8.841 6.818,36.279 9.572,47.125 -3.765,-18.528 -4.753,-33.105 -9.572,-47.125 m 12.22,0.557 c 0.637,5.111 11.551,63.196 14.122,66.984 0.143,-2.722 -10.268,-53.914 -14.122,-66.984 m 64.336,11.841 c -0.651,9.268 -0.515,19.249 4.98,27.193 -0.504,-7.67 -1.271,-15.32 -2.301,-22.916 -0.704,-1.566 -1.629,-2.984 -2.679,-4.277 m -42.502,40.075 c 8.339,28.935 14.542,30.866 12.041,35.283 4.563,1.308 8.64,16.132 15.193,25.753 -1.361,-3.884 -27.115,-55.608 -31.953,-82.451 0.222,7.367 2.712,14.396 4.719,21.415 m -19.376,-4.98 c -0.168,2.616 -0.147,5.264 0.032,7.912 2.69,7.219 3.772,15.488 7.555,22.044 -0.304,-3.707 -4.612,-27.934 -7.587,-29.956 m 34.401,5.075 c 0.01,0.013 7.418,16.738 7.418,16.738 0.021,0.599 0.053,1.797 0.073,2.385 l 0.904,0.158 c 1.24,5.06 8.992,24.108 14.531,34.285 -0.417,-24.336 -5.404,-19.234 -22.926,-53.566 m -15.95,6.903 c 3.94,20.531 12.913,39.655 22.034,58.326 2.101,-1.355 -0.084,-3.278 -0.693,-4.844 -8.638,-17.19 -14.332,-35.62 -21.341,-53.482 m 28.412,2.7 c 0.662,0.358 0.662,0.358 0,0 m 24.755,11.569 c 0.231,-3.699 -0.693,-7.281 -2.312,-10.57 -0.63,3.751 -0.052,7.491 2.312,10.57 m -9.562,3.152 c 0.221,-3.236 -0.578,-6.357 -2.143,-9.152 -0.441,3.215 0.967,6.221 2.143,9.152 m 2.585,1.271 c -0.988,0.778 -0.494,3.184 0.946,3.068 0.935,-0.83 0.462,-3.257 -0.946,-3.068 m -56.592,0.725 -0.525,0.557 0.473,0.841 0.967,0.01 0.41,-0.841 c -0.327,-0.146 -0.999,-0.419 -1.325,-0.567 m 61.331,10.077 c 1.082,2.711 2.333,5.348 2.585,8.343 1.187,-6.378 0.767,-13.334 -2.826,-18.924 0.357,3.52 -0.043,7.061 0.241,10.581 m -5.39,-3.594 c 0.862,3.415 0.841,6.945 1.019,10.465 0.589,-3.604 0.347,-7.261 0.231,-10.865 -0.305,0.096 -0.935,0.295 -1.25,0.4 m -20.405,32.079 c 2.753,6.704 6.861,12.808 8.921,19.806 0.704,-0.693 1.418,-1.387 2.143,-2.07 -0.326,-0.904 -0.977,-2.711 -1.303,-3.615 l -0.777,0.084 c -2.003,-9.157 -5.036,-9.3 -17.211,-34.464 1.88,7.062 5.453,13.524 8.227,20.259 m 15.466,-19.176 c -0.135,6.391 -3.296,12.318 13.218,35.021 -0.135,-4.693 1.667,-9.874 -9.152,-25.953 -0.892,-3.215 -2.164,-6.336 -4.066,-9.068 m -16.696,21.866 c 0.084,1.24 0.851,3.247 2.364,3.268 0.589,-1.23 -0.819,-4.55 -2.364,-3.268 m 14.269,9.425 c 0.273,0.263 0.273,0.263 0,0 z" />
</svg>