<?xml version="1.0" encoding="UTF-8" standalone="no"?>
<svg
   xmlns:dc="http://purl.org/dc/elements/1.1/"
   xmlns:cc="http://creativecommons.org/ns#"
   xmlns:rdf="http://www.w3.org/1999/02/22-rdf-syntax-ns#"
   xmlns:svg="http://www.w3.org/2000/svg"
   xmlns="http://www.w3.org/2000/svg"
   height="1253.8842"
   width="2560.2368"
   xml:space="preserve"
   enable-background="new 0 0 2661.718 1319.416"
   viewBox="0 0 2560.2368 1253.8841"
   y="0px"
   x="0px"
   id="Layer_1"
   version="1.1"><metadata
   id="metadata11"><rdf:RDF><cc:Work
       rdf:about=""><dc:format>image/svg+xml</dc:format><dc:type
         rdf:resource="http://purl.org/dc/dcmitype/StillImage" /></cc:Work></rdf:RDF></metadata><defs
   id="defs9" />
<g
   transform="translate(-50.859636,-33.075066)"
   id="g4">
	<path
   id="path2"
   d="m 2329.294,729.162 c -103.306,6.42 -241.946,36.027 -320.203,44.052 -150.534,15.439 -207.319,-90.764 -356.304,-35.081 -188.246,70.357 -225.487,109.873 -394.113,140.197 -108.116,19.444 -216.182,36.302 -334.238,40.177 -52.45,1.722 -140.503,64.505 -181.328,95.082 -43.072,32.26 -83.107,64.94 -149.143,75.031 -53.939,8.243 -152.569,5.97 -202.868,-1.574 -9.356,-1.403 -13.849,4.183 -18.396,9.634 -126.737,151.889 -123.387,169.206 -156.472,185.251 -37.131,18.007 -68.428,-15.666 -55.718,-48.536 27.268,-70.523 136.833,-182.689 142.636,-189.208 4.4,-4.943 -0.166,-12.001 -6.991,-8.712 -185.477,89.399 -204.598,99.936 -230.6,90.07 -14.554,-5.522 -15.935,-21.709 -14.012,-35.943 6.769,-50.085 55.993,-46.625 113.58,-78.173 34.564,-18.935 127.241,-107.722 190.099,-118.158 26.104,-4.334 40.619,-3.76 62.432,-29.978 36.507,-43.879 76.094,-133.18 150.564,-176.269 64.556,-37.353 62.323,-38.163 80.173,-47.222 3.69,-1.873 5.205,-5.478 3.018,-9.761 -26.165,-51.221 10.38,-95.728 4.752,-213.666 -1.974,-41.362 -4.454,-86.581 -47.197,-85.479 -19.673,0.507 -33.346,10.425 -42.776,27.436 -51.936,93.684 -28.407,203.088 -34.888,252.02 -4.274,32.266 -26.026,54.366 -42.824,31.55 -14.538,-19.745 -31.998,-66.27 -36.004,-81.124 -18.84,-69.862 5.963,-220.824 80.135,-272.047 139.361,-96.243 249.964,-43.334 234.123,182.552 -3.768,53.732 -13.368,70.717 -11.717,97.242 2.977,47.817 146.388,-13.024 525.943,-87.743 118.193,-23.267 101.736,-9.026 219.528,-36.4 6.888,-1.601 11.281,-6.72 14.477,-12.672 36.904,-68.744 103.357,-80.945 154.296,-106.749 55.598,-28.163 94.058,-76.304 146.108,-123.919 61.653,-56.4 69.149,-62.692 71.965,-110.093 1.012,-17.028 4.135,-33.55 11.206,-49.156 3.609,-7.966 10.69,-10.642 18.753,-7.327 37.941,15.601 40.033,50.612 75.858,91.92 30.003,34.596 67.158,39.722 90.045,49.257 103.912,43.29 30.935,85.026 89.526,128.017 16.44,12.062 27.017,20.613 17.757,38.556 -11.014,21.342 -50.425,55.035 -82.828,59.833 -34.219,5.067 -68.885,-15.757 -126.883,25.325 -9.979,7.068 -20.572,16.031 -12.498,25.266 34.606,39.582 38.931,89.073 104.855,77.133 57.188,-10.357 41.37,-8.698 83.884,-17.52 63.443,-13.165 137.232,-11.583 191.787,-24.434 63.823,-15.034 112.475,-58.824 154.709,-53.93 18.467,2.14 34.365,10.405 43.003,26.567 10.5,19.647 8.328,38.738 -17.71,51.691 -58.021,28.863 -64.413,8.628 -263.209,69.784 -78.717,24.215 -76.74,24.842 -76.325,29.702 0.458,5.368 2.64,4.717 37.339,9.345 70.014,9.339 203.738,21.735 270.929,7.229 36.872,-7.96 80.271,-17.144 104.373,12.31 13.236,16.175 22.38,71.231 -47.926,82.675 -61.113,9.947 -130.17,0.097 -224.682,5.97 z" />
</g>
</svg>