<?xml version="1.0" encoding="UTF-8" standalone="no"?>
<svg
   xmlns:dc="http://purl.org/dc/elements/1.1/"
   xmlns:cc="http://creativecommons.org/ns#"
   xmlns:rdf="http://www.w3.org/1999/02/22-rdf-syntax-ns#"
   xmlns:svg="http://www.w3.org/2000/svg"
   xmlns="http://www.w3.org/2000/svg"
   height="206.17827"
   width="240.90956"
   xml:space="preserve"
   viewBox="0 0 240.90956 206.17827"
   y="0px"
   x="0px"
   id="Calque_1"
   version="1.1"><metadata
   id="metadata10"><rdf:RDF><cc:Work
       rdf:about=""><dc:format>image/svg+xml</dc:format><dc:type
         rdf:resource="http://purl.org/dc/dcmitype/StillImage" /></cc:Work></rdf:RDF></metadata><defs
   id="defs8" />
<style
   id="style2"
   type="text/css">
	.st0{fill:#010202;}
</style>
<path
   style="fill:#010202"
   d="m 239.91954,203.27826 c -1,0 -7,1.3 -9.8,1.8 -2.9,0.5 -9.4,0 -9.2,-2.8 0.2,-2.8 5.2,-7.1 6.2,-8.3 1,-1.1 0,-13.3 -1,-15.6 -1,-2.3 -4.3,-9 -10.5,-12.3 -6.2,-3.3 -26.3,-19 -30,-23.8 -3.6,-4.8 -4.5,-15.6 -21.3,-12.8 -16.8,2.8 -40.8,10 -48.9,9.8 -8.1,-0.1 -18.300002,3.2 -21.600002,2.7 -3.3,-0.5 -4.6,0 -5.3,7.2 -0.6,7.1 -3.1,39.6 -4.3,42.3 -1.1,2.7 -3.1,14.7 -4.8,14.7 -1.7,0 -18.5,-0.2 -17,-2.2 1.5,-2 0.9,-6.8 4.2,-8.2 3.3,-1.4 4.3,-2.2 4.3,-4.2 0,-2 -2.2,-41 -2.5,-45.8 -0.3,-4.9 -1.8,-14 -5,-17.7 -3.2,-3.7 -6.5,-8 -9.5,-13 -3,-5 -3.8,-7 -3.3,-12.7 0.5,-5.699996 -5.7,-18.599996 -7,-21.199996 -1.3,-2.6 -8.9,-20.7 -11,-22.8 -2.1,-2.1 -15.4,0.4 -21.2,-2.7 -5.7999999,-3.1 -9.3999999,-4.2 -10.59999987,-12.5 -1.2,-8.2 -1.6,-6.8 2.49999997,-7.8 4.1,-1 14.6999999,-1.7 15.4999999,-3 0.7,-1.2 5.6,-9.1 10.5,-11.6 0.7,-0.3 1.1,-0.9 1.3,-1.6 0.9,-3.2 1.4,-7.6 1.7,-12.9000004 0.7,-13.9 9.8,-1.2 13.4,4.5000004 1,1.5 1.9,2.9 2.6,3.5 2.8,2.7 10,9.8 11.1,10.9 4.8,4.8 8.7,8.4 11.8,12.3 2.8,3.2 13.2,22.1 20.8,23.5 7.8,1.4 25.700002,12 54.500002,11.9 28.8,-0.1 35,-1.8 38,-1.3 3,0.5 2.5,-0.2 3.2,-3.2 0.6,-3 0.6,-21.2 -4.7,-35.2 -5.3,-14 -18.6,-29.7000004 -14.8,-32.20000035 3.8,-2.50000005 14.7,10.90000035 23.7,23.40000035 9,12.5 14,35 13,42.8 -1,7.8 -1.5,28 2.8,30.8 4.4,2.799996 9.9,8.799996 10.2,12.299996 0.3,3.5 1,26.9 2.8,30.7 1.9,3.8 2.9,11.8 6.2,11.8 3.3,0 4.1,6.4 4.8,11.2 0.7,4.8 5.4,17.4 7.7,23.6 2.3,6.2 1.5,15.7 0.5,15.7 z"
   class="st0"
   id="XMLID_2_" />
</svg>